<svg width="127" height="253" viewBox="0 0 127 253" fill="none" xmlns="http://www.w3.org/2000/svg">
<mask id="mask0" mask-type="alpha" maskUnits="userSpaceOnUse" x="40" y="10" width="39" height="39">
<path d="M55.4854 48.6224L55.7666 38.927C55.7666 38.927 43.9702 39.8651 41.4466 38.5559C41.4466 38.5559 38.3628 22.6857 42.0409 13.8972L42.1154 13.5549L67.0089 10.6465L68.5576 24.7406C69.3961 22.2707 76.1632 19.642 77.9724 23.1794C81.8927 30.8445 67.8755 36.0056 67.8755 36.0056L69.2986 48.739" fill="white"/>
</mask>
<g mask="url(#mask0)">
<path d="M55.4854 48.6224L55.7666 38.927C55.7666 38.927 43.9702 39.8651 41.4466 38.5559C41.4466 38.5559 38.3628 22.6857 42.0409 13.8972L42.1154 13.5549L67.0089 10.6465L68.5576 24.7406C69.3961 22.2707 76.1632 19.642 77.9724 23.1794C81.8927 30.8445 67.8755 36.0056 67.8755 36.0056L69.2986 48.739" fill="#5E93D1"/>
</g>
<path opacity="0.400274" fill-rule="evenodd" clip-rule="evenodd" d="M55.7666 38.9271L63.7207 37.2236L55.8047 42.5646L55.7666 38.9271Z" fill="black"/>
<path fill-rule="evenodd" clip-rule="evenodd" d="M49.205 23.0835L46.4564 29.7951L49.7505 29.837L49.205 23.0835Z" fill="#2437A8"/>
<path fill-rule="evenodd" clip-rule="evenodd" d="M52.339 24.9909C52.1752 25.8947 52.7763 26.7596 53.6813 26.9232C54.5861 27.0867 55.4524 26.4864 55.6159 25.5829C55.7797 24.6791 55.1789 23.8139 54.2739 23.6503C53.3688 23.487 52.5028 24.087 52.339 24.9909Z" fill="#0D0B6D"/>
<path fill-rule="evenodd" clip-rule="evenodd" d="M43.6937 24.9909C43.5299 25.8947 44.131 26.7596 45.0361 26.9232C45.9408 27.0867 46.8071 26.4864 46.9706 25.5829C47.1344 24.6791 46.5336 23.8139 45.6286 23.6503C44.7235 23.487 43.8575 24.087 43.6937 24.9909Z" fill="#0D0B6D"/>
<path fill-rule="evenodd" clip-rule="evenodd" d="M52.6228 31.7373C52.6228 31.7373 51.4715 33.602 49.1909 33.444L52.6228 31.7373Z" fill="white"/>
<path d="M52.6228 31.7373C52.6228 31.7373 51.4715 33.602 49.1909 33.444" stroke="#252535" stroke-width="4"/>
<path fill-rule="evenodd" clip-rule="evenodd" d="M68.4071 24.891C70.2659 22.9662 72.289 22.1507 73.5161 21.812L73.282 16.9545L61.5885 14.918C62.3943 20.3371 65.5243 23.2937 68.4071 24.891Z" fill="#EACB47"/>
<path fill-rule="evenodd" clip-rule="evenodd" d="M41.3508 15.7925C42.4043 14.7915 49.2706 14.4814 57.5246 15.1163C59.4444 15.2639 61.2849 15.4499 62.9868 15.6655C68.6132 16.3712 72.7529 17.3751 73.4267 18.258C74.1741 7.22654 67.4095 0.656671 58.5526 0.0454517C52.7421 -0.356122 47.4727 1.90864 44.3184 6.62713C42.7044 9.04543 41.6423 12.1104 41.3508 15.7925Z" fill="#393954"/>
<mask id="mask1" mask-type="alpha" maskUnits="userSpaceOnUse" x="34" y="6" width="29" height="11">
<path d="M62.9868 6.38574H34.9398V16.0106H62.9868V6.38574Z" fill="white"/>
</mask>
<g mask="url(#mask1)">
<path fill-rule="evenodd" clip-rule="evenodd" d="M41.2177 16.0106H41.2207C41.2319 15.9339 41.2771 15.8601 41.3508 15.7921C42.4042 14.7912 49.2706 14.4811 57.5246 15.116C59.4447 15.2636 61.2849 15.4496 62.9868 15.6652C60.5659 13.3679 56.1373 9.73606 50.9131 8.10614C48.679 7.40929 46.4135 6.90141 44.3184 6.62681C39.2329 5.95358 35.1526 6.64453 34.9486 9.28133C34.6854 12.7124 40.3399 15.5855 41.2177 16.0106Z" fill="#161629"/>
</g>
<mask id="mask2" mask-type="alpha" maskUnits="userSpaceOnUse" x="6" y="206" width="121" height="47">
<path d="M31.777 234.117L29.7878 240.524C29.7878 240.524 14.2546 234.155 6.26443 236.571L33.1896 252.158L40.1993 234.561L31.777 234.117ZM104.39 214.889L113.1 222.87C113.1 222.87 111.806 228.18 111.26 233.189C110.471 240.439 110.956 246.984 110.956 246.984L126.056 220.646L107.415 206.817L104.39 214.889Z" fill="white"/>
</mask>
<g mask="url(#mask2)">
<path d="M31.777 234.117L29.7878 240.524C29.7878 240.524 14.2546 234.155 6.26443 236.571L33.1896 252.158L40.1993 234.561L31.777 234.117ZM104.39 214.889L113.1 222.87C113.1 222.87 111.806 228.18 111.26 233.189C110.471 240.439 110.956 246.984 110.956 246.984L126.056 220.646L107.415 206.817L104.39 214.889Z" fill="#0D0B6D"/>
<path d="M6.17355 211.838H130.92V252.332H6.17355V211.838Z" fill="#19141E"/>
</g>
<mask id="mask3" mask-type="alpha" maskUnits="userSpaceOnUse" x="29" y="206" width="90" height="38">
<path d="M39.7536 235.949L31.427 235.2L29.788 240.524L36.6797 243.396L39.7536 235.949ZM107.543 206.809L106.586 216.923L113.1 222.87L118.272 214.922L107.543 206.809Z" fill="white"/>
</mask>
<g mask="url(#mask3)">
<path d="M39.7536 235.949L31.427 235.2L29.788 240.524L36.6797 243.396L39.7536 235.949ZM107.543 206.809L106.586 216.923L113.1 222.87L118.272 214.922L107.543 206.809Z" fill="#CF3E83"/>
<path d="M23.4284 211.838H122.05V243.515H23.4284V211.838Z" fill="#CF3E83"/>
</g>
<mask id="mask4" mask-type="alpha" maskUnits="userSpaceOnUse" x="28" y="104" width="90" height="138">
<path d="M73.7371 140.216L84.7963 104.251H56.4147L41.4753 104.251C41.4473 113.049 42.4834 127.539 47.9682 144.039L30.5544 226.058C30.3379 227.088 30.704 228.116 31.4472 228.782L28.8009 238.178L39.6164 241.326L42.1926 232.571L42.2601 232.593C43.7937 233.1 45.4447 232.249 45.9168 230.712L63.1218 174.755C65.062 177.616 67.1762 180.47 69.4741 183.305C84.0236 201.253 93.0914 210.933 97.755 215.59C99.4198 217.255 102.01 217.337 103.766 215.976L110.417 221.452L117.02 212.369L110.448 206.956C111.501 205.267 111.328 203.071 109.981 201.572C103.28 194.095 84.4213 171.26 73.7372 140.216L73.7371 140.216Z" fill="white"/>
</mask>
<g mask="url(#mask4)">
<path d="M73.7371 140.216L84.7963 104.251H56.4147L41.4753 104.251C41.4473 113.049 42.4834 127.539 47.9682 144.039L30.5544 226.058C30.3379 227.088 30.704 228.116 31.4472 228.782L28.8009 238.178L39.6164 241.326L42.1926 232.571L42.2601 232.593C43.7937 233.1 45.4447 232.249 45.9168 230.712L63.1218 174.755C65.062 177.616 67.1762 180.47 69.4741 183.305C84.0236 201.253 93.0914 210.933 97.755 215.59C99.4198 217.255 102.01 217.337 103.766 215.976L110.417 221.452L117.02 212.369L110.448 206.956C111.501 205.267 111.328 203.071 109.981 201.572C103.28 194.095 84.4213 171.26 73.7372 140.216L73.7371 140.216Z" fill="#101016"/>
<path d="M25.7611 104.251H116.872V242.387H25.7611V104.251Z" fill="#2437A8"/>
</g>
<g opacity="0.0987491">
<path opacity="0.0987491" fill-rule="evenodd" clip-rule="evenodd" d="M42.1927 232.571L42.2602 232.593C43.7938 233.1 45.4448 232.249 45.9169 230.712L63.122 174.755L73.7371 140.216L84.7964 104.251H56.4148L47.9685 144.038L30.5546 226.058C30.338 227.088 30.7042 228.116 31.4473 228.782L28.8011 238.178L39.6165 241.326L42.1927 232.571Z" fill="white"/>
</g>
<mask id="mask5" mask-type="alpha" maskUnits="userSpaceOnUse" x="36" y="104" width="42" height="129">
<path d="M36.3915 230.396L40.9467 232.013L59.2248 168.638L70.5012 129.542L77.7947 104.251H68.5498L66.9246 110.629L54.4003 159.752L36.3915 230.396Z" fill="white"/>
</mask>
<g mask="url(#mask5)">
<path d="M36.3915 230.396L40.9467 232.013L59.2248 168.638L70.5012 129.542L77.7947 104.251H68.5498L66.9246 110.629L54.4003 159.752L36.3915 230.396Z" fill="#EFEFEF"/>
<path d="M36.5533 104.251H77.7002V231.937H36.5533V104.251Z" fill="#F6B852"/>
</g>
<mask id="mask6" mask-type="alpha" maskUnits="userSpaceOnUse" x="0" y="46" width="105" height="95">
<path d="M11.6484 68.0469C15.2525 75.1236 27.9042 98.3539 36.9237 94.6488C43.6767 91.8743 51.761 68.8734 51.761 68.8734L38.6199 61.0527L32.7149 76.8591L20.6578 63.7605C21.0672 61.165 21.3952 57.772 20.579 56.5759C19.1895 54.5401 12.1592 48.2676 12.1592 48.2676L10.8792 58.8952L10.6556 57.9993C10.6559 57.9494 10.6439 57.8954 10.6185 57.837C10.6161 57.8314 10.6136 57.8258 10.6109 57.8202L10.0934 55.7463C10.3107 55.6367 10.3996 55.4804 10.3056 55.2641C10.2294 55.0885 10.0631 54.8961 9.83073 54.6939L8.06372 47.6133C8.06372 47.6133 7.48386 47.8713 6.6337 48.2577C5.26627 47.9757 0.314407 51.3421 0.239273 51.3932L0.238312 51.3939C-0.770111 52.0451 1.62816 62.8088 3.5761 64.8083C4.96194 66.2308 9.27416 67.4573 11.6484 68.0469ZM92.1561 116.043L91.3511 117.572C91.3511 117.572 90.6225 118.82 89.8597 120.999C89.0972 123.179 89.4139 124.512 87.7641 127.935C85.8913 131.82 89.2412 130.218 90.4423 128.522C91.3798 127.198 91.2734 125.409 92.4888 124.607C92.8961 125.257 93.8268 126.186 94.346 131.792C94.4391 132.797 93.9832 136.059 93.9832 136.059C93.9734 137.036 93.848 139.074 94.9606 139.385C95.2362 139.462 95.5951 139.157 95.5951 139.157C95.5951 139.157 95.4873 140.433 96.6241 140.686C97.0712 140.786 97.9591 138.033 97.9591 138.033C97.9591 138.033 98.0943 139.431 98.9433 139.587C99.1834 139.63 102.017 131.653 102.017 131.653L101.847 133.455L101.471 135.3C101.471 135.3 101.501 136.294 102.299 136.469C102.616 136.539 103.224 134.882 103.793 132.933C104.68 129.9 104.662 127.621 104.401 125.355C104.086 122.616 104.226 121.696 103.007 118.338C102.861 117.936 102.666 117.475 102.447 117.001C103.116 111.227 105.001 94.3259 104.77 89.1374C104.49 82.8441 97.8222 68.8735 97.8222 68.8735L84.2852 76.4414L91.7465 90.0363L92.1561 116.043ZM59.7702 53.4414C67.611 52.9804 70.919 48.1074 71.6734 46.7894C66.6985 46.4459 66.1786 46.4962 59.552 47.1825C56.8644 47.4611 54.9795 48.0328 53.154 48.5327C52.7589 49.8735 52.1972 53.8829 59.7702 53.4414Z" fill="white"/>
</mask>
<g mask="url(#mask6)">
<path d="M11.6484 68.0469C15.2525 75.1236 27.9042 98.3539 36.9237 94.6488C43.6767 91.8743 51.761 68.8734 51.761 68.8734L38.6199 61.0527L32.7149 76.8591L20.6578 63.7605C21.0672 61.165 21.3952 57.772 20.579 56.5759C19.1895 54.5401 12.1592 48.2676 12.1592 48.2676L10.8792 58.8952L10.6556 57.9993C10.6559 57.9494 10.6439 57.8954 10.6185 57.837C10.6161 57.8314 10.6136 57.8258 10.6109 57.8202L10.0934 55.7463C10.3107 55.6367 10.3996 55.4804 10.3056 55.2641C10.2294 55.0885 10.0631 54.8961 9.83073 54.6939L8.06372 47.6133C8.06372 47.6133 7.48386 47.8713 6.6337 48.2577C5.26627 47.9757 0.314407 51.3421 0.239273 51.3932L0.238312 51.3939C-0.770111 52.0451 1.62816 62.8088 3.5761 64.8083C4.96194 66.2308 9.27416 67.4573 11.6484 68.0469ZM92.1561 116.043L91.3511 117.572C91.3511 117.572 90.6225 118.82 89.8597 120.999C89.0972 123.179 89.4139 124.512 87.7641 127.935C85.8913 131.82 89.2412 130.218 90.4423 128.522C91.3798 127.198 91.2734 125.409 92.4888 124.607C92.8961 125.257 93.8268 126.186 94.346 131.792C94.4391 132.797 93.9832 136.059 93.9832 136.059C93.9734 137.036 93.848 139.074 94.9606 139.385C95.2362 139.462 95.5951 139.157 95.5951 139.157C95.5951 139.157 95.4873 140.433 96.6241 140.686C97.0712 140.786 97.9591 138.033 97.9591 138.033C97.9591 138.033 98.0943 139.431 98.9433 139.587C99.1834 139.63 102.017 131.653 102.017 131.653L101.847 133.455L101.471 135.3C101.471 135.3 101.501 136.294 102.299 136.469C102.616 136.539 103.224 134.882 103.793 132.933C104.68 129.9 104.662 127.621 104.401 125.355C104.086 122.616 104.226 121.696 103.007 118.338C102.861 117.936 102.666 117.475 102.447 117.001C103.116 111.227 105.001 94.3259 104.77 89.1374C104.49 82.8441 97.8222 68.8735 97.8222 68.8735L84.2852 76.4414L91.7465 90.0363L92.1561 116.043ZM59.7702 53.4414C67.611 52.9804 70.919 48.1074 71.6734 46.7894C66.6985 46.4459 66.1786 46.4962 59.552 47.1825C56.8644 47.4611 54.9795 48.0328 53.154 48.5327C52.7589 49.8735 52.1972 53.8829 59.7702 53.4414Z" fill="#E576C6"/>
<path d="M-0.0369873 46.6191H104.79V140.669H-0.0369873V46.6191Z" fill="#ED4848"/>
</g>
<mask id="mask7" mask-type="alpha" maskUnits="userSpaceOnUse" x="32" y="46" width="68" height="59">
<path d="M37.4377 60.8925L37.3909 60.8834L32.0503 73.1612L39.6727 77.604L41.2641 104.411H84.6936L85.4219 77.9746L99.1538 67.706C99.1538 67.706 92.6781 54.7201 81.5978 49.5517C78.0154 47.8798 74.7301 47.0909 71.6735 46.7889C71.4229 46.7642 71.6207 46.7712 71.5902 46.8894C71.5729 46.9565 71.5125 47.0564 71.4423 47.1699C71.3721 47.2833 71.3721 47.2466 71.0281 47.754C70.684 48.2614 70.1741 48.7672 69.4051 49.5517C68.7673 50.2025 67.8862 50.8396 67.0218 51.3227C66.0377 51.8726 65.0717 52.2399 64.452 52.5006C63.8926 52.7359 63.421 52.8593 62.9652 52.9676C61.6776 53.2734 60.6751 53.3682 58.6302 53.4747C58.382 53.4877 56.9451 53.3813 56.6924 53.3311C56.3319 53.2594 56.0089 53.1947 55.6013 53.0835C55.1937 52.9724 54.1808 52.4997 53.5102 51.667C53.2258 51.3138 52.9556 50.1522 53.0388 49.2965C53.122 48.4407 53.4952 48.4389 53.1541 48.5323C47.1552 50.1653 41.4858 53.5319 38.1715 59.5022C37.9044 59.9831 37.6602 60.4464 37.4377 60.8925Z" fill="white"/>
</mask>
<g mask="url(#mask7)">
<path d="M37.4377 60.8925L37.3909 60.8834L32.0503 73.1612L39.6727 77.604L41.2641 104.411H84.6936L85.4219 77.9746L99.1538 67.706C99.1538 67.706 92.6781 54.7201 81.5978 49.5517C78.0154 47.8798 74.7301 47.0909 71.6735 46.7889C71.4229 46.7642 71.6207 46.7712 71.5902 46.8894C71.5729 46.9565 71.5125 47.0564 71.4423 47.1699C71.3721 47.2833 71.3721 47.2466 71.0281 47.754C70.684 48.2614 70.1741 48.7672 69.4051 49.5517C68.7673 50.2025 67.8862 50.8396 67.0218 51.3227C66.0377 51.8726 65.0717 52.2399 64.452 52.5006C63.8926 52.7359 63.421 52.8593 62.9652 52.9676C61.6776 53.2734 60.6751 53.3682 58.6302 53.4747C58.382 53.4877 56.9451 53.3813 56.6924 53.3311C56.3319 53.2594 56.0089 53.1947 55.6013 53.0835C55.1937 52.9724 54.1808 52.4997 53.5102 51.667C53.2258 51.3138 52.9556 50.1522 53.0388 49.2965C53.122 48.4407 53.4952 48.4389 53.1541 48.5323C47.1552 50.1653 41.4858 53.5319 38.1715 59.5022C37.9044 59.9831 37.6602 60.4464 37.4377 60.8925Z" fill="#5E93D1"/>
<path d="M31.9662 46.6177H99.238V104.419H31.9662V46.6177Z" fill="#0D0B6D"/>
</g>
<path opacity="0.200521" d="M85.4224 77.9737L81.9389 80.3309L73.5655 70.6084" stroke="black" stroke-width="5"/>
<mask id="mask8" mask-type="alpha" maskUnits="userSpaceOnUse" x="1" y="40" width="16" height="24">
<path d="M16.3279 40.1245H1.86704V63.7555H16.3279V40.1245Z" fill="white"/>
</mask>
<g mask="url(#mask8)">
<path fill-rule="evenodd" clip-rule="evenodd" d="M5.89534 60.7874L6.50194 63.7556H16.3279L11.693 40.1245H1.86704C2.12174 41.4231 2.72163 44.4816 3.66671 49.3001L5.59883 48.4071L6.20062 48.2408L6.67434 48.2673L6.87968 48.4071V48.9813L4.77928 51.9936L6.38602 52.6917L8.85816 53.9849L9.57244 54.4781L9.84918 54.7337L10.0752 54.9356L10.2192 55.1089L10.3057 55.2639L10.3428 55.4653L10.3057 55.5543L10.2627 55.6229L10.2002 55.6847L9.3899 55.9702L7.54147 55.4653H5.7146L8.15305 55.9702L9.7598 56.9289L10.3057 57.4421L10.6142 57.8192V58.1642L10.0752 58.4061L6.67434 58.0168L7.80042 58.6277L8.54667 59.0892L9.23073 59.4411L9.7598 60.1218V60.4577L9.57244 60.6549L9.09746 60.9068H8.37318H6.91405L5.89534 60.7874Z" fill="#5E93D1"/>
</g>
<mask id="mask9" mask-type="alpha" maskUnits="userSpaceOnUse" x="11" y="40" width="7" height="24">
<path d="M17.9551 40.1245H11.6945V63.7555H17.9551V40.1245Z" fill="white"/>
</mask>
<g mask="url(#mask9)">
<path fill-rule="evenodd" clip-rule="evenodd" d="M16.3291 63.7556H17.9551L13.3202 40.1245H11.6945L16.3291 63.7556Z" fill="#020101"/>
</g>
<path fill-rule="evenodd" clip-rule="evenodd" d="M10.0022 42.8681C10.1381 43.5583 10.5407 44.0611 10.9016 43.9907C11.2621 43.9206 11.4447 43.3041 11.3088 42.6139C11.173 41.9233 10.7703 41.4208 10.4095 41.4909C10.0486 41.5614 9.8664 42.1779 10.0022 42.8681Z" fill="#020101"/>
</svg>
