<svg width="688" height="516" viewBox="0 0 688 516" fill="none" xmlns="http://www.w3.org/2000/svg">
<g clip-path="url(#clip0)">
<path d="M273.927 176.111H118.861C111.895 176.111 106.249 181.758 106.249 188.723V343.79C106.249 350.755 111.895 356.402 118.861 356.402H273.927C280.893 356.402 286.539 350.755 286.539 343.79V188.723C286.539 181.758 280.893 176.111 273.927 176.111Z" fill="#F5EBDD"/>
<path d="M252.861 170.719C255.265 170.719 257.213 168.771 257.213 166.367C257.213 163.964 255.265 162.016 252.861 162.016C250.458 162.016 248.51 163.964 248.51 166.367C248.51 168.771 250.458 170.719 252.861 170.719Z" fill="#A15842"/>
<path d="M252.861 151.24V164.919" stroke="#A15842" stroke-width="4" stroke-miterlimit="10"/>
<path d="M271.614 155.802H264.992V212.996H271.614V155.802Z" fill="#A15842"/>
<path d="M288.014 108.644C286.69 111.262 281.134 120.404 268.303 120.404C255.472 120.404 249.92 111.262 248.592 108.644L236.186 155.802H300.424L288.014 108.644Z" fill="#FFBE21"/>
<path d="M282.66 109.56L291.002 155.81" stroke="#F5EBDD" stroke-width="4" stroke-miterlimit="10" stroke-linecap="round"/>
<path d="M253.949 110.161L245.715 155.81" stroke="#F5EBDD" stroke-width="4" stroke-miterlimit="10" stroke-linecap="round"/>
<path d="M262.893 109.865L259.703 155.794" stroke="#F5EBDD" stroke-width="4" stroke-miterlimit="10" stroke-linecap="round"/>
<path d="M273.712 109.865L276.911 155.884" stroke="#F5EBDD" stroke-width="4" stroke-miterlimit="10" stroke-linecap="round"/>
<path d="M268.32 120.4C281.155 120.4 286.707 111.258 288.031 108.639V108.549H248.617L248.592 108.639C249.92 111.262 255.472 120.4 268.32 120.4Z" fill="#FF7235"/>
<path d="M520.528 87.8271H365.461C358.496 87.8271 352.849 93.4737 352.849 100.439V255.506C352.849 262.471 358.496 268.118 365.461 268.118H520.528C527.493 268.118 533.14 262.471 533.14 255.506V100.439C533.14 93.4737 527.493 87.8271 520.528 87.8271Z" fill="#F5EBDD"/>
<path d="M268.092 437.215C266.896 437.216 265.741 436.779 264.844 435.987C263.947 435.195 263.371 434.102 263.225 432.915L259.595 402.424H276.589L272.96 432.915C272.814 434.103 272.238 435.196 271.341 435.988C270.444 436.78 269.289 437.217 268.092 437.215V437.215Z" fill="#30242A"/>
<path d="M458.741 437.215C457.545 437.217 456.39 436.78 455.494 435.988C454.598 435.195 454.023 434.102 453.878 432.915L450.249 402.424H467.238L463.609 432.915C463.463 434.103 462.887 435.196 461.99 435.988C461.094 436.78 459.938 437.217 458.741 437.215Z" fill="#30242A"/>
<path d="M168.384 276.408H244.67V402.828H133.601V311.187C133.602 301.962 137.267 293.116 143.79 286.594C150.313 280.072 159.16 276.408 168.384 276.408V276.408Z" fill="#FFB7D5"/>
<path d="M253.76 212.996H516.593C525.818 212.996 534.665 216.661 541.188 223.184C547.711 229.707 551.376 238.554 551.376 247.779V402.816H218.986V247.775C218.986 238.55 222.651 229.703 229.174 223.18C235.697 216.657 244.544 212.992 253.769 212.992L253.76 212.996Z" fill="#FFB7D5"/>
<path d="M218.977 295.036V402.816" stroke="#A15842" stroke-width="4" stroke-miterlimit="10" stroke-linecap="round"/>
<path d="M253.76 326.972H516.593C525.818 326.972 534.665 330.636 541.188 337.159C547.711 343.682 551.376 352.529 551.376 361.754V402.819H218.986V361.754C218.986 352.531 222.65 343.685 229.171 337.162C235.692 330.64 244.537 326.974 253.76 326.972V326.972Z" fill="#FFB7D5"/>
<path d="M414.451 326.972H252.505C243.609 326.972 235.078 330.505 228.788 336.795C222.498 343.085 218.965 351.616 218.965 360.512V402.832" stroke="#A15842" stroke-width="4" stroke-miterlimit="10" stroke-linecap="round"/>
<path d="M439.473 327.501V402.816" stroke="#A15842" stroke-width="4" stroke-miterlimit="10"/>
<path d="M551.376 275.578H473.826" stroke="#A15842" stroke-width="4" stroke-miterlimit="10"/>
<path d="M195.77 262.3C205.716 263.543 208.817 259.32 210.274 255.669C211.93 251.529 210.863 247.968 209.573 243.341C209.573 243.341 212.859 241.553 212.347 239.501C211.917 237.846 208.18 237.661 208.18 237.661C208.034 236.921 207.904 236.155 207.789 235.361C206.959 229.556 205.716 226.24 205.716 226.24C202.814 227.07 199.086 226.67 197.843 226.24C196.164 230.891 193.134 234.935 189.14 237.85C189.14 237.85 180.02 227.904 174.219 235.365C169.489 241.449 176.291 249.039 180.849 249.869C178.14 255.583 170.852 258.899 167.059 260.283C167.292 262.081 167.511 263.749 167.704 265.203H196.084L195.77 262.3Z" fill="#EAA58B"/>
<path d="M294.477 298.386C295.974 293.06 297.197 287.66 298.14 282.209L288.195 255.27C288.195 255.27 292.34 244.09 288.625 242.421C284.909 240.753 276.589 251.55 273.274 260.245C271.842 264.003 267.929 272.642 263.951 281.237L294.477 298.386Z" fill="#EAA58B"/>
<path d="M253.377 303.76C253.377 303.76 229.34 283.451 218.934 275.986C208.528 268.522 196.6 269.777 196.6 269.777L196.08 265.215H167.7C168.13 268.453 168.409 270.603 168.409 270.603L147.279 346.038L210.27 341.063L208.614 317.843C208.614 317.843 242.584 346.223 262.081 343.539C279.663 341.106 289.652 315.718 294.473 298.389L263.943 281.241C258.727 292.533 253.377 303.76 253.377 303.76Z" fill="#3EC1F3"/>
<path d="M180.849 249.882C176.291 249.052 169.484 241.462 174.219 235.378C180.019 227.917 189.14 237.863 189.14 237.863C193.133 234.948 196.164 230.904 197.843 226.253C199.086 226.683 202.814 227.083 205.716 226.253C205.716 226.253 211.934 224.181 211.517 219.21C210.962 212.536 200.741 215.477 200.741 215.477C200.741 215.477 189.561 207.187 177.521 212.575C164.69 218.35 163.443 229.99 164.26 237.863C164.733 242.383 166.027 252.483 167.046 260.296C170.852 258.907 178.14 255.596 180.849 249.882Z" fill="#30242A"/>
<path d="M296.124 287.39C294.227 288.173 292.563 288.401 291.824 287.975C289.966 286.917 289.674 284.703 291.88 281.59C291.88 281.59 286.638 283.632 285.021 280.975C283.404 278.317 285.834 275.871 285.834 275.871C285.834 275.871 282.123 276.894 281.216 273.592C280.308 270.289 283.366 268.561 283.366 268.561C283.366 268.561 281.276 267.782 281.216 265.602C281.134 262.433 286.298 259.862 287.786 259.187" stroke="#A15842" stroke-width="8" stroke-miterlimit="10" stroke-linecap="round"/>
<path d="M209.53 317.753L207.995 299.826" stroke="#4756DF" stroke-width="4" stroke-miterlimit="10" stroke-linecap="round"/>
<path d="M195.379 263.066C192.974 262.522 190.658 261.642 188.499 260.451" stroke="#A15842" stroke-width="4" stroke-miterlimit="10" stroke-linecap="round"/>
<path d="M149.971 340.44L160.652 312.038" stroke="#4756DF" stroke-width="4" stroke-miterlimit="10" stroke-linecap="round"/>
<path d="M206.194 247.59C205.51 248.02 202.939 248.347 201.894 246.373" stroke="#A15842" stroke-width="4" stroke-miterlimit="10" stroke-linecap="round"/>
<path d="M202.401 238.276C203.087 238.276 203.644 237.72 203.644 237.034C203.644 236.347 203.087 235.791 202.401 235.791C201.715 235.791 201.158 236.347 201.158 237.034C201.158 237.72 201.715 238.276 202.401 238.276Z" fill="#A15842"/>
<path d="M179.607 240.766L184.165 243.251" stroke="#A15842" stroke-width="4" stroke-miterlimit="10" stroke-linecap="round"/>
<path d="M295.883 420.342L327.63 410.947C325.209 402.579 320.578 386.716 317.598 377.476L277.982 394.013C283.166 403.297 289.156 412.107 295.883 420.342V420.342Z" fill="#EAA58B"/>
<path d="M296.485 421.052C295.556 424.579 294.98 428.19 294.765 431.832H350.927C349.85 429.239 347.937 427.081 345.492 425.7L329.225 416.489C329.225 416.489 328.606 414.339 327.63 410.942L295.883 420.342C296.27 420.807 296.485 421.052 296.485 421.052Z" fill="#FFBE21"/>
<path d="M294.825 437.216H352.015L351.839 435.444C351.715 434.201 351.407 432.984 350.923 431.832H294.761C294.637 433.625 294.659 435.426 294.825 437.216V437.216Z" fill="#FF7235"/>
<path d="M266.643 367.59C269.386 377.05 273.587 386.127 277.982 394.013L317.598 377.476C317.168 376.087 316.738 374.848 316.377 373.803C303.98 337.98 296.485 309.17 278.249 306.25C249.546 301.684 200.72 351.117 193.388 358.71L203.949 365.113L237.154 380.709L249.249 383.5L266.643 367.59Z" fill="#A15842"/>
<path d="M265.74 367.22C264.8 362.636 264.339 357.967 264.364 353.288" stroke="#30242A" stroke-width="4" stroke-miterlimit="10" stroke-linecap="round"/>
<path d="M419.577 269.36C419.577 269.36 379.858 279.839 362.387 289.669C342.491 300.849 341.248 315.779 328.817 353.494C324.813 365.633 321.984 375.385 319.357 383.048L353.602 399.216L353.666 399.087C353.666 399.087 370.436 396.623 371.903 375.867C373.008 360.387 373.537 348.902 378.946 337.322L471.37 269.352L419.577 269.36Z" fill="#30242A"/>
<path d="M300.893 405.817C288.917 407.632 283.92 409.963 281.973 415.393L304.595 425.924C304.595 425.924 316.725 422.484 323.257 424.165V424.187C327.632 425.213 331.903 426.643 336.015 428.457C342.755 419.257 348.655 409.471 353.645 399.217L319.4 383.049C314.489 397.389 310.396 404.377 300.893 405.817Z" fill="#4856DF"/>
<path d="M317.809 432.081L328.843 437.216C331.391 434.436 333.777 431.511 335.989 428.456C331.877 426.642 327.606 425.213 323.231 424.187L317.809 432.081Z" fill="#30242A"/>
<path d="M312.146 396.881L319.825 400.239" stroke="#F5EBDD" stroke-width="4" stroke-miterlimit="10" stroke-linecap="round"/>
<path d="M307.781 402.209L315.461 405.572" stroke="#F5EBDD" stroke-width="4" stroke-miterlimit="10" stroke-linecap="round"/>
<path d="M459.778 177.143C462.181 177.143 464.129 175.194 464.129 172.791C464.129 170.388 462.181 168.439 459.778 168.439C457.374 168.439 455.426 170.388 455.426 172.791C455.426 175.194 457.374 177.143 459.778 177.143Z" fill="#FFBE21"/>
<path d="M475.116 145.439C484.729 145.439 492.522 137.646 492.522 128.032C492.522 118.419 484.729 110.626 475.116 110.626C465.502 110.626 457.709 118.419 457.709 128.032C457.709 137.646 465.502 145.439 475.116 145.439Z" fill="#30242A"/>
<path d="M463.11 139.639C464.176 140.129 455.237 118.913 450.679 122.228C446.37 125.35 457.705 137.17 463.11 139.639Z" fill="#3EC1F3"/>
<path d="M463.587 140.933C464.563 142.098 487.362 134.121 484.227 129.516C481.17 125.091 462.615 139.75 463.587 140.933Z" fill="#3EC1F3"/>
<path d="M506.2 224.184L508.196 223.875V223.29C507.55 223.63 506.884 223.929 506.2 224.184Z" fill="#30242A"/>
<path d="M451.904 219.627C471.306 219.98 481.097 200.226 483.582 194.331C482.722 194.171 481.862 194.034 480.916 193.931C469.736 192.688 467.655 192.275 463.923 187.3C460.19 182.325 459.777 172.379 459.777 172.379C459.777 172.379 469.444 170.229 468.068 162.433C466.825 155.385 458.535 155.385 453.977 160.361C453.977 160.361 446.929 158.701 440.298 151.24C440.298 151.24 435.448 152.38 432.128 151.825C431.268 157.252 431.32 163.323 430.34 168.234C428.68 176.524 429.91 181.912 434.898 184.815C439.886 187.717 445.673 185.64 445.673 185.64L444.431 193.101C444.431 193.101 437.194 193.939 431.161 195.836C432.361 205.201 436.674 219.352 451.904 219.627Z" fill="#A15842"/>
<path d="M478.844 269.361L481.101 267.83L477.188 269.361H478.844Z" fill="#A15842"/>
<path d="M389.322 221.286C389.322 221.286 367.594 191.616 362.382 185.639C356.577 179.009 348.704 171.965 346.219 174.459C343.733 176.953 350.777 185.235 350.777 185.235L349.534 212.175C349.534 212.175 363.81 250.673 379.376 255.695C387.159 258.206 401.942 251.584 412.387 245.977L396.232 216.737C392.126 219.429 389.322 221.286 389.322 221.286Z" fill="#A15842"/>
<path d="M506.2 224.185C506.2 224.185 504.54 215.069 502.468 210.094C499.368 202.646 494.251 196.334 483.582 194.33C481.097 200.225 471.306 219.98 451.904 219.627C436.674 219.352 432.361 205.2 431.174 195.835C429.903 196.223 428.659 196.695 427.45 197.245C423.077 199.288 405.984 210.356 396.232 216.737L412.37 245.96C419.16 242.318 424.118 239.08 424.118 239.08L419.56 269.335H477.18L481.093 267.804L508.183 249.426C508.147 240.975 507.485 232.538 506.2 224.185V224.185Z" fill="#FF7235"/>
<path d="M518.219 203.051C515.247 188.942 499.982 189.372 499.982 189.372C500.723 185.996 500.619 182.49 499.679 179.164C498.739 175.838 496.993 172.795 494.594 170.306C486.304 161.603 474.698 165.331 474.698 165.331C475.128 160.36 475.941 147.512 465.165 139.639C454.39 131.765 440.716 135.906 435.74 142.124C433.715 144.657 432.73 148.088 432.141 151.825C435.448 152.379 440.311 151.24 440.311 151.24C446.942 158.7 453.99 160.36 453.99 160.36C458.548 155.385 466.838 155.385 468.081 162.433C469.457 170.229 459.79 172.379 459.79 172.379C459.79 172.379 460.22 182.325 463.936 187.3C467.651 192.275 469.741 192.688 480.929 193.93C481.858 194.034 482.744 194.171 483.595 194.33C494.263 196.33 499.38 202.646 502.481 210.094C504.553 215.069 506.213 224.185 506.213 224.185C506.889 223.929 507.548 223.63 508.187 223.291C512.203 221.201 520.781 215.22 518.219 203.051Z" fill="#30242A"/>
<path d="M458.952 165.331L462.267 163.263" stroke="#30242A" stroke-width="4" stroke-miterlimit="10" stroke-linecap="round"/>
<path d="M437.74 175.062C438.428 175.492 440.995 175.818 442.04 173.845" stroke="#30242A" stroke-width="4" stroke-miterlimit="10" stroke-linecap="round"/>
<path d="M444.5 165.734C445.186 165.734 445.742 165.178 445.742 164.492C445.742 163.805 445.186 163.249 444.5 163.249C443.813 163.249 443.257 163.805 443.257 164.492C443.257 165.178 443.813 165.734 444.5 165.734Z" fill="#30242A"/>
<path d="M434.911 164.088C435.597 164.088 436.153 163.532 436.153 162.845C436.153 162.159 435.597 161.603 434.911 161.603C434.224 161.603 433.668 162.159 433.668 162.845C433.668 163.532 434.224 164.088 434.911 164.088Z" fill="#30242A"/>
<path d="M438.226 166.161C438.226 166.161 437.095 168.995 437.366 169.562C437.563 169.927 437.861 170.226 438.226 170.422" stroke="#30242A" stroke-width="4" stroke-miterlimit="10" stroke-linecap="round"/>
<path d="M353.46 217.77C354.134 217.764 354.789 217.544 355.331 217.142C356.797 215.675 356.5 213.53 353.636 211.191C353.636 211.191 359.063 211.754 359.889 208.851C360.714 205.949 357.82 204.293 357.82 204.293C357.82 204.293 361.548 204.293 361.548 200.978C361.548 197.663 358.233 196.833 358.233 196.833C358.233 196.833 359.987 195.564 359.476 193.518C358.646 190.202 351.602 189.372 351.602 189.372L350.631 188.186" stroke="#30242A" stroke-width="8" stroke-linecap="round" stroke-linejoin="round"/>
<path d="M445.91 186.448C447.658 185.753 449.364 184.957 451.018 184.062" stroke="#30242A" stroke-width="4" stroke-miterlimit="10" stroke-linecap="round"/>
<path d="M390.354 221.191L394.71 227.087" stroke="#30242A" stroke-width="4" stroke-miterlimit="10" stroke-linecap="round"/>
<path d="M425.537 225.423L423.421 238.701" stroke="#A15842" stroke-width="4" stroke-miterlimit="10" stroke-linecap="round"/>
<path d="M476.771 252.367L476.565 231.026" stroke="#A15842" stroke-width="4" stroke-miterlimit="10" stroke-linecap="round"/>
<path d="M500.61 189.952C500.011 192.191 499.21 194.37 498.215 196.462" stroke="black" stroke-width="4" stroke-linecap="round" stroke-linejoin="round"/>
<path d="M475.46 165.809L474.286 171.966" stroke="black" stroke-width="4" stroke-linecap="round" stroke-linejoin="round"/>
<path d="M450.249 269.778C450.249 269.778 414.602 280.958 394.71 290.499C374.93 299.959 377.303 321.997 381.032 360.542C382.352 374.169 383.895 384.837 384.678 393.287H422.518C424.462 392.203 435.934 384.837 429.093 364.687C424.096 349.977 419.783 340.233 419.783 327.454H451.431C460.434 327.454 469.082 323.944 475.538 317.67C481.994 311.396 485.75 302.852 486.007 293.853L486.7 269.773L450.249 269.778Z" fill="#30242A"/>
<path d="M377.462 420.539C367.383 427.256 363.844 431.479 364.369 437.228L389.309 437.193C389.309 437.193 398.842 428.942 405.473 427.699C409.867 426.864 414.33 426.448 418.803 426.456C420.321 419.021 421.955 407.863 422.243 393.441L422.518 393.299H384.678C385.998 407.48 385.159 415.401 377.462 420.539Z" fill="#4856DF"/>
<path d="M403.912 437.155H416.085C416.085 437.155 417.41 433.453 418.837 426.461C414.364 426.453 409.901 426.869 405.507 427.704L403.912 437.155Z" fill="#30242A"/>
<path d="M419.401 328.215H409.631" stroke="black" stroke-width="4" stroke-linecap="round" stroke-linejoin="round"/>
<path d="M383.917 409.656H393.261" stroke="#F5EBDD" stroke-width="4" stroke-miterlimit="10" stroke-linecap="round"/>
<path d="M381.84 416.287H391.184" stroke="#F5EBDD" stroke-width="4" stroke-miterlimit="10" stroke-linecap="round"/>
<path d="M255.661 343.962C265.846 343.962 274.104 335.704 274.104 325.519C274.104 315.333 265.846 307.076 255.661 307.076C245.475 307.076 237.218 315.333 237.218 325.519C237.218 335.704 245.475 343.962 255.661 343.962Z" fill="white"/>
<path d="M125.517 202.216C129.293 202.216 132.354 199.155 132.354 195.379C132.354 191.603 129.293 188.542 125.517 188.542C121.741 188.542 118.68 191.603 118.68 195.379C118.68 199.155 121.741 202.216 125.517 202.216Z" fill="white"/>
<path d="M146.243 202.216C150.019 202.216 153.08 199.155 153.08 195.379C153.08 191.603 150.019 188.542 146.243 188.542C142.467 188.542 139.406 191.603 139.406 195.379C139.406 199.155 142.467 202.216 146.243 202.216Z" fill="white"/>
<path d="M166.965 202.216C170.741 202.216 173.802 199.155 173.802 195.379C173.802 191.603 170.741 188.542 166.965 188.542C163.189 188.542 160.128 191.603 160.128 195.379C160.128 199.155 163.189 202.216 166.965 202.216Z" fill="white"/>
<path d="M273.91 176.111C277.254 176.111 280.46 177.439 282.825 179.803C285.189 182.168 286.518 185.374 286.518 188.718V343.789C286.518 347.133 285.189 350.34 282.825 352.704C280.46 355.068 277.254 356.397 273.91 356.397H118.856C115.513 356.397 112.306 355.068 109.941 352.704C107.577 350.34 106.249 347.133 106.249 343.789V188.718C106.249 185.374 107.577 182.168 109.941 179.803C112.306 177.439 115.513 176.111 118.856 176.111H273.91ZM273.91 174.391H118.856C115.058 174.395 111.416 175.906 108.73 178.592C106.044 181.278 104.533 184.92 104.529 188.718V343.789C104.533 347.588 106.044 351.229 108.73 353.915C111.416 356.601 115.058 358.112 118.856 358.117H273.91C277.708 358.112 281.35 356.601 284.036 353.915C286.722 351.229 288.233 347.588 288.238 343.789V188.718C288.233 184.92 286.722 181.278 284.036 178.592C281.35 175.906 277.708 174.395 273.91 174.391Z" fill="#F5EBDD"/>
<path d="M475.081 276.408H551.376V402.828H440.32V311.187C440.321 301.966 443.983 293.123 450.501 286.602C457.02 280.08 465.861 276.414 475.081 276.408V276.408Z" fill="#FFB7D5"/>
<path d="M532.31 402.884C533.329 399.959 535.233 397.423 537.758 395.629C540.283 393.834 543.303 392.87 546.401 392.87C549.499 392.87 552.52 393.834 555.045 395.629C557.57 397.423 559.474 399.959 560.492 402.884C561.466 400.092 563.247 397.652 565.61 395.874C567.972 394.096 570.81 393.059 573.762 392.895C572.443 390.544 570.873 388.342 569.079 386.329L563.661 380.262C561.974 378.369 560.911 376.003 560.615 373.486C560.32 370.968 560.807 368.42 562.01 366.188L566.611 357.64C565.321 358.93 557.856 365.93 546.526 365.93C535.195 365.93 527.735 358.943 526.445 357.64L531.05 366.188C532.251 368.421 532.736 370.969 532.439 373.487C532.142 376.004 531.078 378.37 529.39 380.262L523.972 386.329C522.174 388.345 520.601 390.551 519.281 392.908C522.19 393.116 524.974 394.171 527.29 395.944C529.606 397.717 531.351 400.13 532.31 402.884V402.884Z" fill="#4756DF"/>
<path d="M574.583 411.51C571.485 411.511 568.464 412.477 565.94 414.272C563.415 416.067 561.511 418.603 560.492 421.529C559.475 418.601 557.572 416.063 555.047 414.267C552.522 412.471 549.5 411.506 546.401 411.506C543.302 411.506 540.28 412.471 537.755 414.267C535.23 416.063 533.327 418.601 532.31 421.529C531.079 417.991 528.562 415.046 525.261 413.278C521.959 411.51 518.113 411.047 514.486 411.983C514.699 421.444 518.516 430.466 525.159 437.207H567.849C574.479 430.481 578.294 421.48 578.518 412.039C577.235 411.689 575.912 411.511 574.583 411.51Z" fill="#4756DF"/>
<path d="M546.504 365.93C557.835 365.93 565.295 358.943 566.59 357.64H526.423C527.713 358.943 535.178 365.93 546.504 365.93Z" fill="#30242A"/>
<path d="M532.31 421.538C533.327 418.61 535.23 416.072 537.755 414.276C540.28 412.48 543.302 411.515 546.401 411.515C549.5 411.515 552.522 412.48 555.047 414.276C557.572 416.072 559.475 418.61 560.492 421.538C561.734 417.965 564.286 414.998 567.633 413.236C570.979 411.475 574.87 411.05 578.518 412.048C578.689 405.351 577.046 398.734 573.762 392.895C570.81 393.059 567.972 394.096 565.61 395.874C563.247 397.653 561.466 400.092 560.492 402.884C559.473 399.959 557.57 397.423 555.045 395.629C552.52 393.834 549.499 392.87 546.401 392.87C543.303 392.87 540.282 393.834 537.757 395.629C535.233 397.423 533.329 399.959 532.31 402.884C531.348 400.124 529.596 397.707 527.272 395.933C524.948 394.16 522.155 393.108 519.238 392.908C515.978 398.73 514.344 405.321 514.508 411.992C518.135 411.056 521.981 411.519 525.282 413.287C528.584 415.055 531.1 418 532.331 421.538H532.31Z" fill="#3EC1F3"/>
<path d="M549.48 364.756C550.297 359.743 554.025 339.851 563.395 329.066" stroke="#30242A" stroke-width="4" stroke-miterlimit="10" stroke-linecap="round"/>
<path d="M545.15 364.898C545.089 359.205 544.505 331.229 538.94 314.536" stroke="#30242A" stroke-width="4" stroke-miterlimit="10" stroke-linecap="round"/>
<path d="M569.798 345.3C578.015 341.685 584.017 337.256 583.204 335.408C582.391 333.561 575.071 334.994 566.854 338.609C558.637 342.224 552.636 346.653 553.449 348.501C554.262 350.348 561.582 348.915 569.798 345.3Z" fill="#30242A"/>
<path d="M569.793 294.472C572.746 290.479 574.01 286.407 572.616 285.376C571.222 284.345 567.698 286.746 564.745 290.738C561.792 294.73 560.528 298.803 561.922 299.834C563.316 300.864 566.84 298.464 569.793 294.472Z" fill="#30242A"/>
<path d="M525.325 348.187C536.035 346.567 544.485 343.72 544.199 341.827C543.912 339.934 534.998 339.713 524.289 341.333C513.579 342.953 505.129 345.8 505.415 347.692C505.701 349.585 514.615 349.806 525.325 348.187Z" fill="#30242A"/>
<path d="M517.84 320.226V320.256C519.421 321.141 520.613 322.586 521.181 324.307C521.749 326.027 521.653 327.898 520.911 329.551C520.168 331.203 518.834 332.518 517.171 333.237C515.507 333.955 513.636 334.024 511.924 333.431V333.461C520.902 337.494 529.511 337.8 531.153 334.145C532.796 330.49 526.819 324.259 517.84 320.226Z" fill="#FF7235"/>
<path d="M544.38 290.989C542.466 290.495 539.981 293.385 538.166 297.869C535.982 292.439 532.813 288.805 530.68 289.51C528.547 290.215 528.16 295.019 529.64 300.69C525.52 298.179 521.801 297.336 520.562 298.871C518.98 300.832 522.029 305.915 527.373 310.228C528.894 311.468 530.532 312.558 532.263 313.483C532.557 312.312 533.14 311.234 533.957 310.346C534.774 309.458 535.8 308.788 536.942 308.397C538.084 308.006 539.305 307.907 540.495 308.108C541.685 308.309 542.806 308.804 543.756 309.548C544.558 307.825 545.198 306.031 545.67 304.19C547.39 297.525 546.818 291.622 544.38 290.989Z" fill="#FF7235"/>
<path d="M586.047 321.163C585.458 319.279 581.691 318.699 576.935 319.52C580.375 314.79 581.803 310.185 580.074 308.744C578.346 307.304 574.054 309.522 570.038 313.771C569.991 308.946 568.748 305.347 566.783 305.106C564.285 304.801 561.58 310.077 560.763 316.893C560.516 318.839 560.457 320.805 560.587 322.762C561.736 322.393 562.959 322.318 564.145 322.542C565.331 322.766 566.442 323.283 567.378 324.045C568.313 324.808 569.043 325.792 569.502 326.908C569.961 328.024 570.133 329.238 570.004 330.438C571.89 330.207 573.752 329.803 575.564 329.229C582.095 327.178 586.8 323.566 586.047 321.163Z" fill="#FF7235"/>
<path d="M567.415 324.095C566.478 323.314 565.359 322.782 564.161 322.549C562.964 322.316 561.727 322.39 560.565 322.762C560.797 326.005 561.619 328.486 562.853 329.41C564.001 330.477 566.667 330.829 569.982 330.438C570.111 329.251 569.943 328.051 569.496 326.944C569.048 325.838 568.333 324.859 567.415 324.095V324.095Z" fill="#30242A"/>
<path d="M537.018 308.358C535.859 308.74 534.816 309.409 533.985 310.303C533.154 311.197 532.563 312.286 532.267 313.47C535.139 314.988 537.681 315.62 539.117 315.044C540.63 314.614 542.338 312.559 543.761 309.536C542.821 308.798 541.714 308.305 540.538 308.099C539.361 307.894 538.152 307.982 537.018 308.358V308.358Z" fill="#30242A"/>
<path d="M518.64 332.39C517.872 331.959 517.293 331.255 517.018 330.419C516.743 329.582 516.792 328.672 517.155 327.869C517.518 327.066 518.168 326.429 518.978 326.082C519.788 325.735 520.698 325.705 521.53 325.996C521.434 324.807 521.045 323.66 520.399 322.657C519.754 321.654 518.87 320.827 517.827 320.247L511.911 333.422C513.031 333.816 514.231 333.928 515.404 333.748C516.578 333.568 517.689 333.101 518.64 332.39V332.39Z" fill="#F5EBDD"/>
<path d="M517.131 327.875C516.769 328.68 516.724 329.593 517.003 330.431C517.283 331.268 517.867 331.971 518.64 332.398C519.625 331.665 520.407 330.694 520.912 329.575C521.418 328.456 521.63 327.227 521.53 326.004C520.696 325.705 519.78 325.732 518.964 326.079C518.149 326.425 517.494 327.067 517.131 327.875V327.875Z" fill="#4856DF"/>
<path d="M372.122 113.937C375.898 113.937 378.959 110.876 378.959 107.1C378.959 103.324 375.898 100.263 372.122 100.263C368.346 100.263 365.285 103.324 365.285 107.1C365.285 110.876 368.346 113.937 372.122 113.937Z" fill="white"/>
<path d="M392.844 113.937C396.62 113.937 399.681 110.876 399.681 107.1C399.681 103.324 396.62 100.263 392.844 100.263C389.068 100.263 386.007 103.324 386.007 107.1C386.007 110.876 389.068 113.937 392.844 113.937Z" fill="white"/>
<path d="M413.566 113.937C417.341 113.937 420.402 110.876 420.402 107.1C420.402 103.324 417.341 100.263 413.566 100.263C409.79 100.263 406.729 103.324 406.729 107.1C406.729 110.876 409.79 113.937 413.566 113.937Z" fill="white"/>
<path d="M520.528 87.8274C523.873 87.8274 527.081 89.1562 529.446 91.5214C531.811 93.8866 533.14 97.0944 533.14 100.439V255.51C533.139 258.854 531.809 262.061 529.444 264.425C527.079 266.79 523.872 268.118 520.528 268.118H365.461C362.117 268.118 358.91 266.79 356.545 264.425C354.18 262.061 352.851 258.854 352.849 255.51V100.439C352.849 98.7831 353.176 97.1431 353.809 95.613C354.443 94.0828 355.372 92.6925 356.543 91.5214C357.714 90.3502 359.105 89.4213 360.635 88.7874C362.165 88.1536 363.805 87.8274 365.461 87.8274H520.528ZM520.528 86.1074H365.461C361.662 86.112 358.019 87.6234 355.332 90.3102C352.645 92.9969 351.134 96.6397 351.129 100.439V255.51C351.134 259.309 352.646 262.952 355.332 265.638C358.019 268.324 361.662 269.834 365.461 269.838H520.528C524.327 269.834 527.97 268.324 530.657 265.638C533.344 262.952 534.855 259.309 534.86 255.51V100.439C534.855 96.6397 533.344 92.9969 530.657 90.3102C527.97 87.6234 524.327 86.112 520.528 86.1074V86.1074Z" fill="#F5EBDD"/>
<path d="M351.189 185.227C351.189 185.227 342.073 185.227 340.831 188.955C339.588 192.683 342.486 195.59 342.486 195.59C342.486 195.59 337.515 198.075 340.831 202.633C340.831 202.633 338.341 206.778 342.486 209.264C342.486 209.264 340.001 212.166 344.146 215.069C348.291 217.971 354.092 218.384 355.326 217.141C356.792 215.675 356.496 213.529 353.632 211.19C353.632 211.19 359.058 211.753 359.884 208.851C360.71 205.948 357.816 204.293 357.816 204.293C357.816 204.293 361.544 204.293 361.544 200.977C361.544 197.662 358.229 196.832 358.229 196.832C358.229 196.832 359.983 195.564 359.471 193.517C358.861 191.079 354.896 189.987 352.836 189.578C352.289 189.477 351.736 189.408 351.181 189.372L351.189 185.227Z" fill="#A15842"/>
<path d="M342.964 209.612C347.081 210.857 351.321 211.654 355.61 211.99" stroke="#30242A" stroke-width="4" stroke-miterlimit="10" stroke-linecap="round"/>
<path d="M341.42 202.96C347.419 204.444 353.597 205.08 359.772 204.848" stroke="#30242A" stroke-width="4" stroke-miterlimit="10" stroke-linecap="round"/>
<path d="M342.731 196.08C348.418 197.446 354.298 197.821 360.112 197.189" stroke="#30242A" stroke-width="4" stroke-miterlimit="10" stroke-linecap="round"/>
<path d="M475.941 263.99C475.941 263.99 442.371 272.697 430.765 281.401C425.524 285.331 419.155 292.581 417.091 295.904C415.027 299.228 406.316 311.655 410.461 312.068C414.606 312.481 419.164 305.025 419.164 305.025C419.164 305.025 416.67 314.141 417.1 317.043C417.53 319.946 421.658 319.116 421.658 319.116C424.973 322.431 427.876 318.286 427.876 318.286C433.677 322.014 439.916 302.122 439.916 302.122C443.32 300.444 446.462 298.28 449.243 295.698C449.243 295.698 486.334 295.492 497.94 285.129C506.179 277.776 508.213 263.272 508.208 249.469H475.958L475.941 263.99Z" fill="#A15842"/>
<path d="M476.251 262.984L483.819 261.092" stroke="#30242A" stroke-width="4" stroke-miterlimit="10" stroke-linecap="round"/>
<path d="M417.53 308.31C419.68 301 421.4 296.7 422.69 294.038" stroke="#30242A" stroke-width="4" stroke-miterlimit="10" stroke-linecap="round"/>
<path d="M428.486 296.528C424.754 304.569 422.466 314.27 421.4 319.06" stroke="#30242A" stroke-width="4" stroke-miterlimit="10" stroke-linecap="round"/>
<path d="M434.3 299.427C431.862 305.017 429.647 313.428 428.28 318.631" stroke="#30242A" stroke-width="4" stroke-miterlimit="10" stroke-linecap="round"/>
<path d="M424.617 278.498C414.516 282.093 403.241 286.41 394.71 290.499C379.419 297.809 377.368 312.649 378.946 336.802" stroke="black" stroke-width="4" stroke-linecap="round" stroke-linejoin="round"/>
<path d="M181.705 397.444C164.75 400.884 152.667 405.305 152.667 405.305L136.353 398.076L136.387 397.72L98.3711 432.244L99.201 433.238C100.239 434.482 101.537 435.484 103.005 436.171C104.472 436.858 106.073 437.215 107.693 437.215H183.997L181.705 397.444Z" fill="#EAA58B"/>
<path d="M152.65 405.305C152.65 405.305 164.733 400.863 181.688 397.444L183.98 437.215H238.439C253.163 437.215 266.067 426.895 268.81 412.43C270.638 402.776 267.783 392.439 257.523 385.409C241.019 374.1 205.716 359.299 196.6 356.396L146.449 368.006C136.916 378.369 138.989 395.359 138.989 395.359L152.65 405.305Z" fill="#A15842"/>
<path d="M181.83 397.982C193.104 395.802 205.699 393.914 223.329 394.735" stroke="#30242A" stroke-width="4" stroke-miterlimit="10" stroke-linecap="round"/>
<path d="M197.46 355.967C205.437 358.508 233.464 370.157 251.4 380.606" stroke="#30242A" stroke-width="4" stroke-miterlimit="10" stroke-linecap="round"/>
<path d="M144.48 398.021L102.645 435.985C104.21 436.794 105.945 437.216 107.706 437.215H138.159L152.65 405.305C150.38 402.411 147.614 399.945 144.48 398.021V398.021Z" fill="#FFBE21"/>
<path d="M138.989 395.355L98.3711 432.245L99.201 433.238C100.151 434.377 101.321 435.311 102.641 435.986L144.48 398.021C142.754 396.933 140.912 396.039 138.989 395.355Z" fill="#FF7235"/>
<path d="M129.662 429.966V437.31" stroke="#30242A" stroke-width="4" stroke-miterlimit="10" stroke-linecap="round"/>
<path d="M123.032 429.966V437.31" stroke="#30242A" stroke-width="4" stroke-miterlimit="10" stroke-linecap="round"/>
<path d="M168.581 269.906C169.871 269.786 172.563 269.566 175.255 269.566" stroke="#4756DF" stroke-width="4" stroke-miterlimit="10" stroke-linecap="round"/>
<path d="M288.195 255.27C288.195 255.27 296.279 252.591 298.515 255.962C300.751 259.333 298.678 263.014 298.678 263.014C298.678 263.014 304.307 264.128 302.256 269.572C302.256 269.572 305.863 273.012 302.423 276.624C302.423 276.624 305.691 278.83 302.359 282.85C299.026 286.871 293.372 288.87 291.794 287.976C289.936 286.918 289.644 284.703 291.85 281.59C291.85 281.59 286.608 283.633 284.991 280.975C283.374 278.318 285.804 275.871 285.804 275.871C285.804 275.871 282.093 276.895 281.186 273.592C280.278 270.29 283.336 268.561 283.336 268.561C283.336 268.561 281.246 267.783 281.186 265.603C281.104 262.434 286.664 259.673 288.152 259.002L288.195 255.27Z" fill="#EAA58B"/>
<path d="M282.08 269.141C285.271 268.582 293.376 266.853 298.742 263.121" stroke="#A15842" stroke-width="4" stroke-miterlimit="10" stroke-linecap="round"/>
<path d="M283.37 276.886C290.108 276.042 296.572 273.703 302.29 270.04" stroke="#A15842" stroke-width="4" stroke-miterlimit="10" stroke-linecap="round"/>
<path d="M289.39 283.193C290.538 282.789 298.029 280.102 302.574 277.221" stroke="#A15842" stroke-width="4" stroke-miterlimit="10" stroke-linecap="round"/>
<path d="M174.653 336.26C167.15 337.176 158.777 338.531 149.352 340.216L162.613 304.574L168.414 270.604C168.414 270.604 149.352 272.676 140.649 282.644C132.621 291.815 107.491 334.45 117.429 356.831C127.366 379.213 157.225 371.318 164.26 369.246C168.1 368.115 173.918 365.509 179.89 363.57L174.653 336.26Z" fill="#3EC1F3"/>
<path d="M194.111 361.372C203.231 362.615 213.59 367.173 215.249 361.372C215.249 361.372 220.839 361.23 219.076 355.915C219.076 355.915 221.88 355.567 222.293 353.494C223.123 349.353 213.177 345.621 213.177 345.621C213.177 345.621 221.05 346.864 222.71 345.191C224.821 343.075 222.766 339.708 209.905 336.591C200.565 334.329 189.265 334.467 174.645 336.255L179.895 363.548C184.9 361.957 189.965 360.804 194.111 361.372Z" fill="#EAA58B"/>
<path d="M216.72 346.15C212.304 344.456 203.919 341.639 197.843 340.65" stroke="#A15842" stroke-width="4" stroke-miterlimit="10" stroke-linecap="round"/>
<path d="M219.248 355.743C213.486 353.163 202.358 348.382 196.39 347.487" stroke="#A15842" stroke-width="4" stroke-miterlimit="10" stroke-linecap="round"/>
<path d="M214.781 361.802C210.339 359.549 201.451 355.318 195.147 354.118" stroke="#A15842" stroke-width="4" stroke-miterlimit="10" stroke-linecap="round"/>
<path d="M174.726 336.879C170.676 337.404 157.72 339.192 138.365 342.929" stroke="#4756DF" stroke-width="4" stroke-miterlimit="10" stroke-linecap="round"/>
<path d="M502.261 255.682C512.447 255.682 520.704 247.425 520.704 237.24C520.704 227.054 512.447 218.797 502.261 218.797C492.076 218.797 483.819 227.054 483.819 237.24C483.819 247.425 492.076 255.682 502.261 255.682Z" fill="white"/>
<path d="M503.13 245.566H504.282V244.108C507.126 243.982 508.674 242.272 508.674 240.328C508.674 237.538 506.208 237.016 504.282 236.476V233.686C504.786 233.866 505.128 234.28 505.2 234.946H508.494C508.332 232.66 506.748 231.4 504.282 231.202V229.744H503.13V231.202C500.682 231.364 498.792 232.696 498.792 234.946C498.792 237.772 501.204 238.312 503.13 238.816V241.66C502.518 241.462 502.158 241.012 502.086 240.274H498.81C498.9 242.596 500.682 243.874 503.13 244.09V245.566ZM505.452 240.436C505.452 241.102 505.002 241.588 504.282 241.714V239.158C504.984 239.428 505.452 239.788 505.452 240.436ZM502.05 234.802C502.05 234.1 502.464 233.704 503.13 233.596V236.098C502.482 235.81 502.05 235.432 502.05 234.802Z" fill="#00068A"/>
<path d="M252.088 331V327.048H251.16V325.864H252.088V324.712H251.16V323.528H252.088V319.576H254.6L255.848 323.528H257.304V319.576H259.08V323.528H259.992V324.712H259.08V325.864H259.992V327.048H259.08V331H256.552L255.272 327.048H253.864V331H252.088ZM253.8 323.528H254.248L253.784 321.992H253.72L253.8 323.528ZM253.864 325.864H254.92L254.568 324.712H253.832L253.864 325.864ZM256.6 325.864H257.336L257.304 324.712H256.232L256.6 325.864ZM257.352 328.504H257.432L257.368 327.048H256.936L257.352 328.504Z" fill="#00068A"/>
</g>
<defs>
<clipPath id="clip0">
<rect width="688" height="516" fill="white"/>
</clipPath>
</defs>
</svg>
