<svg width="946" height="885" viewBox="0 0 946 885" fill="none" xmlns="http://www.w3.org/2000/svg">
<g clip-path="url(#clip0)">
<path d="M846.176 438.952L636.92 620.5L416.87 811.437C394.674 830.69 361.038 828.321 341.784 806.124L94.0569 520.57C74.8031 498.373 77.1728 464.737 99.3692 445.483L528.692 73.0323C539.519 63.627 553.112 59.3772 566.396 60.0878C580.325 60.8136 593.947 67.0093 603.778 78.3447L851.488 363.865C870.759 386.096 868.373 419.698 846.176 438.952Z" fill="#33010A"/>
<path opacity="0.2" d="M566.398 60.0873C580.327 60.8131 593.949 67.0088 603.78 78.3442L851.49 363.865C870.744 386.061 868.374 419.697 846.178 438.951L636.921 620.499L566.398 60.0873Z" fill="#2A3F36"/>
<path d="M342.646 352.469L159.648 511.244L173.835 527.596L356.833 368.821L342.646 352.469Z" fill="#BBB8AB"/>
<path d="M483.187 308.861C504.811 293.161 509.613 262.903 493.912 241.279C478.211 219.655 447.954 214.853 426.33 230.554C404.706 246.255 399.904 276.512 415.605 298.136C431.305 319.76 461.563 324.562 483.187 308.861Z" fill="#AF460F"/>
<path d="M524.128 273.323C545.784 257.669 550.65 227.423 534.996 205.766C519.342 184.11 489.096 179.244 467.439 194.898C445.783 210.552 440.917 240.798 456.571 262.455C472.225 284.111 502.471 288.977 524.128 273.323Z" fill="#FFA400"/>
<path d="M338.852 543.476L252.56 618.346L268.041 636.189L354.334 561.32L338.852 543.476Z" fill="#333333"/>
<path d="M453.89 443.675L367.598 518.545L383.079 536.389L469.372 461.519L453.89 443.675Z" fill="#333333"/>
<path d="M568.956 343.849L482.664 418.719L498.146 436.562L584.438 361.693L568.956 343.849Z" fill="#333333"/>
<path d="M684.025 244.023L597.732 318.893L613.214 336.736L699.506 261.866L684.025 244.023Z" fill="#333333"/>
<path d="M660.976 391.794L315.806 691.273L325.538 702.49L670.708 403.011L660.976 391.794Z" fill="#BBB8AB"/>
<path d="M567.18 516.093L337.077 715.738L346.809 726.955L576.912 527.31L567.18 516.093Z" fill="#BBB8AB"/>
</g>
<defs>
<clipPath id="clip0">
<rect width="750.262" height="612.514" fill="white" transform="translate(0 337.381) rotate(-26.7235)"/>
</clipPath>
</defs>
</svg>
