<svg width="694" height="1073" viewBox="0 0 694 1073" fill="none" xmlns="http://www.w3.org/2000/svg">
<g clip-path="url(#clip0)">
<path d="M1006.94 506.873L771.91 735.597L524.759 976.147C499.829 1000.4 459.916 999.879 435.658 974.949L123.558 654.223C99.3006 629.292 99.8255 589.379 124.756 565.122L606.958 95.887C619.118 84.0385 634.895 78.0962 650.643 78.0372C667.154 77.9526 683.673 84.3533 696.059 97.0851L1008.14 417.772C1032.42 442.741 1031.87 482.616 1006.94 506.873Z" fill="#FAF5E4"/>
<path opacity="0.2" d="M650.642 78.0381C667.153 77.9535 683.672 84.3542 696.058 97.086L1008.14 417.773C1032.39 442.703 1031.87 482.617 1006.94 506.874L771.909 735.598L650.642 78.0381Z" fill="#2A3F36"/>
<path d="M405.981 438.731L200.444 638.764L218.318 657.13L423.855 457.097L405.981 438.731Z" fill="#BBB8AB"/>
<path d="M569.131 377.683C593.625 357.664 597.253 321.578 577.234 297.084C557.215 272.59 521.13 268.962 496.636 288.981C472.141 309 468.513 345.085 488.532 369.579C508.551 394.074 544.637 397.702 569.131 377.683Z" fill="#AF460F"/>
<path d="M615.112 332.913C639.648 312.946 643.352 276.87 623.386 252.335C603.42 227.799 567.343 224.095 542.808 244.061C518.272 264.027 514.568 300.103 534.534 324.639C554.5 349.175 590.576 352.879 615.112 332.913Z" fill="#FFA400"/>
<path d="M414.421 664.732L317.501 759.057L337.005 779.098L433.926 684.773L414.421 664.732Z" fill="#333333"/>
<path d="M543.628 538.998L446.708 633.322L466.212 653.364L563.133 559.039L543.628 538.998Z" fill="#333333"/>
<path d="M672.868 413.228L575.948 507.553L595.453 527.594L692.373 433.269L672.868 413.228Z" fill="#333333"/>
<path d="M784.863 463.67L397.183 840.969L409.444 853.567L797.124 476.268L784.863 463.67Z" fill="#BBB8AB"/>
<path d="M682.42 616.923L423.977 868.445L436.238 881.044L694.681 629.522L682.42 616.923Z" fill="#BBB8AB"/>
</g>
<defs>
<clipPath id="clip0">
<rect width="888.16" height="725.094" fill="white" transform="translate(0 444.08) rotate(-30)"/>
</clipPath>
</defs>
</svg>
