<svg width="288" height="326" viewBox="0 0 288 326" fill="none" xmlns="http://www.w3.org/2000/svg">
<g clip-path="url(#clip0)">
<path d="M55.0051 271.36L52.8445 167.504L50.5654 58.2843C50.3372 47.2687 59.0857 38.1404 70.1012 37.9122L211.822 34.9686C222.837 34.7404 231.966 43.4889 232.194 54.5044L236.62 267.577C236.735 272.954 234.701 277.891 231.311 281.55C227.761 285.392 222.709 287.833 217.084 287.949L75.3772 290.896C64.3477 291.121 55.2333 282.376 55.0051 271.36Z" fill="#33010A"/>
<path opacity="0.2" d="M231.31 281.551C227.761 285.393 222.709 287.834 217.084 287.95L75.377 290.897C64.3615 291.125 55.2331 282.377 55.005 271.361L52.8444 167.504L231.31 281.551Z" fill="#2A3F36"/>
<path d="M200.674 146.94L198.783 56.1133L190.667 56.2823L192.559 147.109L200.674 146.94Z" fill="#BBB8AB"/>
<path d="M179.546 197.911C178.887 207.91 186.459 216.549 196.457 217.208C206.456 217.867 215.095 210.296 215.754 200.297C216.413 190.299 208.842 181.659 198.843 181C188.845 180.341 180.205 187.913 179.546 197.911Z" fill="#AF460F"/>
<path d="M179.975 218.235C179.295 228.232 186.847 236.887 196.844 237.567C206.841 238.248 215.496 230.695 216.176 220.698C216.856 210.702 209.303 202.046 199.307 201.366C189.31 200.686 180.655 208.239 179.975 218.235Z" fill="#FFA400"/>
<path d="M146.521 100.046L145.629 57.2168L136.772 57.4013L137.665 100.23L146.521 100.046Z" fill="#333333"/>
<path d="M147.707 157.139L146.815 114.311L137.959 114.495L138.851 157.324L147.707 157.139Z" fill="#333333"/>
<path d="M148.894 214.247L148.002 171.418L139.146 171.602L140.038 214.431L148.894 214.247Z" fill="#333333"/>
<path d="M150.081 271.356L149.189 228.527L140.333 228.712L141.225 271.541L150.081 271.356Z" fill="#333333"/>
<path d="M113.008 229.279L109.44 57.9629L103.872 58.0788L107.441 229.395L113.008 229.279Z" fill="#BBB8AB"/>
<path d="M99.6653 172.434L97.2865 58.2285L91.7193 58.3445L94.0981 172.55L99.6653 172.434Z" fill="#BBB8AB"/>
</g>
<defs>
<clipPath id="clip0">
<rect width="281.325" height="229.674" fill="white" transform="translate(287.185 51.7793) rotate(103.029)"/>
</clipPath>
</defs>
</svg>
