<?xml version="1.0" encoding="utf-8"?>
<!-- Generator: Adobe Illustrator 19.0.0, SVG Export Plug-In . SVG Version: 6.00 Build 0)  -->
<svg version="1.0" id="Layer_1" xmlns="http://www.w3.org/2000/svg" xmlns:xlink="http://www.w3.org/1999/xlink" x="0px" y="0px"
	 width="1400px" height="980px" viewBox="0 0 1400 980" enable-background="new 0 0 1400 980" xml:space="preserve">
<g id="XMLID_1_">
	<rect id="XMLID_199_" x="0" fill="#2E368E" width="1400" height="980"/>
	<g id="XMLID_196_">
		<defs>
			<rect id="XMLID_473_" x="0" width="1400" height="980"/>
		</defs>
		<clipPath id="XMLID_3_">
			<use xlink:href="#XMLID_473_"  overflow="visible"/>
		</clipPath>
		<g id="XMLID_168_" clip-path="url(#XMLID_3_)">
			<g id="XMLID_123_">
				<path id="XMLID_138_" fill="#00C2F3" d="M746.2,313.6c22.5,25.3,34.2,59.3,32.2,93.1c-0.2,3.1-0.3,16-5.3,16.1
					c-7.4,0.3-4.7-17.4-4.4-21.1c1.2-18.1,2.7-37.3,10.9-53.8c7.2-14.6,20.5-28.3,37.4-30c4-0.4,7.5-3.2,7.5-7.5
					c0-3.7-3.4-7.9-7.5-7.5c-20.4,2-37.2,14.9-47.6,32.3c-12.1,20.2-14.3,44.4-15.8,67.4c-0.7,11.1-1.3,23.5,8.4,31.1
					c8.5,6.7,19.9,4.6,25.8-4.3c5.5-8.3,5.7-19.6,5.8-29.2c0.1-10.9-1.1-21.9-3.5-32.5c-5.3-24-17-46.3-33.3-64.7
					C750.3,295.8,739.8,306.4,746.2,313.6L746.2,313.6z"/>
			</g>
			<g id="XMLID_124_">
				<path id="XMLID_171_" fill="#00C2F3" d="M236,447.4c11.9-2.8,20.2,9.2,23.4,19c3.7,11.2,4.9,23.3,6,35
					c2.1,22.8,2.6,46.7,11,68.2c7.5,19.1,26.5,46,50.7,37.9c12.2-4.1,17.4-16.4,21-27.7c3.6-11.4,6.1-23.1,7.3-35
					c2.5-23.8-1.2-49.2-14.5-69.4c-3-4.6-6.7-9.4-12.2-11c-6.3-1.8-12.5,1.1-15.9,6.4c-6.7,10.4-6.1,26.1-4.5,37.8
					c1.8,13.2,6.2,25.7,11.4,37.9c4.7,10.9,9.9,21.4,17.6,30.5c7,8.3,16.5,14.8,27.6,15.6c10,0.7,19.8-3.7,26.3-11.1
					c7.8-9,11.6-20.7,12.7-32.4c1.4-15.1-2.9-30.1-2.7-45.1c0.2-12.5,4.5-25.2,15.2-32.7c9.7-6.7,23.5-7,32.5,1.2
					c7.1,6.5,17.8-4.1,10.6-10.6c-16.6-15.1-42-13.3-57.7,2.2c-7.3,7.2-12.3,16.8-14.2,26.9c-2.5,13.1-0.6,26.1,0.7,39.1
					c1.1,10.5,1.5,20.6-2.1,30.7c-2.4,6.8-7.1,13.9-14.3,16.2c-19.2,6.2-32-21.3-37.9-34.7c-4.8-10.9-8.9-22.4-10.8-34.2
					c-0.9-5.7-1.1-11.6-0.7-17.3c0.2-2.8,0.7-5.7,1.4-8.5c0.2-0.6,1.1-2.4,1-2.9c0.1-0.2,0.2-0.3,0.2-0.5c0.6-0.6,0.2-0.7-1.1-0.3
					c1.2,1.7,3,3.1,4.2,5c1.4,2.2,2.7,4.5,3.9,6.8c2.5,5,4.4,10.2,5.8,15.6c2.6,10.1,3.4,20.5,2.9,30.8c-0.5,11.1-2.5,22.1-5.5,32.8
					c-2.2,7.7-5.1,23-15.1,24.1c-9.1,1-17.4-7.6-22-14.3c-5.8-8.5-9.5-18-11.9-28c-5.5-23.1-5-47.2-8.6-70.6
					c-1.9-12-4.6-24.5-12.1-34.4c-7.9-10.5-20.7-16.6-33.8-13.5C222.6,435.2,226.6,449.6,236,447.4L236,447.4z"/>
			</g>
			<g id="XMLID_125_">
				<path id="XMLID_180_" fill="#00C2F3" d="M367.4,432.1C382,414,402,400.5,425,396.2c21-3.9,42.2,2.1,57.3,17.3
					c14.5,14.6,21.7,35.6,14.6,55.5c-4.2,11.8-11.6,22.7-12.1,35.6c-0.4,9.9,3.8,20.6,11.7,26.7c8.8,6.8,19.7,5.3,28.4-0.7
					c6-4.1,14.5-14,21.8-7.2c8.5,7.8,5.6,20.8,3.7,30.6c-2.3,11.7-5.6,26.7,3.6,36.4c7,7.4,17.4,5.8,26.1,2.8
					c6.2-2.1,16.2-7.5,22.2-2.8c5.5,4.4,6.8,14.2,8.8,20.6c2.7,8.7,6.3,17.3,13.7,23c10.9,8.4,25.2,7,37.8,10.6
					c12.8,3.6,24.4,10.7,34.2,19.6c22.4,20.2,35.4,48.1,48.1,74.9c4.1,8.7,17.1,1.1,13-7.6c-11.8-24.9-24-50.3-43-70.6
					c-8.7-9.3-19-17.6-30.4-23.5c-11.1-5.8-22.5-8.5-34.8-10.2c-5.1-0.7-11-1.4-15.4-4.6c-3.4-2.4-5.4-6.3-6.9-10.1
					c-3.2-8.2-4.7-17-8.8-24.9c-4.4-8.4-12.3-13.9-22-13.9c-9.9,0-18.1,5.9-27.6,7.1c-10.8,1.4-5-18.8-3.9-24.5
					c2.5-12.6,4-25.3-2.8-36.9c-5.5-9.4-15.9-15.5-26.9-12.7c-5.3,1.4-9.7,4.6-13.9,7.9c-3.3,2.6-7.6,6.6-12.1,6.4
					c-8-0.3-10.5-12.3-9.5-18.5c2-12.9,10.7-23.9,13.4-36.7c4.6-21.9-3.5-44.1-18.2-60.4c-17.8-19.7-43.8-28-69.8-24.4
					c-26.9,3.8-51.7,19.4-68.7,40.4c-2.6,3.2-3,7.5,0,10.6C359.4,434.7,364.9,435.2,367.4,432.1L367.4,432.1z"/>
			</g>
			<g id="XMLID_126_">
				<path id="XMLID_191_" fill="#00C2F3" d="M748.7,656.2c13.6,18.1,24.2,38.3,30.9,59.9c6.5,20.8,10.7,44,6,65.6
					c-4.1,18.7-16,36-34.9,42c-20.2,6.4-36.9-5.8-48.8-21.1c-6.9-8.8-12.8-18.5-17.7-28.5c-2.4-4.9-4.5-10.1-6-15.3
					c-0.3-1-1.3-3.7-0.6-4.7c-0.7,1,0,0.2,0.7,0.3c1.4,0.1,2.7,0.2,4.1,0.5c18.9,4.4,29.7,24.6,22.7,42.7
					c-6.2,16.1-24.1,22.3-40.1,19.9c-18.8-2.9-32.4-16.6-40.3-33.3c-4.6-9.7-7.2-20.6-8.3-31.3c-1-10.6-1.1-22.2,3.4-32.1
					c9.8-21.8,36.7-19.1,56.3-16.2c4,0.6,8-1,9.2-5.2c1-3.5-1.2-8.6-5.2-9.2c-23.7-3.5-52.3-5.8-68.6,15.6
					c-15,19.8-12.2,50-5.2,72.3c7.2,22.8,22.3,43.7,45.6,51.7c20.3,7,45.8,3.1,59.8-14.2c16.5-20.4,12.8-50.8-8-66.7
					c-8.6-6.6-23.8-13.4-34.1-7.2c-12.9,7.6-5.1,25.1-0.7,35.3c5.6,12.7,13.1,24.7,21.7,35.6c7.7,9.9,17,18.9,28.7,23.9
					c22.9,9.9,48.9,0.6,64.6-17.8c20.2-23.6,21-56.6,15.3-85.7c-5.9-30.5-19.1-59.6-37.7-84.4c-2.5-3.3-6.5-4.9-10.3-2.7
					C748.2,647.7,746.3,652.9,748.7,656.2L748.7,656.2z"/>
			</g>
			<g id="XMLID_129_">
				<path id="XMLID_203_" fill="#00C2F3" d="M912,85.3c12.3-7.7,28.2-7.9,41-1.3c12.6,6.4,22,18.2,27.1,31.2
					c3.9,10.1,6.5,24.2-0.4,33.7c-1.3,1.8-3,3.3-5,4.2c-0.7,0.3-2.9,0.7-2.7,0.9c0.6,0.4-0.1-0.9-0.1-1.4c0.4-6,3-11,6.3-16.1
					c15.3-23.4,49.8-33.5,71.7-12.6c21.7,20.8,13.7,57.3-4.4,77.6c-23.1,25.9-61.6,30.8-90.8,12.1c-8.2-5.2-15.7,7.8-7.6,13
					c33.9,21.7,79.8,16.5,107.5-12.8c25.1-26.6,34.9-76.1,3.7-102.4c-14.6-12.3-34.7-16.7-53.2-12c-17.9,4.5-33.2,17.4-42.2,33.4
					c-4.2,7.5-7.7,16.4-5.2,25.2c2.8,9.7,12.8,12.9,21.7,9.4c16.2-6.4,20.9-25.2,18.9-41c-2.5-20.3-14.6-39.7-31.3-51.4
					c-18.2-12.7-43.6-14.5-62.6-2.6C896.2,77.4,903.8,90.4,912,85.3L912,85.3z"/>
			</g>
			<g id="XMLID_130_">
				<path id="XMLID_222_" fill="#FBED21" d="M994.3,504.5c21.2,8.7,36.3,29,44.1,50c9.8,26.5,10.9,55.9,10.9,83.8
					c0,3.8,0.1,9.1-4.1,10.2c-2.9,0.7-6.5-0.6-9-2.3c-8.7-5.7-6.4-16.6-2.2-24.6c2.9-5.5,6.7-10.4,10.7-15.1
					c3.6-4.1,7.5-9.1,13.4-9.1c10.3-0.1,20.4,10.2,26.2,17.8c13,17,17.3,39.4,18.7,60.3c0.7,11.2,0.7,22.4,0.1,33.6
					c-0.3,5.8-0.8,12.4-4.2,17.3c-2.2,3.2-6.6,6.7-10.7,5.5c-9.6-2.7-5.7-21.7-4-28c3-11.1,8.8-21.2,17.1-29.2
					c8.2-8,20.5-15.9,32.5-13.3c10.9,2.3,20.5,12.7,27.7,20.6c33.6,36.6,43.9,92.2,25.8,138.4c-1.5,3.8,1.6,8.2,5.2,9.2
					c4.2,1.2,7.8-1.5,9.2-5.2c20.2-51.6,7.1-113.7-30.6-154c-10.3-11-23.1-22.7-38.7-24.2c-15.8-1.6-31.5,7.8-42.3,18.6
					c-10.4,10.4-17.9,23.9-21.1,38.3c-2.8,13-3.7,30.6,7.9,39.8c12,9.5,29.1,2.3,35.7-10.1c7-13.1,6-30.2,5.8-44.7
					c-0.4-26.6-4.1-55.5-19.5-77.9c-7.8-11.3-19-22.4-32.6-26.3c-17.3-4.9-28.7,7.2-38.2,19.8c-9.1,11.9-17.2,28.5-10.6,43.4
					c4.5,10.1,16.2,17.5,27.3,16.8c6.1-0.4,11.6-3.1,15.2-8.1c4.7-6.6,4.3-14.9,4.2-22.7c-0.4-18.2-1.1-36.5-4.1-54.5
					c-5.1-30-18.3-59.5-43.2-78.1c-5.7-4.3-11.9-7.5-18.5-10.2c-3.8-1.5-8.2,1.7-9.2,5.2C987.8,499.6,990.6,503,994.3,504.5
					L994.3,504.5z"/>
			</g>
			<g id="XMLID_133_">
				<path id="XMLID_242_" fill="#FBED21" d="M93.2,97c11,46.2,26.9,100.5,76.4,118.5c10.7,3.9,23.8,5.5,33-2.6
					c8.8-7.8,10.9-21.4,12.9-32.3c4.5-24.7,3.1-51.4-13.8-71.4c-6.4-7.5-19-18.2-29.3-11.3c-8.3,5.6-8.7,20.8-8,29.7
					c1.4,20.2,11.6,39.4,27.6,51.8c8.3,6.4,19.1,12.1,29.8,12.4c12.1,0.4,19.4-9.1,22.8-19.7c3.4-10.4,5-21.5,7.5-32.2
					c2.6-10.7,5.5-21.4,9.8-31.6c4.8-11.2,11.4-21.7,20.6-29.9c4.4-3.9,9.7-7.4,15.6-7.9c6.2-0.6,12,2.3,17,5.6
					c11.4,7.5,20.6,19.1,28.3,30.2c8.2,11.7,15.2,24.2,22.2,36.6c4.7,8.4,17.7,0.9,13-7.6c-10.9-19.4-22-38.9-37.1-55.5
					c-14.2-15.6-34.5-30.9-56.3-21C267,67.1,255,86.3,247.6,104c-7.6,18.4-11.3,38.1-15.8,57.4c-0.9,4-1.7,8.3-4,11.8
					c-2.9,4.6-6.9,3.9-11.7,2.4c-7.7-2.4-14.6-6.9-20.3-12.7c-11.7-11.8-18.5-29.2-16.2-45.9c0.3-1.9,1.2-4,1.3-5.9
					c0.1-4,0.3,0.7-1.1-0.4c0.5,0.4,1.5,0.6,2.1,0.9c4.3,2.3,8,6.3,10.8,10.2c5.6,7.8,8.8,17.2,9.8,26.7c1.3,12.5-0.6,25.1-3.4,37.2
					c-1.9,8.2-3.7,18.4-14.1,17.9c-10.5-0.5-21.4-6.7-29.5-13c-8.7-6.8-16.1-15.4-21.9-24.7c-13.9-22.1-19.9-48-25.9-73.1
					C105.4,83.7,90.9,87.6,93.2,97L93.2,97z"/>
			</g>
			<g id="XMLID_137_">
				<path id="XMLID_246_" fill="#00C2F3" d="M98.8,831.9c-3.8-7.6,2.4-17,9.8-19.4c10.9-3.4,22.3,3.2,28.9,11.6
					c6.9,8.9,10.9,20.6,12.5,31.7c0.8,5.3,0.9,10.9-0.1,16.2c-0.5,2.5-1.1,5.1-2.2,7.5c-0.6,1.4-1.3,2.7-2.1,4
					c-0.3,0.4-0.6,0.8-0.8,1.3c-1.1,1.2-1,1.2,0.4,0.1c1.3,0.3,2.5,0.7,3.8,1c-7.2-3.3-7-13.8-4.7-20.1c3.3-9,11.3-15.9,18.5-22
					c14.2-12,31.6-20.7,50.5-20.9c19.6-0.2,38.1,8,54.2,18.5c16.5,10.7,27.2,26.4,29.8,46c2.7,20.4-1.8,41.2-5,61.3
					c-0.6,4,1,8,5.2,9.2c3.6,1,8.6-1.2,9.2-5.2c5.4-34,13.7-72.6-8.3-102.8c-11.7-16-29.4-26.7-47.5-34.2
					c-16.3-6.8-33.8-9.5-51.3-6.6c-18.7,3.2-35.3,13.4-49.4,25.6c-13.5,11.7-25.4,27.2-21.6,46.1c1.6,7.8,7.7,18.1,16.5,18.8
					c9.9,0.8,15.3-10.8,17.9-18.8c5.6-17.1,1.4-36.9-5.9-52.8c-8.4-18.7-26.4-34.4-48.1-31.1c-19.4,2.9-32.3,24.3-23.3,42.4
					C90.2,848.1,103.2,840.5,98.8,831.9L98.8,831.9z"/>
			</g>
			<g id="XMLID_179_">
				<path id="XMLID_248_" fill="#00C2F3" d="M1182.8,210.7c14,18.6-0.9,42.6-6.1,61.6c-4.8,17.4-3,36.5,5.9,52.3
					c8.3,14.9,24.1,26.3,41.7,24.7c19.4-1.7,36-16.4,41.4-34.9c2.5-8.6,3.1-20-2.2-27.8c-5.8-8.5-18-9.6-26.5-4.7
					c-16.2,9.4-19.8,35.4-18.7,52.4c1.3,18.9,9.2,37,25.1,47.9c16.8,11.6,38.1,11.7,57.6,12.7c11,0.5,22.2,1.3,32.7,5
					c9.1,3.2,17.1,9.2,23.6,16.3c12.9,14.2,19.7,34.5,16,53.6c-1.8,9.4,12.6,13.5,14.5,4c6.3-32.6-10.1-67.8-39.6-83.6
					c-16-8.6-34.1-9.6-51.9-10.4c-16.3-0.7-35.4-1.1-48.3-12.7c-11.9-10.7-15.7-27.1-14.8-42.6c0.5-7.8,2.2-16.2,5.9-23.2
					c2.2-4.1,11-12.3,13-3.5c3.3,14.7-8.8,31.1-22.5,35.4c-14,4.4-26.9-3.4-33.8-15.5c-9.1-16-7.7-33.4-1.8-50.2
					c7.1-20.3,16.5-44.8,1.8-64.3c-2.5-3.3-6.4-4.9-10.3-2.7C1182.3,202.3,1180.3,207.5,1182.8,210.7L1182.8,210.7z"/>
			</g>
			<g id="XMLID_189_">
				<path id="XMLID_254_" fill="#00C2F3" d="M526.3-24c31.3,31.7,18,82.3,25.5,121.7c3.7,19.3,13.7,38,32.6,45.8
					c17.4,7.3,36,0.9,46.2-14.8c7.9-12.3,14.4-41.6-4.4-47.6c-18.5-5.9-35.5,13.3-41.6,28.4c-12.7,31.3,2.6,74.5,37,83.9
					c20.5,5.7,42.7-3.6,56.1-19.4c15.5-18.3,19.5-43.2,16.5-66.4c-0.5-4-3.1-7.5-7.5-7.5c-3.7,0-8,3.5-7.5,7.5
					c2.1,16.6,1,34.3-7.6,49.1c-7.2,12.5-20.7,22.7-35.5,23.4c-27.7,1.3-44.9-30-40.6-54.7c2-11.6,9.8-28.6,23.4-30.1
					c2.9-0.3,3.7,0.4,4.1,3.3c0.4,3.1,0.3,6.4-0.3,9.5c-1.1,6.1-3.6,12.2-7.9,16.7c-9.9,10.4-24.8,7.7-34.5-1.5
					c-12.2-11.6-14.7-29.9-15.8-45.8c-2.6-38.4,2.1-82.2-27.4-112.1C530.1-41.4,519.5-30.8,526.3-24L526.3-24z"/>
			</g>
			<g id="XMLID_230_">
				<path id="XMLID_231_" fill="#00C2F3" d="M-6.3,400.4c21.3,5.8,39.8,19.8,51.8,38.3c5.9,9.2,10.2,19.3,12.5,30.1
					c2.2,10.2,4,24.9-3.6,33.4c-2.8,3.1-7.6,5.6-11.8,3.9c-4.3-1.8-6.3-7.1-6.4-11.4c-0.3-11.7,8.6-24.9,17.5-31.8
					c22.2-17.4,44.8,8.8,53.2,28.3c12.8,29.6,7,62.9-1.7,92.8c-2.7,9.3,11.8,13.3,14.5,4c9.9-34,15.1-71,0.2-104.3
					c-6.4-14.2-16.6-27.4-30.1-35.6c-14.2-8.7-30.7-7.8-44,2.1c-12.3,9.2-22.3,24.2-24.2,39.5c-1.9,14.9,7.1,31.9,23.8,31.9
					c17,0.1,27.2-15.7,28.9-30.9c1.7-14.4-1.7-29.7-7.3-42.9C54.6,418,28.9,394.4-2.3,385.9C-11.7,383.4-15.6,397.9-6.3,400.4
					L-6.3,400.4z"/>
			</g>
			<g id="XMLID_122_">
				<path id="XMLID_238_" fill="#00C2F3" d="M1283.1,692.7c-2.6-29.1-12.3-58.4-36.5-76.6c-11-8.3-24.2-13.1-38-13.3
					c-8.1-0.1-16.2,1.3-24.2,2.5c-7.3,1.2-15.3,2.8-22.7,1.9c-5.3-0.7-8.3-3.6-6-9c2.6-6.1,9.6-9.7,14.6-13.5
					c10.6-8.1,19.2-18.7,24.6-30.9c4.9-11.1,10.4-27.1,5.3-39c-2.8-6.6-9.4-10.5-16.6-9.6c-7.5,1-13.1,6.2-18.6,10.8
					c-6,5.1-12.3,9.6-19,13.7c-4.8,2.9-9.7,6-15.4,6.5c-5.5,0.5-6.8-1.9-4.4-6.9c2.8-5.8,7.3-10.8,11.3-15.7
					c8.3-9.9,17.4-20.7,19.1-34c1-7.3-2.1-14.9-9.7-17c-7-2-14.7,0.8-21.4,3c-13.8,4.6-27.7,11.4-42.6,10.2
					c-12.7-1-20.1-9.2-24.4-20.5c-4.5-11.7-7.5-24-15.7-33.8c-8.2-9.9-20.2-15.5-31.3-21.4c-10.6-5.7-19.6-12.4-27.3-21.7
					c-7.2-8.7-12.9-18.8-18.2-28.8c-11-20.6-20.6-42.5-37.1-59.4c-4.1-4.2-8.7-8-13.5-11.4c-7.9-5.5-15.4,7.5-7.6,13
					c18.4,12.9,28.9,33.8,39,53.3c10.4,20.1,21,41.3,38.8,56c10,8.3,21.8,13.3,32.9,19.9c5,3,9.9,6.4,13.6,11
					c3.6,4.5,5.8,10,7.8,15.4c4,11.2,7.3,23.3,16,32.1c9.4,9.4,23.2,12.5,36.1,11.3c15.3-1.5,29-8.4,43.7-12.5
					c1.6-0.5,3.3-0.7,5-1.2c1-0.3,1.9,0.4,1.2-0.9c1,1.9-1.4,6.7-2.2,8.5c-2.5,5.5-6.2,10.3-9.9,14.9c-7.8,9.5-20.6,21.5-19.9,34.9
					c0.7,14.2,14.5,18.5,26.4,16c13.5-2.9,26-13,36.5-21.5c1.9-1.5,11-10.9,13.5-8.6c1.3,1.2,0.7,5.3,0.6,6.8
					c-0.3,3.4-1,6.8-1.9,10.1c-3.3,12.4-10.2,23.6-19.7,32.2c-10.1,9.1-23.7,15.2-25.3,30.4c-1.5,15.1,11.9,22.5,25.2,22.5
					c15.8,0,31.2-5.7,47-4.4c27.6,2.2,45.5,28.1,52,52.7c1.9,7.2,3.1,14.6,3.8,22C1269,702.2,1284,702.3,1283.1,692.7L1283.1,692.7z
					"/>
			</g>
			<g id="XMLID_131_">
				<path id="XMLID_247_" fill="#00C2F3" d="M912,249.9c50.3,38.6,125.6,27.9,169.8-15.3c12-11.8,20.5-26.2,22.4-43.1
					c0.4-4-3.8-7.5-7.5-7.5c-4.4,0-7.1,3.5-7.5,7.5c-1.8,16.2-13.4,29.5-25.6,39.2c-13.3,10.6-29.1,18.6-45.5,23.4
					c-33.7,9.8-70.4,4.4-98.5-17.2c-3.2-2.5-8.4-0.5-10.3,2.7C907,243.5,908.8,247.5,912,249.9L912,249.9z"/>
			</g>
			<g id="XMLID_139_">
				<path id="XMLID_276_" fill="#00C2F3" d="M966.8,309.3c21,10.9,45.3,6.8,67.3,1.6c20.1-4.8,39.7-13.1,52-30.5
					c5.6-7.9-7.4-15.4-13-7.6c-9.8,13.9-27.2,19.8-43,23.6c-17.7,4.2-38.8,8.7-55.8-0.1C965.8,291.9,958.2,304.9,966.8,309.3
					L966.8,309.3z"/>
			</g>
			<g id="XMLID_140_">
				<path id="XMLID_283_" fill="#FBED21" d="M350-46.9C382-9.1,414.1,28.8,446.2,66.7c8.1,9.6,16.2,19.2,24.4,28.8
					c6.6,7.8,13.4,15.5,19,24c10.5,15.8,15.8,34.1,6.4,51.7c-8.9,16.8-26.7,28.3-46,26.5c2.2,1.2,4.3,2.5,6.5,3.7
					c-1.8-3.5,0-7.7,2.4-10.5c3.9-4.6,10.5-6.1,16.2-6.9c11.9-1.7,25.9-3,37.6,0.4c9.6,2.7,20.1,11.5,16.9,22.6
					c-1.5,5.1-5.1,9.5-8.4,13.5c-5,6-10.2,11.9-15.3,17.9c-14.2,16.6-40.6,42-25.9,65.9c12.5,20.2,40.2,16,58.9,8.9
					c20.4-7.8,42.4-21.4,64.8-13.3c8.1,2.9,14.8,9,16,17.9c1.6,12.5-6.5,24.8-11.9,35.3c-10.3,20-16,48,7.5,61.2
					c10.2,5.7,21.9,7.3,31.2,14.8c8.8,7.1,15.2,16.6,21.1,26.1c35,56.3,68.4,113.8,102.6,170.6c5,8.3,17.9,0.7,13-7.6
					c-23.3-38.7-46.5-77.4-69.8-116.2c-11.2-18.6-22.1-37.4-33.6-55.8c-9.6-15.2-21-30.1-38-37.4c-7.5-3.2-16.6-4.8-22.8-10.3
					c-5.9-5.2-6.2-13.4-4.7-20.6c4-18.7,18-33.5,20.3-52.8c2-17.3-7.8-32-23.5-38.5c-15.5-6.5-32.4-4.8-47.9,0.7
					c-16.7,5.9-33.6,16.9-51.8,16.8c-6.1,0-13.3-1.3-17.4-6.3c-5.5-6.7-2.2-15.8,1.6-22.4c5-8.7,12-16,18.4-23.6
					c7-8.2,14.4-16.3,21-24.8c5.8-7.4,10.8-16.1,10.2-25.9c-0.6-8.7-5.2-16.8-11.7-22.4c-15.2-13.1-36.2-11.9-55-10.2
					c-9.6,0.9-19.4,2.7-27.1,8.9c-6.3,5.1-10.7,13.2-10.5,21.4c0.1,3.7,1.2,8.8,3.9,11.5c3.3,3.2,9.4,2.6,13.7,2.3
					c8.3-0.6,16.2-3,23.5-6.9c14.5-7.7,25.7-21.1,31.1-36.5c13.6-38.7-20.8-71.4-43.5-98.1c-29.1-34.3-58.2-68.7-87.2-103
					c-7.3-8.6-14.5-17.2-21.8-25.8C354.3-64.9,343.8-54.3,350-46.9L350-46.9z"/>
			</g>
			<g id="XMLID_165_">
				<path id="XMLID_292_" fill="#00C2F3" d="M551.6,262.5c21.2-12.7,45.3-20.2,70.1-21.1c19.1-0.7,42.3,3,54.7,19.3
					c8.3,11,8.7,30.3-2.1,39.9c-3.1,2.8-15.1,8.1-16.8,1.1c-0.8-3.4,3.4-7.1,5.7-9c4.2-3.6,9.5-6.1,14.7-8c8.9-3.2,18.8-3.2,23,6.6
					c3.6,8.3,2.5,18.2,0.3,26.7c-5.2,20.4-17.7,40.8-35.2,53c-1.9,1.3-3.6,1.8-5.6,2.7c-0.9,0.4-0.1-1.6,0.5,0.9
					c-0.3-1.2-0.3-2.3-0.3-3.5c0.3-4.6,2.5-9,5.6-12.4c6.5-6.8,16.5-7.8,24.5-3.1c8.5,5,10.6,15,10.5,24.2
					c-0.1,10.7-2.3,21.3-2.3,32.1c-0.1,13.2,3.9,25.2,11.5,35.9c7.5,10.5,16.8,19.6,24.9,29.7c17.3,21.6,31.1,46.2,40.7,72.1
					c3.3,9,17.9,5.1,14.5-4c-10.9-29-26.2-56-45.7-80.1c-9.1-11.2-20.4-21.2-26.9-34.2c-6.2-12.3-3.8-26.3-2.5-39.4
					c1.3-12.9,1.7-27-5.8-38.3c-7.6-11.4-21.2-17.5-34.7-15.5c-13.3,1.9-24.1,12.1-28,24.8c-1.9,6.1-2.4,13.7,1.1,19.3
					c3.8,6.3,11.6,7.7,18.2,5.5c12.5-4.1,23.2-16.8,30.9-27c8.3-11,14.6-23.8,18.2-37.1c3.2-11.9,4.4-25-0.2-36.7
					c-5.1-13-17.1-20.5-31.1-18.9c-13.6,1.6-29,9.2-37.2,20.5c-8.2,11.4-3.8,26.9,10.2,30.6c24.3,6.5,41-19.3,40.4-40.5
					c-0.7-26.3-22.1-43.7-46.3-49.4c-28.6-6.8-60-1.2-86.7,10.1c-7,3-13.8,6.4-20.3,10.3C535.8,254.4,543.3,267.4,551.6,262.5
					L551.6,262.5z"/>
			</g>
			<g id="XMLID_166_">
				<path id="XMLID_301_" fill="#00C2F3" d="M688.5,209.2c3.5-3.3,8.8,0.2,11.3,3.2c4.2,5.2,5.9,12.4,8.5,18.5
					c5.4,12.9,14.9,21.5,29,23.4c6.4,0.9,12.7,0.5,19-0.4c7-1,13.9-3.3,21-3.4c13.3-0.3,19.8,11.4,23.8,22.5c3.3,9,17.8,5.1,14.5-4
					c-5-13.5-12.8-27.7-27.5-32.2c-15.7-4.8-31.7,4.5-47.7,2.8c-6.4-0.7-12.1-3.4-15.6-8.9c-4.3-6.8-5.8-14.9-9.6-21.9
					c-7.1-13.2-24.7-22.3-37.3-10.3C670.9,205.3,681.5,215.9,688.5,209.2L688.5,209.2z"/>
			</g>
			<g id="XMLID_167_">
				<path id="XMLID_312_" fill="#00C2F3" d="M720.1,186.7c5.9,9,14,16.4,23.9,21c11.1,5.1,22.5,6,34.6,5.1c10.3-0.8,22.5-2.8,31.8,3
					c9,5.6,9.6,17.8,10.2,27.3c0.6,9.6,15.6,9.7,15,0c-0.7-11.2-1.8-23.1-8.8-32.3c-7.2-9.4-18.6-13.1-30-13.8
					c-12.5-0.7-25.2,3.1-37.5,0.2c-10.7-2.5-20-8.9-26.1-18.1C727.8,171.1,714.8,178.6,720.1,186.7L720.1,186.7z"/>
			</g>
			<g id="XMLID_237_">
				<path id="XMLID_321_" fill="#00C2F3" d="M624.9-23.8c12.3,11.4,17.4,28.7,15,45.1c-1.2,8.1-4.2,16.1-9,22.7
					c-3.6,4.9-9.7,11.4-16.5,10.5c-2.7-0.4-1.8-1.9-0.4-4.5c1.9-3.5,5.1-6.6,8.3-8.8c6.9-4.9,15.3-7.2,23.6-8.2
					c9.1-1.1,18.4-0.7,27.4,0.1c8.1,0.7,16.5,1.8,23.9,5.1c7.2,3.2,12.9,8.5,10.3,16.9c-1.8,5.9-9,18.6-16.9,14.2
					c-8.1-4.4,8.4-10.6,11.3-11.8c9.8-3.9,21.1-8.2,31.6-4.5c9.5,3.3,12.7,11.4,9.7,20.7c-3.6,11-10.6,20.4-13.6,31.7
					c-2.9,10.8-3.6,22.7-1.2,33.7c1.9,8.7,7.7,18.6,17,20.7c12.6,2.8,20.9-9.1,27.6-17.7c5.4-6.9,12.7-16.6,22.8-14.9
					c8.8,1.5,4.8,11.3,2.4,16.6c-4.2,9.5-8.5,18.4-6.6,29c0.6,3.3,4.2,5.3,7.2,5.5c10.2,0.5,17.3-5.7,25.9-10.1c2.3-1.2,6.4-3,9-1.9
					c3.1,1.2,3.4,7.1,4.3,10c5.4,16.8,17.5,31.1,33.2,39.3c8.6,4.5,16.1-8.5,7.6-13c-7.9-4.1-14.8-9.8-19.7-17.2
					c-2.5-3.6-4.6-7.5-6.1-11.7c-1.6-4.6-2.2-9.6-4.7-13.9c-4.9-8.2-14.7-10-23.4-7.6c-8.9,2.4-16.5,11.7-26,11.2
					c2.4,1.8,4.8,3.7,7.2,5.5c-1.6-9.3,6.8-19.3,9.1-27.9c3-11.3-1.3-23.2-12.8-27.4c-10.8-3.9-22.8,0.4-31,7.8
					c-4.7,4.2-8.3,9.3-12.1,14.2c-2.1,2.6-7.5,11.1-11.4,9.3c-3.9-1.8-5.1-8.8-5.6-12.5c-1-7.6-0.3-15.5,1.7-22.9
					c3.6-13.2,13-24.3,15.1-37.9c2-13.4-5-25.5-17.2-31.1c-12.8-5.9-26.8-3.7-39.6,1c-11.2,4.2-27.5,9.5-28.9,23.6
					c-1.2,12.8,11.9,21.8,23.7,19.8c12.5-2.1,21.4-14.3,24.8-25.7c3.7-12.3-1.4-23.8-11.7-30.8c-9-6.1-20.2-8.2-30.8-9.5
					c-11.6-1.4-23.4-2.1-35-0.6c-11.4,1.4-22.6,4.6-31.8,11.6c-9,6.9-19.7,19.9-12.9,31.7c6.4,11.1,22.1,9.1,31.4,3.1
					c10.1-6.5,17-18,20.8-29.2c8.1-23.9,2.2-52.5-16.4-69.8C628.4-41,617.8-30.4,624.9-23.8L624.9-23.8z"/>
			</g>
			<g id="XMLID_245_">
				<path id="XMLID_332_" fill="#FBED21" d="M738.6,1.9c17.2-4.4,30.9,11.5,35,26.5c2.5,9.2,2.6,18.7,2.3,28.2
					c-0.2,7.2,0.1,14.7,2.7,21.4c2.9,7.3,8.6,12.8,16.7,13.4c4.5,0.4,8.6-1,12.6-2.9c3.3-1.5,6.8-4.3,10.6-4.5
					c9-0.4,14.2,11.8,17.9,18.1c5.1,8.7,11.8,15.2,19.7,21.4c19.8,15.4,39.8,30.5,59.7,45.8c3.2,2.5,8.4,0.5,10.3-2.7
					c2.3-3.8,0.5-7.8-2.7-10.3c-18.4-14.1-36.9-28.3-55.3-42.4c-8.2-6.3-14.8-12.6-19.9-21.5c-4.8-8.3-10.1-16.8-19.1-21
					c-9.6-4.4-17.8-1.4-26.6,3.1c-2.1,1.1-5.2,2.9-7.5,1.4c-2.3-1.4-3-5.4-3.4-7.7c-1.5-8-0.1-16.4-0.5-24.5
					c-0.5-10-2.3-20-6.4-29.2c-8.4-18.9-28.9-32.7-49.9-27.3C725.3-10.1,729.2,4.3,738.6,1.9L738.6,1.9z"/>
			</g>
			<g id="XMLID_275_">
				<path id="XMLID_341_" fill="#00C2F3" d="M781.9-20.6c8.8,0.7,17,5.8,22,13c2.5,3.5,4.3,7.6,5,11.9c0.9,6-0.3,12.1,0.2,18.2
					c0.9,10.8,6.6,20.3,17.7,22.8c13.1,3,26.9,4.2,40.2,6.3c4,0.6,8-1,9.2-5.2c1-3.5-1.2-8.6-5.2-9.2c-6.8-1.1-13.6-2.1-20.4-3.2
					c-6.5-1-13.4-1.5-19.8-3.1c-10.8-2.7-6-19.5-7-27.5c-2.7-21.1-20.9-37.3-41.9-38.9C772.3-36.3,772.3-21.3,781.9-20.6L781.9-20.6
					z"/>
			</g>
			<g id="XMLID_282_">
				<path id="XMLID_350_" fill="#00C2F3" d="M585.6,322.1c-2.9,19.6-15.4,35.7-22,54.1c-6,16.5-6.4,35.6,5,49.9
					c5.5,6.8,13,10.8,21.6,12.3c9.4,1.6,17.4,2.4,25.1,8.6c14.4,11.7,26.9,26.9,38.1,41.5c13.1,17,24.5,35.3,34.3,54.4
					c4.4,8.6,17.4,1,13-7.6c-16.8-32.8-38.7-63.1-64.6-89.4c-6.1-6.1-12.5-12.6-20.2-16.6c-8.3-4.3-17.1-4-26-6.4
					c-16.2-4.4-17.4-24.5-13.5-37.8c6-20.5,20.6-37.6,23.7-59.1c0.6-4-1-8-5.2-9.2C591.3,315.8,586.2,318.1,585.6,322.1L585.6,322.1
					z"/>
			</g>
			<g id="XMLID_291_">
				<path id="XMLID_361_" fill="#FBED21" d="M700.6,578.8c11,12.4,19.8,26.8,25.8,42.3c1.5,3.8,5,6.4,9.2,5.2c3.6-1,6.7-5.4,5.2-9.2
					c-7-18.1-16.8-34.4-29.6-48.9C704.8,561,694.2,571.6,700.6,578.8L700.6,578.8z"/>
			</g>
			<g id="XMLID_300_">
				<path id="XMLID_370_" fill="#00C2F3" d="M535.8,350.6c-14,26.8-18.4,63.3,0.2,89.3c9.3,13,22.3,19.6,37.7,22.8
					c13.4,2.7,31.1,4,38,17.8c4.3,8.6,17.2,1.1,13-7.6c-6.4-12.8-20.2-19.1-33.5-22.1c-13.9-3.1-28.8-3.9-39.1-14.8
					c-19.5-20.5-15.3-54.8-3.3-77.8C553.2,349.6,540.2,342,535.8,350.6L535.8,350.6z"/>
			</g>
			<g id="XMLID_311_">
				<path id="XMLID_381_" fill="#00C2F3" d="M587.7,507.5c-3.1-1.1-1.9-3.7-2.6,0.8c-0.3,1.7-0.8,3.4-1.3,5
					c-1.1,3.8-2.4,7.5-2.9,11.4c-0.9,7,0.5,14.5,5.8,19.5c5.8,5.4,14,5.5,21.4,4.1c6.6-1.3,13.6-5.1,20.5-3.6
					c5.1,1.2,9.5,5.2,11.8,9.8c2.9,5.6,2,10.3,0,16c-2.2,6.3-4,13.3-0.4,19.5c3.9,6.6,11.1,7.3,18,7.6c14.5,0.7,23.4,15.7,30.1,26.8
					c5,8.3,18,0.7,13-7.6c-6.9-11.4-15.1-23.9-27.4-30.2c-6.7-3.4-13-3.1-20.2-4.3c-1.3-0.2-0.6,0.1-0.6-0.3
					c-0.2-1.1,0.3-2.4,0.6-3.4c1-3.4,2.5-6.7,3.3-10.2c2.9-13.3-4.1-27.1-15.3-34.3c-6-3.9-13.1-5.3-20.2-4.4
					c-3.9,0.5-7.5,1.5-11.3,2.6c-3.3,0.9-8,2.8-11.4,1.7c-6.7-2.2-1-14.3,0.2-18.4c2.4-8.6,2.7-18.9-7.1-22.5
					C582.6,489.7,578.7,504.2,587.7,507.5L587.7,507.5z"/>
			</g>
			<g id="XMLID_320_">
				<path id="XMLID_390_" fill="#00C2F3" d="M424.6,537.3c12.6,14.1,16.8,34.5,10.7,52.4c-5.8,16.9-20.3,29.4-37.4,34
					c-15.7,4.2-33.7,4.5-47.4,14.2c-15.3,10.9-18.6,30.4-9.5,46.5c10.4,18.3,31.3,24.7,51.3,22.1c17.2-2.2,46.1-10.5,46.6-32.1
					c0.3-10.7-7.3-18.5-17.8-19.4c-9.2-0.8-19.3,2.7-27,7.4c-15.7,9.6-27.4,28.1-25.2,46.9c1.4,11.7,8.5,21,19.8,24.7
					c10.1,3.3,21.4,1.4,31.4-1.2c23.1-6,44.3-18.5,61.1-35.5c2.2-2.3,3-6.3,1.2-9.1c-5.5-8.4-14.9-11.7-24.6-10.3
					c-10.1,1.5-18.1,8.3-22.6,17.4c-8.6,17.7-9.2,48.6,9.7,60.1c19.5,11.9,42.1-2.9,53.9-18.4c7.2-9.5,27.8-49.4,43-29.7
					c12.1,15.6,3.5,40.4-9.3,52.6c-3,2.8-6.3,5.7-10.4,6.7c-3.1,0.8-6,1.4-4.4-2.8c2.2-5.8,9.3-7.7,14.9-7.4
					c5.6,0.3,11.7,3,13.8,8.5c3.8,10-3.1,22-6.4,31.2c-3.8,10.4-5.4,21.1-2.9,32c2.3,10.1,7.9,19.2,14.5,27
					c15.4,18.1,38.1,30.6,60.4,37.9c22.8,7.4,49.7,9,69.7-6.3c3.2-2.5,4.9-6.4,2.7-10.3c-1.8-3.2-7-5.1-10.3-2.7
					c-18,13.7-41,10.8-61.2,3.7c-19.6-6.9-40.2-18.6-52.8-35.6c-5.9-7.9-9.8-17.1-9.4-27.1c0.5-11.7,7.3-22.1,10-33.3
					c2.5-10.1,2-21.2-4.8-29.5c-5.5-6.7-13.9-10.1-22.4-10.7c-8.1-0.6-16.6,1.8-22.8,7.1c-7.7,6.5-12.5,19.9-4.7,28.3
					c6.9,7.3,18.3,5.9,26.4,1.7c9.5-5,17.5-14.4,22.4-23.8c9.4-18.1,11.6-44.5-4.3-59.9c-8.2-7.9-19.5-9.6-29.8-4.9
					c-10.8,4.9-18.1,15-24.5,24.5c-6.8,10.1-13.2,21.6-24.5,27.2c-8.6,4.3-20.2,4.7-24.7-5.5c-4.3-9.8-3.2-25.2,1.7-34.5
					c2.4-4.5,5.9-8,11.1-8.8c3.4-0.5,7.5,0,9.5,3.1c0.4-3,0.8-6.1,1.2-9.1c-12.2,12.4-27,22.2-43.5,28.2
					c-10.6,3.8-35.1,12.5-41.9-1.8c-6.1-13,4.2-29.4,14.8-36.6c5.6-3.8,13.8-7.6,20.8-6.5c7.7,1.2,0.4,10.4-2.7,12.4
					c-13.6,8.8-34.9,13.4-50.2,7c-11.2-4.7-21.2-19.1-15.5-31.2c5.5-11.8,21.3-14.1,32.6-16.2c15.4-3,29.8-6.4,42.4-16.3
					c30.8-24.3,33.7-69.8,7.9-98.8C428.7,519.4,418.2,530.1,424.6,537.3L424.6,537.3z"/>
			</g>
			<g id="XMLID_329_">
				<path id="XMLID_399_" fill="#00C2F3" d="M582,810.7c9.3,28.4,34.8,48.6,64.4,51.6c4,0.4,7.5-3.7,7.5-7.5c0-4.4-3.5-7.1-7.5-7.5
					c-22.6-2.3-42.9-19.1-49.9-40.6C593.4,797.6,579,801.5,582,810.7L582,810.7z"/>
			</g>
			<g id="XMLID_340_">
				<path id="XMLID_410_" fill="#00C2F3" d="M476.7,573.4c0.9,8.8-0.1,17.7-3.8,25.8c-3.7,8.3-10,15-13,23.7
					c-2.8,8.1-1,17.2,5.8,22.7c7.1,5.8,16.6,6.1,25,3.7c9.6-2.8,18.9-7.6,28.1-11.4c7.5-3.1,18.5-10,26.9-8c2.5,0.6,5.8,2.7,5.7,5.6
					c-0.2,3.2-3.2,6.5-3.9,9.7c-2.3,9.8,5.3,16.6,14.5,17.6c4.5,0.5,9-0.3,13.5-1c3.1-0.6,7.5-1.8,10.5-0.1
					c3.7,2.2,6.3,7.9,8.6,11.3c3.4,5,6.9,9.9,10.3,14.9c5.5,7.9,18.5,0.4,13-7.6c-5.6-8.1-11.1-16.5-17-24.5
					c-5.1-6.8-11.9-10.4-20.4-9.8c-3.7,0.3-7.4,1.1-11.1,1.7c-1.6,0.2-3.3,0.5-5,0.4c-0.4,0-2.1-0.3-2-0.3c-0.3-0.1-0.6-0.2-0.9-0.3
					c0.3,2,0.5,2.3,0.7,1.1c0.6-0.4,1.4-3.2,1.7-4c0.8-1.8,1.7-3.7,2.1-5.7c0.9-4.2,0.3-8.6-1.8-12.4c-4.2-7.7-12.8-11.9-21.4-11.8
					c-9.6,0.1-18.5,4.8-27.1,8.4c-9.3,3.9-18.5,8.5-28.1,11.5c-4.8,1.5-15.3,2.5-13.9-5.6c0.8-4.5,3.9-8.6,6.3-12.3
					c2.8-4.3,5.3-8.5,7.2-13.3c3.9-9.5,5.4-19.8,4.4-30.1c-0.4-4-3.2-7.5-7.5-7.5C480.5,565.9,476.3,569.3,476.7,573.4L476.7,573.4z
					"/>
			</g>
			<g id="XMLID_349_">
				<path id="XMLID_419_" fill="#00C2F3" d="M158.3,798.9c36.3-15.1,77.9-21.9,116.2-10.3c34.8,10.5,61.7,37.2,74.7,70.9
					c6.5,16.7,9.8,34.5,9.7,52.4c-0.1,8.5-0.3,17.9-3.3,25.9c-1.3,3.5-3.4,6.9-6.8,8.6c-2.4,1.2-6.4,1.8-8.5-0.4
					c-5-5.4,0.2-17.2,3.6-22c4.5-6.4,11.8-11.2,19.6-12c17.8-1.8,33.1,13.1,40.9,27.6c16.7,31.1,8.2,74.9-20,96.6
					c-3.2,2.5-4.9,6.4-2.7,10.3c1.8,3.2,7.1,5.1,10.3,2.7c31.9-24.5,44.6-69.9,29.8-107.5C414,922,398,903,376.5,898.1
					c-22.2-5.1-44.6,8.3-51.2,30.1c-3.1,10.2-2.6,23.6,6.7,30.4c8.7,6.3,21.2,4.2,29-2.6c8.8-7.7,11.1-20,12.2-31.1
					c1.1-10.7,0.9-21.5-0.4-32.1c-5.2-42.5-27.5-83.5-64.9-105.8c-46.4-27.7-105.4-22.6-153.6-2.6c-3.7,1.5-6.4,5-5.2,9.2
					C150.1,797.2,154.5,800.5,158.3,798.9L158.3,798.9z"/>
			</g>
			<g id="XMLID_360_">
				<path id="XMLID_430_" fill="#00C2F3" d="M193,872.8c12.9-3.2,28.6-7.1,39.1,3.6c7.9,8,10.4,20.3,10.1,31.2
					c-0.4,15.7-5.5,30.9-7.4,46.4c-0.9,7.6-1.2,15.3,2.7,22.2c3.3,6,9,10.3,14.6,14.2c15,10.2,30.9,19.1,47.3,26.8
					c8.7,4.1,16.3-8.8,7.6-13c-15.1-7.1-29.6-15.2-43.5-24.3c-5.1-3.4-12.3-7.3-13.9-13.7c-1.8-7.3,0.9-16.6,2.4-23.8
					c5.1-26,11.8-59.7-12.1-79.2c-14.8-12.1-33.6-9.1-50.8-4.8C179.6,860.7,183.6,875.1,193,872.8L193,872.8z"/>
			</g>
			<g id="XMLID_369_">
				<path id="XMLID_439_" fill="#00C2F3" d="M170.2,910.9c4.4,4.8,10.3,5,16.5,5.2c5.2,0.1,9.3,3.1,11.5,7.9
					c6.2,13.4-4.3,27.7-4.1,41.3c0.2,14.1,8.1,26.4,16.6,37.1c8.6,10.9,19,20.1,30.4,28c7.9,5.5,15.5-7.5,7.6-13
					c-10.9-7.6-20.8-16.9-28.7-27.5c-3.8-5.1-7.5-10.7-9.4-16.8c-2.2-6.9-1.2-13,0.8-19.8c3.7-12.9,6.3-27.5-1.6-39.4
					c-3.4-5.2-8.3-9.4-14.2-11.4c-2.6-0.9-5.4-1.2-8.2-1.3c-1.8-0.1-5.2,0.6-6.6-0.8C174.2,893.3,163.6,903.9,170.2,910.9
					L170.2,910.9z"/>
			</g>
			<g id="XMLID_378_">
				<path id="XMLID_448_" fill="#00C2F3" d="M-21.6,515.7c-0.6,14.1,7.3,27.4,19.1,34.8c14.2,8.9,28.8,5,43.6,0
					c6.2-2.1,12.8-4.2,19.4-2.5c6.6,1.6,8.7,7.2,7.3,13.4c-1.6,7.2-5.8,13.4-9.1,19.8c-3.1,6-5.3,12.4-6,19.1
					c-1.5,13.4,6,25.9,20.2,27.1c6.5,0.5,12.8-1.5,19-2.9c4.6-1,10.6-2,12.9,3.2c2.1,4.8,1,11.1-0.1,16c-1.4,6.4-3.2,12.6-3.4,19.3
					c-0.5,14.2,7.3,26.5,22.4,27.2c6.6,0.3,15.5-3.3,21,1.5c3.1,2.7,5.4,6.4,7.9,9.6c2.8,3.5,5.8,6.9,8.8,10.2
					c12.4,13.5,26.8,25.2,42.3,35c8.2,5.2,15.7-7.8,7.6-13c-13.3-8.4-25.5-18.2-36.4-29.6c-5.2-5.4-10-11.1-14.6-17
					c-4.7-6-9.9-11-17.7-12.1c-6.6-1-13.3,1.4-19.8,0.4c-5.3-0.8-6.5-5.5-6.6-10.2c-0.2-12.7,6.2-24.2,4-37.1
					c-2.4-14.3-14.9-20.6-28.4-18.5c-7.4,1.2-23.3,8.4-24.4-4.1c-1.1-13,9.7-24.3,13.7-36c4.9-14.3,0.4-29.8-14.7-35.1
					c-7.2-2.5-15.4-2-22.7-0.1c-8.4,2.2-16.5,6.7-25.2,7.2C4.6,542-7.1,529.3-6.6,515.7C-6.2,506.1-21.2,506.1-21.6,515.7
					L-21.6,515.7z"/>
			</g>
			<g id="XMLID_389_">
				<path id="XMLID_459_" fill="#FBED21" d="M83.5,425.9c15.8,2.9,32.2,5.8,46.6,13.4c13,6.9,22.8,17.7,30.1,30.4
					c7.3,12.6,12.1,26.5,15.8,40.6c4.6,17.3,7.4,35.1,6.3,53.1c-0.9,15-5.1,29.9-13,42.8c-3.7,6-8.3,12-13.8,16.4
					c-0.9,0.7-3.1,2-3,2c0.9,0.5,0.2,0,0.2,0c-1.1-1.6-0.8-4.8-0.6-6.5c1.8-12.2,12.6-25.7,24.1-30.1c13.1-5,27.2-0.1,32.5,13.3
					c5,12.7,3.8,27.8-0.9,40.3c-2.4,6.5-6.2,12.6-11.1,17.5c-2,2.1-4.5,4.7-7.4,5.5c-1.2,0.3-1.6,0.3-2.7-0.2c-0.1-0.1-1.1-1-1-0.9
					c-0.1-0.2-0.1,0.4-0.1-0.4c-0.1,2,0.3-1.2,0-0.2c0.2-0.7,0.5-1.7,1.4-3.1c1.9-3.1,4.9-6,8.1-8.4c3.5-2.6,7.4-5,11.5-6.6
					c1.9-0.8,4-1.4,6.1-1.8c-0.5,0.1,4.2,0.2,2.9-0.1c11.1,2.2,20.3,12.5,26.4,21.4c6.9,10.1,12.1,21.5,14.6,33.5
					c1.3,6.2,2.4,15.1-2.8,19.8c-4.1,3.8-8.3,2.5-10.1-2.6c-0.9-2.7-1.1-5.7-0.9-8.5c0.3-3.7,2.9-4.7,6.1-6.2
					c6.5-3.1,13.8-4.1,21-3.7c15.1,0.9,26.9,8.9,35.9,20.6c4.5,5.8,8.7,11.8,13.7,17.2c5.6,6.1,11.8,11.6,17.9,17.3
					c25.1,23.4,46.9,51.4,66.4,79.5c4.9,7,9.5,14.2,14.1,21.4c5.1,8.2,18.1,0.7,13-7.6c-11.6-18.7-24.5-36.5-38.1-53.8
					c-13.3-16.8-27.1-33.7-42.7-48.4c-7.7-7.2-15.7-14.2-22.6-22.2c-5.7-6.6-10.3-14.1-16.3-20.5c-13.6-14.4-34-20.9-53.5-18
					c-8.9,1.3-20.1,4.8-25.8,12.2c-5.2,6.7-4.8,17.5-2.3,25.2c2.7,8.2,9.5,15.1,18.6,15.3c9.3,0.2,17.9-5.9,21.6-14.2
					c7.4-16.2,0-36.5-7.4-51.5c-7-14.3-17.5-28.5-31.7-36.4c-5.6-3.1-11.7-5.5-18.2-4.9c-6.3,0.6-12.3,2.9-17.9,5.9
					c-9.7,5.3-21.4,14.4-23.5,25.9c-1.1,5.8,0.8,11.4,5.2,15.3c7.5,6.7,17.4,5.3,25.1-0.4c15-11.1,23.1-29.3,25.1-47.5
					c1.9-17.8-2.1-38.9-17.6-49.8c-15.8-11.1-37.2-7.1-51.3,4.6c-11.9,9.8-24,29.4-19.4,45.4c2.5,8.6,10.5,14,19.4,11.2
					c9-2.8,16.3-12.5,21.6-19.8c24.9-34.6,21.2-80.5,9.8-119.3c-5.3-18-12.7-35.7-24.3-50.5c-12.2-15.6-28.6-25.5-47.5-31.2
					c-9.6-2.9-19.5-4.7-29.4-6.6C78.1,409.7,74,424.1,83.5,425.9L83.5,425.9z"/>
			</g>
			<g id="XMLID_398_">
				<path id="XMLID_468_" fill="#00C2F3" d="M208.3,486.4c10.8,13.1,18.3,28.7,22.3,45.3c1.9,8,2.8,16.2,3,24.4
					c0.2,8.7-0.1,17.5,2,25.9c1.9,7.9,6.2,14.4,11.2,20.7c4.3,5.3,9.4,10.5,11.8,17c1.6,4.3,1.6,8.9,3.1,13.2
					c1.2,3.4,3.1,6.4,5.5,9.2c4,4.5,11.5,8,13.7,13.8c3.4,8.9,17.9,5.1,14.5-4c-2.8-7.4-8-11.7-13.8-16.8c-2.6-2.3-4.8-4.5-6-7.8
					c-1.4-4.2-1.5-8.7-3.1-12.9c-5.6-14.7-20.7-23.6-23.2-39.7c-1.4-8.9-0.4-18.1-1.2-27c-0.7-8.4-2.1-16.7-4.4-24.8
					c-4.9-17.3-13.5-33.2-24.9-47.1c-2.6-3.2-7.9-2.6-10.6,0C205.2,478.9,205.8,483.3,208.3,486.4L208.3,486.4z"/>
			</g>
			<g id="XMLID_409_">
				<path id="XMLID_479_" fill="#FBED21" d="M307,679.3c0.3,0.3,0.7,0.7,1,1c1.4,1.4,3.4,2.2,5.3,2.2c1,0,2-0.2,2.9-0.6
					c0.9-0.3,1.7-0.8,2.4-1.6c1.3-1.4,2.3-3.3,2.2-5.3c-0.1-2-0.8-3.9-2.2-5.3c-0.3-0.3-0.7-0.7-1-1c-1.4-1.4-3.4-2.2-5.3-2.2
					c-1,0-2,0.2-2.9,0.6c-0.9,0.3-1.7,0.8-2.4,1.6c-1.3,1.4-2.3,3.3-2.2,5.3C304.9,676,305.6,677.9,307,679.3L307,679.3z"/>
			</g>
			<g id="XMLID_418_">
				<path id="XMLID_488_" fill="#00C2F3" d="M471.3,542.6c9.7,0,9.7-15,0-15C461.6,527.6,461.6,542.6,471.3,542.6L471.3,542.6z"/>
			</g>
			<g id="XMLID_427_">
				<path id="XMLID_497_" fill="#FBED21" d="M445.8,508.1c9.7,0,9.7-15,0-15C436.1,493.1,436.1,508.1,445.8,508.1L445.8,508.1z"/>
			</g>
			<g id="XMLID_438_">
				<path id="XMLID_508_" fill="#FBED21" d="M517.7,269.9c-0.4,0-0.9,0.1-1.2,0.1c-1,0.1-1.9,0.4-2.9,0.9c-0.3,0.2-0.6,0.4-0.9,0.7
					c-1,0.8-1.2,0.9-2,2.2c-0.4,0.6-0.7,1.3-0.9,2c-0.1,0.5-0.3,1.5-0.3,2.1c0,0.1,0,0.1,0,0.2c0,0.5,0.2,1.6,0.3,2.1
					c0,0.1,0,0.1,0,0.1c0.3,1.2,1.1,2.6,2,3.5c0.5,0.5,1,0.9,1.6,1.2c0.4,0.2,1.5,0.7,1.9,0.8c0.4,0.1,1.7,0.3,2.1,0.3
					c0.6,0,1.6-0.2,2.1-0.3c1-0.2,1.8-0.7,2.6-1.3c0.8-0.5,1.5-1.2,1.9-2.1c0.5-0.9,0.8-1.8,0.9-2.8c0.2-1,0.2-2-0.1-3
					c-0.6-1.8-1.7-3.6-3.4-4.5c-0.6-0.3-1.2-0.5-1.8-0.8c-1.3-0.4-2.7-0.4-4,0c0,0-0.1,0-0.1,0c0.7-0.1,1.3-0.2,2-0.3c0,0,0,0-0.1,0
					c0.7,0.1,1.3,0.2,2,0.3c0,0-0.1,0-0.1,0c0.6,0.3,1.2,0.5,1.8,0.8c0,0,0,0-0.1,0c0.5,0.4,1,0.8,1.5,1.2c0,0-0.1-0.1-0.1-0.1
					c0.4,0.5,0.8,1,1.2,1.5c0,0-0.1-0.1-0.1-0.1c0.3,0.6,0.5,1.2,0.8,1.8c0-0.1,0-0.1-0.1-0.2c0.1,0.7,0.2,1.3,0.3,2
					c0-0.1,0-0.2,0-0.2c-0.1,0.7-0.2,1.3-0.3,2c0-0.1,0-0.1,0.1-0.2c-0.3,0.6-0.5,1.2-0.8,1.8c0,0,0-0.1,0.1-0.1
					c-0.4,0.5-0.8,1-1.2,1.5c0,0,0,0,0,0c-0.5,0.4-1,0.8-1.5,1.2c0,0,0.1-0.1,0.1-0.1c-0.6,0.3-1.2,0.5-1.8,0.8c0,0,0,0,0.1,0
					c-0.7,0.1-1.3,0.2-2,0.3c0.1,0,0.1,0,0.2,0c1,0,2-0.2,2.9-0.6c0.9-0.3,1.7-0.8,2.4-1.6c0.7-0.7,1.2-1.5,1.6-2.4
					c0.5-0.9,0.7-1.9,0.6-2.9c-0.1-1.9-0.7-4-2.2-5.3c-0.5-0.4-1-0.8-1.5-1.2C520.3,270.2,519.1,269.9,517.7,269.9L517.7,269.9z"/>
			</g>
			<g id="XMLID_447_">
				<path id="XMLID_517_" fill="#00C2F3" d="M493.3-20.9c-1.3-11.1-13.6-12.5-21.1-5.9c-7.4,6.4-11.4,16.5-11.9,26.1
					c-0.4,9.7,3.5,19.1,10.1,26.2c7.7,8.1,17.5,11,28.3,11.8c4.3,0.3,8.6,0.5,11.9,3.6c2.7,2.5,4.3,6.1,4.3,9.7
					c0,4.2-2.4,7.3-4.8,10.5c-3.6,4.7-7.3,9.1-8.8,15c-1.2,5.1-0.9,10.5,2,15c2.9,4.6,8,6.9,11.9,10.5c7.3,6.9,12.2,15.9,16.6,24.8
					c12.5,25.3,24.4,51,36.5,76.4c4.2,8.7,17.1,1.1,13-7.6c-9.4-19.7-18.8-39.5-28.3-59.2c-7.9-16.5-15.1-35.2-29.6-47.1
					c-2.3-1.9-7.3-4-7.8-7.1c-0.7-4,3.9-8.6,6.2-11.4c5.5-7,9.1-14.3,7.8-23.4c-1.1-7.8-5.3-15.1-11.8-19.6
					c-8.3-5.8-17.9-3.5-27.1-6.4c-7.9-2.4-14.2-9.7-15.3-17.9c-0.5-3.8,0.2-8,1.7-11.5c0.9-2.1,2.2-4.1,3.6-5.8
					c2.7-3.2,0.7,0.3-1.5-3.8c-0.3-1.3-0.7-2.5-1-3.8c0,0.3,0.1,0.6,0.1,0.9c0.5,4,3.1,7.5,7.5,7.5
					C489.5-13.4,493.8-16.9,493.3-20.9L493.3-20.9z"/>
			</g>
			<g id="XMLID_458_">
				<path id="XMLID_528_" fill="#FBED21" d="M1134.5,1003.8c-18.9,1.5-38.7-0.7-56.3-8.2c-6.5-2.8-13.2-6.6-17.4-12.5
					c-4.6-6.3-4.8-13.9-2.5-21.1c5-16.3,19.7-30.5,33.3-40c11.6-8.1,30.6-19.1,43.7-7.7c5.1,4.4,5.5,11.1,2.8,17
					c-3.3,7.2-9.9,11.8-17.1,14.5c-14.3,5.3-31.8,7.6-47,6.8c-13.7-0.7-27.5-7.1-29.6-22.1c-2.2-15.8,7.6-30,19.9-38.8
					c7-5,14.7-8.8,22.5-12.2c2.8-1.2,5.8-2.6,8.9-2.7c0.7,0,1,0.4,0.7-0.4c0.3,0.7-1.2,2.2-1.6,2.7c-5.1,5.9-15.6,8-23,8.3
					c-8.1,0.4-16.6-1.4-22.9-6.8c-9.8-8.4-13.7-24.3-1.7-32.7c2.4-1.6,5.2-2.8,8.1-3.1c1.2-0.1,2.4,0.2,3.6,0.1
					c1.8-0.1,2.5,2.1,1.1-1.4c-1.2-2.9-0.7-1.6-2-0.2c-2.6,2.7-6.8,4-10.2,5.3c-4.9,1.9-9.9,3.6-15.1,4.4
					c-13.1,2.1-33.1-4.4-29.9-21.2c1.6-8.5,7.5-15.6,12.3-22.6c4.8-6.9,9.3-14.4,10.5-22.8c2.2-14.9-6.8-31.7-23.4-31.4
					c-7.9,0.2-14.7,4.1-22.2,6.1c-6.3,1.6-10.6-1.1-12.5-7.3c-4.6-15.5,12.5-33.2,3-47.7c-5.4-8.4-14.5-5-22.5-7
					c-7.2-1.9-13.3-6.7-16.5-13.5c-4-8.4-5.7-17.6-10-26c-4.5-9-10.1-17.5-15.3-26c-10.8-17.7-21.7-35.4-32.5-53.2
					c-5.3-8.7-10.7-17.4-16-26.2c-5-8.2-18-0.7-13,7.6c13.4,21.9,26.9,43.9,40.3,65.8c6.7,11,13.7,21.9,20.1,33.1
					c2.7,4.7,5.3,9.6,7.1,14.7c1.9,5.4,3.3,11,5.6,16.2c4.4,9.7,12.6,17.1,22.6,20.8c4.4,1.6,9,2.4,13.7,2.4c1.2,0,2.5-0.1,3.7-0.1
					c1.3,0,0.1-1.1,0.2,0c0.2,2.1-0.3,4.1-0.8,6.1c-2.6,10.9-6.9,21.5-5.1,32.9c1.4,8.7,6.4,17.3,14.7,21c9.9,4.3,19.1,0,28.6-3.2
					c3-1,6.8-2.4,9.9-1.1c3.2,1.3,4.8,5.1,5.4,8.3c1.7,9.5-5.4,18.3-10.5,25.6c-6.3,8.9-12.2,18.4-12.8,29.6
					c-1.1,21.5,20.5,35,39.9,34.5c11.8-0.3,24.1-4.4,34.6-9.8c8.3-4.3,16.7-15.2,9.3-24.1c-5.9-7-18.6-5.7-26.1-2.6
					c-8.5,3.5-15.4,10.4-18.6,19c-7.1,18.8,5.9,39.9,23.2,47.3c10.6,4.5,22.2,4.9,33.4,2.4c9.8-2.2,20.7-6.7,25.9-16
					c5.1-9,1-20.3-9.5-22.6c-9.6-2.1-20.1,3.9-28.4,8.1c-18.2,9.1-35.5,23.1-40.5,43.8c-4.7,19.3,2.4,40.1,21.3,48.6
					c17.8,8.1,38.6,4.9,57.2,1.6c19.6-3.6,41.6-13.1,45.1-35.2c3.5-21.7-17-36.5-37.2-34.1c-21.7,2.5-42.1,18.6-56,34.6
					c-13.7,15.6-25.9,38-14.9,58.5c9.9,18.4,34.1,25.9,53.2,29.2c11.6,2,23.4,2.6,35.2,1.7C1144.1,1018,1144.2,1003,1134.5,1003.8
					L1134.5,1003.8z"/>
			</g>
			<g id="XMLID_467_">
				<path id="XMLID_537_" fill="#00C2F3" d="M1018.8,1016.7c-10.4-7.9-14.5-21.8-15.1-34.4c-0.7-16.5,4.3-32.4,8.4-48.1
					c3.5-13.5,11.6-35.5-5.9-42.6c-12.7-5.1-27.4-0.3-40.3-5c-13.9-5.1-12.3-20.5-8.1-32c5.5-15,15.9-27.8,16.6-44.5
					c0.3-7.5-1.7-15.1-8.6-19.1c-6.3-3.6-13.4-1.9-20.2-3c-5.9-1-11.1-4.9-14.2-9.9c-4-6.5-3.3-12.9-1.9-20.1
					c1.8-9.1,2.9-17.9-1.3-26.6c-3.9-8-11.1-14.1-16.8-20.7c-12.4-14.2-22.8-30-31.4-46.9c-4.4-8.6-17.3-1-13,7.6
					c7.7,15.1,16.9,29.3,27.5,42.5c5.2,6.5,11,12.3,16.4,18.6c5.8,6.8,5.7,13.1,4,21.5c-1.5,7.6-2.8,15.3-0.5,23
					c2,6.7,6.1,13,11.5,17.5c5.7,4.8,12.3,7.8,19.7,8.5c3.3,0.3,6.6,0,9.9,0.3c3.1,0.4,3.6,1,3.8,4.1c1,15.8-11.7,30.1-16.6,44.5
					c-4.6,13.6-5,29.9,5.6,40.8c10.2,10.5,25.7,10.9,39.4,11.3c3.1,0.1,6.3,0,9.4,0.5c3.2,0.4,4.9,0.8,4.9,4.1
					c-0.1,8.2-3.4,17.2-5.4,25c-4.6,17.5-9.6,35.5-7.6,53.7c1.8,16.7,8.5,31.9,22.1,42.2c3.2,2.5,8.4,0.5,10.3-2.7
					C1023.8,1023.1,1022,1019.1,1018.8,1016.7L1018.8,1016.7z"/>
			</g>
			<g id="XMLID_476_">
				<path id="XMLID_549_" fill="#00C2F3" d="M859.3,631.5c-4.3-7.6-9.1-15-14.3-22c-2.4-3.3-6.5-4.9-10.3-2.7
					c-3.2,1.9-5.1,7-2.7,10.3c5.2,7.1,9.9,14.4,14.3,22C851.1,647.4,864.1,639.9,859.3,631.5L859.3,631.5z"/>
			</g>
			<g id="XMLID_487_">
				<path id="XMLID_674_" fill="#FBED21" d="M814.7,586.1c0,0.5,0,1,0,1.5c0,1.9,0.8,3.9,2.2,5.3c0.7,0.7,1.5,1.2,2.4,1.6
					c0.9,0.5,1.9,0.7,2.9,0.6c1.9-0.1,4-0.7,5.3-2.2c1.3-1.5,2.2-3.3,2.2-5.3c0-0.5,0-1,0-1.5c0-1.9-0.8-3.9-2.2-5.3
					c-0.7-0.7-1.5-1.2-2.4-1.6c-0.9-0.5-1.9-0.7-2.9-0.6c-1.9,0.1-4,0.7-5.3,2.2C815.6,582.2,814.7,584.1,814.7,586.1L814.7,586.1z"
					/>
			</g>
			<g id="XMLID_496_">
				<path id="XMLID_683_" fill="#FBED21" d="M799.7,563.6c0,0.5,0,1,0,1.5c0,1.9,0.8,3.9,2.2,5.3c0.7,0.7,1.5,1.2,2.4,1.6
					c0.9,0.5,1.9,0.7,2.9,0.6c1.9-0.1,4-0.7,5.3-2.2c1.3-1.5,2.2-3.3,2.2-5.3c0-0.5,0-1,0-1.5c0-1.9-0.8-3.9-2.2-5.3
					c-0.7-0.7-1.5-1.2-2.4-1.6c-0.9-0.5-1.9-0.7-2.9-0.6c-1.9,0.1-4,0.7-5.3,2.2C800.6,559.8,799.7,561.6,799.7,563.6L799.7,563.6z"
					/>
			</g>
			<g id="XMLID_507_">
				<path id="XMLID_694_" fill="#00C2F3" d="M808,660.3c13.4,14.4,25.2,30.1,35.3,47c4.8,8.1,9.9,16.6,12.9,25.6
					c3.2,9.7,2,17-3.9,25.3c-4.8,6.7-9.3,13.1-11.2,21.3c-1.7,7.5-1.6,15.5,0.4,22.9c3.9,14.5,15.3,26.7,30.5,29
					c16.3,2.6,34.7-4.7,41.6-20.5c1.6-3.7,1.1-8-2.7-10.3c-13.7-8.2-30.8-6.6-44.4,1.2c-14,8-22.8,22.2-28.8,36.8
					c-3.2,7.8-7.1,16.7-6,25.2c1,7.6,6.1,13.6,12.4,17.7c12.1,7.7,28.2,8.4,41.8,5.2c16.2-3.7,30.4-13.7,39.4-27.6
					c1.3-2,1.5-5.5,0-7.6c-8.6-11.7-24.2-12.7-36-5.2c-6.3,4-11.4,9.6-16.1,15.4c-5,6-9.6,12.3-12.3,19.7c-5,13.9-0.3,28.5,9,39.3
					c10.2,11.7,24.8,17.1,39.9,18.7c8.5,0.9,17,0.4,25.5-0.4c7.2-0.7,15-0.8,21.4-4.5c5.5-3.2,9.8-9.1,7.7-15.7
					c-2.4-7.8-11.6-9.3-18.6-10.4c-14.4-2.1-30.2,0.2-40.8,11.1c-8.6,8.8-12.2,21.6-11.4,33.7c2.3,34.1,32.8,52.4,61.1,64.5
					c3.7,1.6,8,1.1,10.3-2.7c1.9-3.1,1-8.7-2.7-10.3c-18.2-7.8-39-17.3-49-35.5c-7.3-13.3-7.5-34.4,7.1-42.9
					c4.1-2.4,8.9-3.5,13.7-3.7c2.7-0.1,5.4,0,8.1,0.3c2.5,0.3,5.9,1.9,8.3,1.7c1.9-0.2,1.2-3.7-0.3-3.8c-0.3,0-1.2,0.8-1.6,0.9
					c-1.9,0.9-3.9,1.1-6,1.4c-6.4,0.8-12.8,1.4-19.2,1.6c-19.1,0.6-46.4-5.4-49.5-28.5c-1.5-11.5,7.4-21.5,14.6-29.4
					c3.5-3.9,7.5-7.9,12.6-9.7c3.4-1.2,8.9-1.3,11.3,2c0-2.5,0-5,0-7.6c-7.2,11.1-18.9,18.4-31.8,21c-6.4,1.3-13.3,1.3-19.7-0.3
					c-5.1-1.2-12.5-3.8-14.2-9.4c-1.1-3.8,1.1-8.4,2.4-12c1.2-3.4,2.5-6.9,4-10.2c3.2-6.9,7-13.5,12.3-19
					c9.6-9.9,25.2-15.6,37.9-8.1c-0.9-3.4-1.8-6.8-2.7-10.3c-4.5,10.5-16.6,15.7-27.6,13c-12.4-3.1-18.5-15.7-18.1-27.7
					c0.6-16,16.1-25.3,18-41.1c2-17.3-8.6-34.3-17.1-48.6c-10.6-17.7-23.1-34.2-37.2-49.3C812.1,642.6,801.5,653.2,808,660.3
					L808,660.3z"/>
			</g>
			<g id="XMLID_516_">
				<path id="XMLID_703_" fill="#00C2F3" d="M298.5,114.1c12,20.9,23.8,41.9,36.1,62.6c10.4,17.4,22.8,32.8,42.9,38.7
					c7.8,2.3,15.1,4.6,15.8,13.8c0.6,7.5-2.9,15.6-7.7,21.3c-5.3,6.4-14.6,13.7-23.6,11.3c-5.8-1.6-12-8.7-6.6-14.2
					c4.5-4.6,13.1-4.8,19.1-4.7c7.9,0.1,15.9,1.5,23.4,3.6c6.7,1.9,14.1,4.7,18.5,10.4c5.9,7.6,2.7,17.1-1.6,24.7
					c-4.8,8.3-10.7,16.8-17.8,23.3c-2.2,2-16.2,11.3-17.2,4.9c-0.5-3,3.7-7.3,5.7-8.8c3.2-2.5,7.1-4.3,10.9-5.6
					c7.7-2.5,16.1-3.1,24.1-1.5c9.2,1.9,17.7,6.2,24.1,13.1c3.4,3.7,5.5,7.5,3,12.3c-2.6,4.9-7.4,8.9-11.5,12.5
					c-17.1,15-39.4,24-62,25.5c-9.6,0.6-9.7,15.6,0,15c27.1-1.8,52.9-12.4,73.2-30.5c9.6-8.5,20.1-20,15.4-33.8
					c-3.9-11.4-15.4-20.1-26-24.7c-19.9-8.7-49.3-7.7-64.6,9.8c-7.3,8.4-11.3,23.2-0.1,30.4c11.6,7.6,26.7,0.2,35.7-8.1
					c9-8.3,17.3-19.8,22.5-30.8c5.5-11.8,6.6-25.3-1.5-36.2c-6.5-8.7-16.5-13.5-26.7-16.4c-10.3-2.9-21.7-4.7-32.5-4.1
					c-10.1,0.6-21.1,3.3-27.2,12.1c-7.4,10.6-3.3,24.2,6.6,31.6c22.3,16.6,50.4-6.5,57.4-28.3c3.7-11.5,2.7-25.4-6.7-33.9
					c-5.8-5.2-13.2-6.8-20.4-9.1c-6.5-2.1-12-5.7-16.7-10.6c-10.1-10.2-16.7-23.6-23.8-35.9c-9.1-15.8-18.1-31.5-27.2-47.3
					C306.7,98.2,293.7,105.7,298.5,114.1L298.5,114.1z"/>
			</g>
			<g id="XMLID_525_">
				<path id="XMLID_711_" fill="#FBED21" d="M477.2,353.1c0,0.1,0,0.1,0,0.2c0.1,0.7,0.2,1.3,0.3,2c0.1,0.6,0.5,1.4,0.8,1.9
					c0.6,1.1,1.7,2.3,2.8,2.9c1.4,0.8,2.9,1.2,4.5,1.2c0.8,0,1.6-0.1,2.4-0.4c0.6-0.2,1.4-0.5,1.9-0.8c0.6-0.3,1.1-0.8,1.6-1.3
					c1-1,1.7-2.2,2.1-3.5c0.5-1.6,0.3-2.7,0-4.3c-0.2-1-0.7-1.8-1.3-2.6c-0.5-0.8-1.2-1.5-2.1-1.9c-0.9-0.5-1.8-0.8-2.8-0.9
					c-1-0.2-2-0.2-3,0.1c-1.8,0.6-3.6,1.7-4.5,3.4c-0.3,0.6-0.5,1.2-0.8,1.8c-0.4,1.3-0.4,2.7,0,4c0,0,0,0.1,0,0.1
					c-0.1-0.7-0.2-1.3-0.3-2c0,0,0,0.1,0,0.1c0.1-0.7,0.2-1.3,0.3-2c0,0,0,0.1,0,0.1c0.3-0.6,0.5-1.2,0.8-1.8c0,0,0,0.1-0.1,0.1
					c0.4-0.5,0.8-1,1.2-1.5c0,0-0.1,0.1-0.1,0.1c0.5-0.4,1-0.8,1.5-1.2c-0.1,0-0.1,0.1-0.2,0.1c0.6-0.3,1.2-0.5,1.8-0.8
					c-0.1,0-0.2,0.1-0.3,0.1c0.7-0.1,1.3-0.2,2-0.3c-0.1,0-0.2,0-0.3,0c0.7,0.1,1.3,0.2,2,0.3c-0.1,0-0.2,0-0.3-0.1
					c0.6,0.3,1.2,0.5,1.8,0.8c-0.1,0-0.1-0.1-0.2-0.1c0.5,0.4,1,0.8,1.5,1.2c0,0-0.1-0.1-0.1-0.1c0.4,0.5,0.8,1,1.2,1.5
					c0,0,0-0.1-0.1-0.1c0.3,0.6,0.5,1.2,0.8,1.8c0,0,0-0.1,0-0.1c0.1,0.7,0.2,1.3,0.3,2c0-0.1,0-0.1,0-0.2c0-1-0.2-2-0.6-2.9
					c-0.3-0.9-0.8-1.7-1.6-2.4c-0.7-0.7-1.5-1.2-2.4-1.6c-0.9-0.5-1.9-0.7-2.9-0.6c-1.9,0.1-4,0.7-5.3,2.2c-0.4,0.5-0.8,1-1.2,1.5
					C477.5,350.4,477.2,351.7,477.2,353.1L477.2,353.1z"/>
			</g>
			<g id="XMLID_536_">
				<path id="XMLID_719_" fill="#00C2F3" d="M-14.2,65.1c-2,21.1,7,42.5,23.4,55.9c15.7,12.8,38.3,19.1,49,37.3
					c4.8,8.2,5.5,17.1-0.3,24.9c-5.6,7.6-14,12.6-19.9,19.9c-6,7.4-10.6,16.8-9.4,26.5c1.1,9.6,8.3,17.6,17.9,19.6
					c8.9,1.9,17.9-0.8,26-4.4c7.5-3.3,14.1-8.5,22-11.1c5.1-1.7,14.2-4.3,18.1,1.1c4.7,6.5-3.5,14.3-7.8,18.4
					c-7.1,6.8-15.3,12.3-21.8,19.7c-6.5,7.5-13.6,17.1-15.5,27.1c-2.1,10.9,4.6,21,16.5,20c9.5-0.8,18.9-6.1,27-10.8
					c9.2-5.3,18-11.6,27.9-15.6c4.3-1.7,8.9-3.1,13.6-3.3c2.8-0.1,9.9-0.6,11,2.9c1.2,3.9-5.1,9.6-7.5,11.9
					c-5.1,4.7-10.7,8.8-16.1,13.1c-11.3,9.1-22.5,18.2-33.8,27.3c-2,1.7-2.5,4.9-1.9,7.3c3.2,12.5,16.1,17.8,28.1,17.3
					c6.8-0.3,12.9-2.5,19.1-5.1c6.7-2.8,14.5-6.9,22.1-5.9c-1.8-2.4-3.7-4.8-5.5-7.2c1.4,26.1,8.5,51.3,21.1,74.1
					c4.7,8.5,17.6,0.9,13-7.6c-11.3-20.5-17.9-43.2-19.1-66.6c-0.2-2.9-2.2-6.8-5.5-7.2c-7.1-1-13.6-0.3-20.4,2
					c-6.2,2.1-12,5.2-18.3,7.2c-6,1.9-18.1,2.9-20.1-5.1c-0.6,2.4-1.3,4.9-1.9,7.3c10.2-8.3,20.5-16.6,30.7-24.8
					c8.9-7.2,19.2-13.9,25.9-23.4c5.9-8.2,7.5-19.4-0.5-26.9c-7.6-7.1-20.5-6.5-29.8-4.3c-19,4.4-33.7,18.3-51.4,25.8
					c-1.9,0.8-3.8,1.5-5.8,2.1c-1.2,0.3-3.8,0.6-3.8,0.6c-1.4-2,3.5-9.9,4.7-11.8c5.4-9.1,12.8-16,20.9-22.7
					c13.1-10.9,31-29.7,15.6-46.7c-12.3-13.6-34.1-5.8-47.3,2.1c-7,4.2-15.3,9-23.8,8.7c-8.3-0.4-10-7.8-7.2-14.6
					c3.7-9,12.3-14.6,19-21.2c7.4-7.4,13.1-16.3,13.4-27.1c0.7-25.4-23.1-40.6-42.2-51.8c-10-5.8-19.9-12-26.3-21.9
					c-6.4-10-9-21.4-7.9-33.2C1.7,55.5-13.3,55.6-14.2,65.1L-14.2,65.1z"/>
			</g>
			<g id="XMLID_546_">
				<path id="XMLID_728_" fill="#FBED21" d="M199,460.3c0.7,0.7,1.3,1.3,2,2c1.4,1.4,3.4,2.2,5.3,2.2c1,0,2-0.2,2.9-0.6
					c0.9-0.3,1.7-0.8,2.4-1.6c1.3-1.4,2.3-3.3,2.2-5.3c-0.1-2-0.8-3.9-2.2-5.3c-0.7-0.7-1.3-1.3-2-2c-1.4-1.4-3.4-2.2-5.3-2.2
					c-1,0-2,0.2-2.9,0.6c-0.9,0.3-1.7,0.8-2.4,1.6c-1.3,1.4-2.3,3.3-2.2,5.3C196.9,457,197.6,458.9,199,460.3L199,460.3z"/>
			</g>
			<g id="XMLID_673_">
				<path id="XMLID_736_" fill="#00C2F3" d="M-15.2,261.4c-4.9,13.9,5.5,26.5,17.9,31.3c6,2.3,12.5,2.1,18.5,4.3
					c5.5,2,3.8,11,3,15.5c-1.3,6.8-4.6,13.1-5.2,20.1c-0.6,6.8,2.5,13.6,8.5,17c5.5,3.1,12,2.8,18.1,1.9c2.7-0.4,11-2.9,13,0.1
					c1.4,2.1-1.4,7.3-2.1,9.2c-1.3,3.8-2.3,7.6-2.3,11.6c-0.1,8.9,3.8,17.3,7.6,25.2c4.2,8.7,17.2,1.1,13-7.6
					c-2.1-4.3-4.3-8.7-5.2-13.4c-0.9-4.5,0.2-8.2,1.7-12.5c2.6-7.5,4.4-16.1-1.6-22.6c-5.7-6.2-14.2-6.6-22-5.4
					c-3.6,0.5-13.3,3.7-13.7-2c-0.3-3.7,2-7.9,3.1-11.3c1.3-4.2,2.2-8.5,2.5-12.8c0.8-8.8-0.1-18.7-7.8-24.2
					c-6.3-4.5-14.1-4.1-21.2-6.2c-6.3-1.8-13.9-6.6-11.2-14.2C2.5,256.3-12,252.4-15.2,261.4L-15.2,261.4z"/>
			</g>
			<g id="XMLID_682_">
				<path id="XMLID_744_" fill="#00C2F3" d="M208.7,252.2c6.3,0.4,11.6,5.3,13.9,11c3,7.4-0.3,13.9-5.2,19.6
					c-11.3,13.2-26.8,27.6-20.2,46.8c2.8,8.2,9.7,14.1,18.3,15.6c9.1,1.6,17.7-1.1,26.2-4.1c6.6-2.4,16-6.3,22-0.6
					c5.3,5.1-3.7,9.5-7.4,11.8c-16,10-24.9,27.8-19.6,46.6c2.6,9.3,17.1,5.3,14.5-4c-2.1-7.5-0.8-15.4,3.7-21.9
					c4.6-6.5,12.4-9.1,18.2-14.2c6.5-5.6,9.4-14.4,5.8-22.5c-3.6-8-12-12.9-20.6-13.7c-10.2-1-19.3,4-28.8,6.7c-7,2-17,2.7-18.5-6.5
					c-1.5-8.6,4.8-16.2,10.3-22.1c6.5-7.2,13.9-14.3,16.6-24c5.2-19-10.1-38.3-29.1-39.7C199.1,236.5,199.2,251.5,208.7,252.2
					L208.7,252.2z"/>
			</g>
			<g id="XMLID_691_">
				<path id="XMLID_753_" fill="#00C2F3" d="M252.6,215.5c11.1,10.6,15.4,26.8,11.5,41.6c-4.3,16.3-22.6,26.1-21.8,44.1
					c0.2,4.2,3.3,7.3,7.5,7.5c9.4,0.5,18.5-1.8,27.6-3.5c6.8-1.2,14.8-1.9,21.1,1.5c14.9,8.1,3.9,28.6-2.8,38
					c-9.7,13.6-21.7,27.7-20.3,45.6c0.7,8.9,4.9,15.8,10.4,22.5c4.4,5.4,10.9,11.9,7.9,19.4c-1.5,3.8,1.6,8.2,5.2,9.2
					c4.2,1.2,7.8-1.5,9.2-5.2c2.6-6.7,1.2-13.9-1.8-20.2c-3.2-6.6-8.8-11.4-12.7-17.5c-8.4-12.9,1-27.3,8.8-37.9
					c8.7-11.8,17.6-23.6,18.2-38.8c0.6-13.9-7-26.1-20.3-30.6c-16.9-5.7-33.5,3.4-50.5,2.4c2.5,2.5,5,5,7.5,7.5
					c-0.4-8.8,8-15.8,12.9-22.4c5.4-7.4,8.6-16,9.8-25.1c2.3-17.8-3.7-36.4-16.8-48.9C256.2,198.2,245.6,208.8,252.6,215.5
					L252.6,215.5z"/>
			</g>
			<g id="XMLID_702_">
				<path id="XMLID_782_" fill="#00C2F3" d="M267.4,179.4c23.2,16.9,35,47.9,29.1,76c-2,9.4,12.5,13.4,14.5,4
					c7.4-35.1-7-71.9-36-92.9c-3.3-2.4-8.3-0.5-10.3,2.7C262.5,172.9,264.2,177,267.4,179.4L267.4,179.4z"/>
			</g>
			<g id="XMLID_710_">
				<path id="XMLID_789_" fill="#FBED21" d="M328.8,391.1c9.7,0,9.7-15,0-15C319.1,376.1,319.1,391.1,328.8,391.1L328.8,391.1z"/>
			</g>
			<g id="XMLID_718_">
				<path id="XMLID_796_" fill="#00C2F3" d="M326.4-12.9c9.8,17.8,22.1,34.2,36.5,48.4c7.3,7.2,15.3,13.5,23.3,19.9
					c6.8,5.4,17.7,12.8,19.9,21.9c1.5,6.4-6.3,11.7-9.8,16c-5,6.1-7.9,13.7-4.5,21.3c3.5,8.1,12.3,11.9,20.7,12.6
					c4.8,0.4,9.5-0.6,14.2-1.1c3.9-0.3,10-1.1,12.5,2.8c2.3,3.4-3.9,6.4-6.3,8.1c-5.1,3.8-10.3,7.6-15.5,11.2
					c-10.7,7.6-21.5,14.8-32.5,21.9c-8.1,5.2-0.6,18.2,7.6,13c10.2-6.5,20.3-13.3,30.2-20.2c5-3.5,9.9-7,14.7-10.6
					c4.5-3.3,9.7-6.5,13.3-10.7c7.3-8.6,4.4-19.8-4.3-26.1c-9.6-6.9-20.3-3.4-31.2-3.2c-5.7,0.1-12.8-2.3-8.2-8.5
					c4.7-6.4,11.3-11.1,13.6-19.1c6.1-21.8-22.3-38.1-35.9-49.6C366.3,19.5,351,0.7,339.4-20.5C334.7-28.9,321.8-21.4,326.4-12.9
					L326.4-12.9z"/>
			</g>
			<g id="XMLID_726_">
				<path id="XMLID_803_" fill="#00C2F3" d="M-5.5,0.8C-0.8,10.8,9.2,15.3,19,19c9.1,3.4,20,6.6,22.9,17.1
					c1.7,6.1-0.2,11.2-1.5,17.1c-1.5,6.4-1.2,12.5,1.3,18.6c3.6,9.1,12.9,17.9,11.7,28.2c-0.5,4,3.8,7.5,7.5,7.5
					c4.4,0,7-3.5,7.5-7.5c1.4-12.2-7-21.4-12-31.6c-2.8-5.7-1.8-10-0.3-16c1.7-6.7,2.1-13.6,0.2-20.3C52.7,19.4,42.8,12.3,31.2,7.6
					C22.8,4.2,11.7,2.2,7.5-6.8C3.4-15.5-9.5-7.9-5.5,0.8L-5.5,0.8z"/>
			</g>
			<g id="XMLID_735_">
				<path id="XMLID_810_" fill="#FBED21" d="M85.5-20.9c15.6,3.3,28.2,14.4,32.1,30.1c3.6,14.6-1.7,30.4-13.9,39.4
					c-2.6,1.9-5.5,3.5-8.4,4.7c-2.9,1.1-4.2,1.5-3.4-2.2c1.4-6.9,10.5-11.7,16.4-13.6c8.8-2.8,18.1-2.7,27.2-2
					c6.3,0.5,16.3,0,21.5,4.3c6.3,5.2,0.2,15.3-4,19.7c-5.8,6.1-13.7,9.6-22.1,9.8c-9.6,0.3-9.7,15.3,0,15
					c11.6-0.3,22.6-4.7,31.1-12.6c8.3-7.7,14.6-19.9,12-31.5c-2.8-12.4-14.4-17.1-25.7-18.6c-12.9-1.7-26.5-2.7-39.4,0.1
					c-11.4,2.5-22.9,9-28.9,19.3C74,51.2,76.7,67.8,90.6,69.1c10.4,1,21.9-7.2,28.7-14.4c8-8.4,12.8-19.1,14.1-30.6
					c3.2-27.9-16.9-53.8-43.9-59.5C80-37.4,76-22.9,85.5-20.9L85.5-20.9z"/>
			</g>
			<g id="XMLID_743_">
				<path id="XMLID_817_" fill="#00C2F3" d="M160.4-1.3c14.7,3.1,25.5,16.7,31.2,29.9c5.8,13.4,6.8,28.6,3.1,42.7
					c-2.5,9.3,12,13.3,14.5,4c4.9-18,3.1-37-4.5-54c-7.4-16.7-21.8-33.2-40.3-37C154.9-17.8,150.9-3.3,160.4-1.3L160.4-1.3z"/>
			</g>
			<g id="XMLID_752_">
				<path id="XMLID_824_" fill="#00C2F3" d="M199.4-13.2c11.3,3.5,15.9,19.6,18.9,29.6c4.2,14.1,5.6,28.6,4.6,43.3
					c-0.6,9.6,14.4,9.6,15,0c1.2-17.6-1-35.6-6.8-52.4c-4.9-14.4-12.1-30.1-27.7-35C194.2-30.6,190.2-16.1,199.4-13.2L199.4-13.2z"
					/>
			</g>
			<g id="XMLID_761_">
				<path id="XMLID_831_" fill="#00C2F3" d="M270.7-19.4c-8.9,5.9-19.9,13.3-25.3,22.8c-6.1,10.6,0.6,22.6,12.3,24.7
					c5.9,1.1,11.6-0.5,17.3-2.2c5.8-1.7,11.6-3.1,17.6-3.7c5.5-0.6,12-1.4,17.4-0.2c3.2,0.7,3.9,3.6,0.3,4.4
					c-9.4,2.2-5.4,16.7,4,14.5c11.1-2.6,17-15.2,11.1-25.2c-6.2-10.5-20.6-9.5-31.1-8.6c-6.1,0.5-12.2,1.5-18.2,3
					c-4.5,1.1-11.9,5.1-16.6,3.2c-1.8-0.7-1.8-1-1.3-2.2c1-2.2,3.6-4.2,5.3-5.8c4.6-4.3,9.4-8.1,14.6-11.6
					C286.2-11.7,278.7-24.7,270.7-19.4L270.7-19.4z"/>
			</g>
			<g id="XMLID_788_">
				<path id="XMLID_838_" fill="#00C2F3" d="M836.7,324.9c22.8,7.1,37.2,31.7,43.2,53.5c6.1,22,1.7,51-22.8,59.5
					c-4.2,1.5-9.4,2.4-13.9,1.2c-2.8-0.8-2.6-1.2-1.3-3.7c1.5-3.2,4.3-5.9,6.8-8.4c8.3-8.5,18.7-15.1,30.1-18.7
					c10.9-3.4,24.7-4.4,33.4,4.6c6.4,6.6,7.8,16.7,6.9,25.5c-2.6,25.3-25.7,44.6-49.5,49.4c3.1,1.7,6.2,3.5,9.2,5.2
					c-3.2-7.6,5.3-13.7,11.8-15.6c8.8-2.7,18.8-1.7,27.2,1.7c8,3.2,16.4,9.4,19.3,17.9c2.9,8.5-1.9,15.9-7.8,21.6
					c-3.1,3-6.6,5.7-10.1,8.2c-1.8,1.3-9.1,7.2-11.6,5.5c-1.7-1.2,0.2-5.2,0.9-6.5c1.8-3.1,4.7-5.5,7.9-7
					c12.2-5.9,33.8-1.6,38.4,12.8c2.9,9.2-4.6,18.5-10.4,24.9c-7,7.6-14.9,14.8-19.1,24.5c-3.4,7.9-4,17.2-0.6,25.3
					c4,9.6,12,12.9,21.6,14.9c7.7,1.6,10.1,5.6,11.8,13c1.7,7.2,2.2,14.8,4.8,21.8c2.9,8,7.9,14,15.2,18.5
					c5.8,3.6,12.8,5.7,18.2,9.9c3.7,2.9,4.3,6.1,4,10.7c-0.5,5.7-1.5,10.9-0.1,16.6c2.3,9.4,9.5,16.5,16.8,22.4
					c7.9,6.4,16.2,12.1,21.9,20.8c6,9.2,9,19.7,9,30.7c0,9.7,15,9.7,15,0c0-12.4-3.1-24.8-9.4-35.6c-5.7-9.9-13.7-17-22.6-24
					c-6.5-5.1-15.6-11.2-16.5-20.2c-0.7-6.4,1.8-12.5,0.5-19.1c-1-4.7-3.6-9.1-7.1-12.4c-6.7-6.2-15.6-8.6-23.1-13.6
					c-7.2-4.8-8.7-12.6-10.1-20.6c-1.6-9-3-18.7-9.4-25.8c-3.1-3.4-7.2-5.7-11.6-7c-4.9-1.5-11.5-0.9-14.5-5.7
					c-5.1-8.5,1.3-18.6,6.8-25c8.2-9.4,17.7-17.5,22.2-29.5c9.1-24.2-12.7-43.5-35.3-45.7c-9.7-1-20.2,1.2-28.2,6.9
					c-8.3,6-14.9,16.7-12,27.2c3.7,13.4,18.3,13.4,28.4,7.9c9.5-5.1,19-12.9,25.3-21.6c18-24.9-4.7-52.1-29.8-58.8
					c-12.4-3.3-27.1-3-38.3,3.6c-10.2,6-19,18.3-13.9,30.5c1.7,3.9,4.8,6.1,9.2,5.2c29.2-6,55.9-30,60.1-60.3
					c1.9-13.5-0.5-27.8-9.6-38.4c-10.8-12.5-28.3-14.6-43.7-11.3c-15.6,3.4-30.4,12.2-41.7,23.4c-5.8,5.8-12.2,13-12.6,21.6
					c-0.4,8.7,6.6,14.9,14.6,16.4c14.7,2.9,29.8-3.5,40.1-13.9c11.4-11.4,16.9-27,16.9-43c-0.1-19.2-7.3-38.6-17.7-54.5
					c-9.5-14.6-22.4-26.8-39.3-32.1C831.4,307.6,827.5,322.1,836.7,324.9L836.7,324.9z"/>
			</g>
			<g id="XMLID_795_">
				<path id="XMLID_845_" fill="#00C2F3" d="M845.8,536c-1.2-7.6-5.2-14.1-9.6-20.2c-4.1-5.6-9-11.2-11-18c-1.2-4-1.3-8.1-2.7-12.1
					c-1.3-3.7-3.4-6.9-6.1-9.8c-3.1-3.5-10.3-7.7-10.4-12.8c-0.2-9.6-15.2-9.7-15,0c0.2,7.5,4.3,13,9.5,18.1
					c2.2,2.1,4.7,4.2,6.5,6.7c2.5,3.6,2.4,8.3,3.4,12.4c3.6,15,18.6,24.5,21,39.7c0.6,4,5.6,6.2,9.2,5.2
					C844.8,544,846.5,540,845.8,536L845.8,536z"/>
			</g>
			<g id="XMLID_802_">
				<path id="XMLID_852_" fill="#00C2F3" d="M860.8,297.5c12.5,3.2,23.4,10.2,31.6,20.1c4,4.8,7.3,10.4,9.5,16.2
					c2.4,6.4,3.2,13.1,4.8,19.7c1.7,6.6,4.6,13,9.9,17.4c5.6,4.7,12.6,7.6,18.2,12.4c10.4,9,18.2,20.6,21.6,34
					c3.9,15.4,0.3,32.3,12,45c6.6,7.1,17.2-3.5,10.6-10.6c-4.4-4.7-5-11.6-5.5-17.7c-0.6-7.5-1.1-14.9-3.1-22.2
					c-3.9-14.1-12.1-27.1-22.8-37.1c-5.4-5.1-11.4-9.1-17.8-12.9c-6.3-3.8-8-9-9.5-16c-3-14.1-7.3-26.5-16.5-37.8
					c-9.9-12.3-23.9-21.2-39.2-25C855.5,280.7,851.5,295.1,860.8,297.5L860.8,297.5z"/>
			</g>
			<g id="XMLID_809_">
				<path id="XMLID_859_" fill="#00C2F3" d="M1021.2,357.1c18,3.5,38.1,7.1,51.5,20.7c5.6,5.7,9.9,13,10.4,21
					c0.6,10.2-3.1,20.1-1.1,30.4c1.6,8.2,6.7,16,14.8,18.9c9.8,3.5,20.5-1,29.9-3.6c9.9-2.8,19.8-5.9,29.8-8.2
					c8-1.8,17.4-3.3,25.2,0.4c12.2,5.8,12.1,25,0.6,31.5c-4,2.2-5.2,8.6-1.5,11.8c12.4,10.7,27.2,7,41.9,10.3
					c13.5,3,18.5,16.5,17.6,29.2c-1.2,16.9-13.4,31.2-22.1,44.8c-4.4,6.9-5.9,15.4,0.6,21.7c5.4,5.3,13.7,6.2,20.9,6.4
					c8.7,0.2,17.3-1.2,25.9-1.5c7.3-0.3,15.1,0.1,20.8,5.2c7.1,6.5,17.8-4.1,10.6-10.6c-11.8-10.6-26.9-10.2-41.7-8.9
					c-7.1,0.6-15,1.7-22.1,0.2c-1.1-0.2-2.6-0.5-3.5-1.3c-0.8-0.7-0.7,0.2-0.1-1c1.8-3.9,4.9-7.6,7.3-11.2
					c9.3-13.9,18.4-29.3,18.6-46.6c0.1-14-5.5-28.4-17.5-36.3c-7.3-4.8-16.2-5.8-24.7-6.2c-7.1-0.4-16,0.2-21.8-4.8
					c-0.5,3.9-1,7.9-1.5,11.8c13.9-7.8,19.4-26.1,13.9-40.8c-7.3-19.8-28.8-22.9-47.3-19.4c-11.4,2.2-22.6,5.9-33.8,9
					c-6.8,1.9-20.7,8.9-24.9-0.1c-4.5-9.5,0.7-21.1,0.2-31.1c-0.5-10.1-4.6-19.3-10.8-27.1c-15.1-19-39.4-24.7-62.1-29.1
					C1015.7,340.7,1011.7,355.2,1021.2,357.1L1021.2,357.1z"/>
			</g>
			<g id="XMLID_816_">
				<path id="XMLID_866_" fill="#00C2F3" d="M1286.5,628.3c26.6,8.5,30.5,44.3,28.9,67.7c-1.1,16.2-5.9,32.7-18,44.1
					c-5.3,5-12.1,8.8-19.4,9.9c-4.3,0.6-12.4,0.3-11.7-5.8c0.7-6.5,8.1-11.1,13.5-13.2c6.3-2.4,13.3-2.9,19.9-1.9
					c12.5,1.9,29.7,9.9,34.5,22.6c2.9,7.9-5.4,16.4-9.5,22.3c-5.5,7.8-11.6,15.5-16.4,23.8c-4.5,7.7-4.6,16.3,1.1,23.4
					c5.2,6.4,12.8,9,20.8,9.8c8.8,0.9,17.4,0.2,26.1,2.2c8.3,1.9,16.1,5,23.4,9.3c14.5,8.5,25.9,21.1,33,36.3c4.1,8.7,17,1.1,13-7.6
					c-15.6-33.4-50.3-54.3-86.8-54.9c-5-0.1-20.3,0.3-18.7-8.4c0.8-4.3,5.6-9,8-12.5c3.6-5.1,7.2-10.3,10.8-15.4
					c6-8.5,12.4-17.4,10.8-28.4c-1.4-9.1-7.7-16.7-14.6-22.4c-13.9-11.5-32.3-17.6-50.3-14.9c-16.2,2.4-36.9,16-32.9,35
					c4.4,20.7,31.5,17.3,45.2,9.6c17.1-9.6,27.4-27.7,31.3-46.5c7-34.3,1.4-86.1-37.7-98.6C1281.3,610.8,1277.4,625.3,1286.5,628.3
					L1286.5,628.3z"/>
			</g>
			<g id="XMLID_823_">
				<path id="XMLID_873_" fill="#00C2F3" d="M1437,835.2c4.2-20.5-13.2-34.9-29.7-43.1c-7.4-3.7-15.5-7.3-21.5-13
					c-7.1-6.7-7.3-14.8-4.5-23.8c3-9.6,7.5-18.4,8.3-28.6c0.7-9.4-2.2-19-9.9-24.9c-3.9-3-8.9-4.2-12.8-7.3
					c-2.9-2.3-4.6-5.6-5.6-9.1c-2.7-9.6,0-19.5,2.1-29c2.4-11,4.1-22.5,0.1-33.4c-3.5-9.4-10.3-17.2-20.3-19.7
					c-9.4-2.3-13.4,12.1-4,14.5c6.9,1.7,10.3,8.5,11.4,15.1c1.6,9.4-1.8,19.2-3.6,28.3c-3.4,17.4-2.4,38.4,15.1,47.9
					c3.4,1.9,8,3,10.4,6.3c2,2.8,2.3,6.5,2.1,9.8c-0.4,9.4-5.4,18-8.1,26.8c-2.7,9.2-3.1,18.9,1.2,27.7c3.7,7.4,10.2,12.9,17,17.2
					c7.9,5,16.8,8.2,24.5,13.4c6.6,4.4,15,11.9,13.2,20.7C1420.6,840.7,1435.1,844.7,1437,835.2L1437,835.2z"/>
			</g>
			<g id="XMLID_830_">
				<path id="XMLID_150_" fill="#FBED21" d="M1272.3,483c-2.7,0.4-0.7-0.2-0.6,0.9c0.1,0.8,1.3,2.4,1.7,3.3c0.9,2.1,1.6,4.3,2.2,6.4
					c1.5,5.2,2.3,10.5,2.3,15.9c0,4.5-0.4,9-1.4,13.5c-1.1,4.9-3.1,9.6-3.9,14.6c-3.7,23.1,22,27.3,39.3,25.3
					c16.3-1.8,35.1-7,46.9,8.1c5.2,6.7,7.9,15.1,9.1,23.4c1.4,9.3,1.9,18.6,7.6,26.4c5.2,7.2,12.9,11.7,20.6,15.8
					c6.8,3.6,14.8,7,19.4,13.5c5.5,7.9,18.5,0.4,13-7.6c-4.9-7.1-11.6-11.9-19-15.9c-6.4-3.4-13.5-6.3-18.9-11.3
					c-7.3-6.9-6.8-17.1-8.4-26.3c-1.5-8.6-4.6-17.2-9.6-24.4c-5.4-7.9-12.7-14-21.8-17.1c-9-3-18.7-2.2-27.9-1
					c-9,1.2-18.9,3.4-27.9,1.3c-3.4-0.8-7.6-1.7-7.8-5.8c-0.2-4.9,2.7-10.2,3.8-14.9c2.7-12,2.5-24.7-0.7-36.5
					c-2.9-10.8-8.5-24.2-22-21.9C1258.8,470.1,1262.9,484.5,1272.3,483L1272.3,483z"/>
			</g>
			<g id="XMLID_837_">
				<path id="XMLID_147_" fill="#00C2F3" d="M1251.9,446.3c-8.8-8.3-9.2-22.3-15.3-32.4c-6.7-11.2-17.9-19.7-30.5-23.2
					c-14.8-4.1-30-0.9-45.1-2.6c-9.2-1-21.1-4.8-24.7-14.3c-3.4-8.9-17.9-5.1-14.5,4c4.5,11.9,14.5,19.3,26.5,22.9
					c14.1,4.3,28.7,1.9,43.1,2.7c13.7,0.8,26.1,7,32.9,19.2c6.3,11.3,6.9,24.8,16.9,34.1C1248.3,463.5,1259,452.9,1251.9,446.3
					L1251.9,446.3z"/>
			</g>
			<g id="XMLID_844_">
				<path id="XMLID_146_" fill="#00C2F3" d="M1115,350c-8.5-11.6-20.2-19.9-34.2-23.3c-9.4-2.3-13.4,12.2-4,14.5
					c10,2.5,19.1,8,25.3,16.4c2.4,3.3,6.5,4.8,10.3,2.7C1115.6,358.4,1117.4,353.2,1115,350L1115,350z"/>
			</g>
			<g id="XMLID_851_">
				<path id="XMLID_145_" fill="#FBED21" d="M991.7,352.1c9.7,0,9.7-15,0-15C982.1,337.1,982.1,352.1,991.7,352.1L991.7,352.1z"/>
			</g>
			<g id="XMLID_858_">
				<path id="XMLID_144_" fill="#00C2F3" d="M943.2-2.9c17.4-5.6,37.1,0.8,46.3,16.9c4.3,7.5,6.2,16.4,5.1,25
					c-1.3,10.3-7.6,19.8-3.5,30.3c3.4,8.6,12.3,13.2,21.2,13.6c11.3,0.4,21.2-6.3,31.4-10.2c9.3-3.5,19.7-6.1,29.5-3.1
					c7.2,2.2,14.4,8,15.3,16c1.1,10-5.4,19.9-6.3,29.8c-0.8,8.7,1.5,18.2,8.7,23.8c9,6.9,19,3.3,29.2,3.9
					c7.1,0.4,12.3,5.5,15.5,11.5c9.3,17.6-1.2,37.1-9.1,53.1c-8.9,18-18.2,39.4-10.9,59.7c3.5,9.6,10.2,16.8,17.5,23.6
					c6.3,5.9,13.9,12.1,15.9,20.9c2.6,11.7-2,23.7,2.6,35.3c3.8,9.3,12,17.8,22.9,16.7c4-0.4,7.5-3.2,7.5-7.5c0-3.7-3.4-7.9-7.5-7.5
					c-8.6,0.9-10.4-10.7-10.3-17.1c0.1-10.7,1.4-21.1-3.3-31.1c-7.3-15.2-26.1-22.6-31.3-38.8c-6.4-20,7.3-40.4,15.3-57.7
					c8.4-18.1,13.5-37.8,4-56.6c-3.7-7.3-9.7-13.6-17.2-16.9c-4.2-1.8-8.6-2.7-13.1-2.6c-5,0-10.2,1.4-15.1,0.6
					c-8.3-1.4-6.7-12.4-5-18.3c2.9-10.3,7.2-20.5,4.1-31.3c-5.6-19.6-27.5-27.7-46.1-25.1c-11.3,1.6-21.2,6.3-31.6,10.8
					c-5.1,2.2-19.5,6.9-20.1-3c-0.3-5.6,3-11.4,4.1-16.8c1-5,1.4-10.1,0.9-15.2c-1-10.9-4.9-21.1-11.6-29.7
					c-13.7-17.4-38-24.1-58.8-17.4C930.1-14.4,934,0.1,943.2-2.9L943.2-2.9z"/>
			</g>
			<g id="XMLID_865_">
				<path id="XMLID_128_" fill="#00C2F3" d="M1044.1-2.5c6.7-0.9,13.5-1.3,20.3-1c3.1,0.1,6.2,0.3,9.2,0.7c1.1,0.1,8.2,0.4,8.7,1.6
					c0.8,2-5.3,8.5-6.4,10.1c-3,4.4-6.3,11.6-3.3,16.7c2.7,4.6,10.8,7.2,15.6,8.6c5.7,1.6,11.6,2.3,17.5,2.7
					c10.2,0.8,20.7,0.6,30.1,5.1c8.3,3.9,14.1,10.8,10.9,20.4c-3.7,10.9-14.5,18.7-16.8,30.1c-2.9,15.1,12.2,20.2,24.3,21.1
					c10.6,0.8,22.3-2,32.2,3.1c10.1,5.2,6.4,14,2.2,22.1c-5.3,10.1-9.8,19.7-4.9,31c1.6,3.7,7,4.5,10.3,2.7
					c3.9-2.2,4.3-6.6,2.7-10.3c-2.2-5.2,3.3-12.7,5.5-17c3.7-7.2,7.1-14.9,5.7-23.2c-3-18.8-24.3-23.5-40.2-23.3
					c-5,0.1-10.2,0.4-15.2-0.2c-2.2-0.3-4.6-0.7-6.6-1.6c-1.9-0.9-1.5-1-0.7-3c1.8-4.3,5.3-8.2,7.8-12c2.7-4,5.2-8.2,7.1-12.7
					c7.1-17.4-2.2-33.7-18.6-41c-9.2-4.1-18.7-5.2-28.7-5.8c-10.5-0.7-21.1-1.1-30.1-7.1c1.2,2.2,2.5,4.3,3.7,6.5
					c0-2.9,2.1-5.2,3.8-7.4c2.2-2.9,4.3-5.7,5.5-9.3c2.2-6.3,1.3-13.4-4.1-17.8c-5.7-4.7-14.8-4.9-21.8-5.5
					c-8.6-0.7-17.3-0.4-25.9,0.7c-4,0.5-7.5,3.1-7.5,7.5C1036.6-6.4,1040-2,1044.1-2.5L1044.1-2.5z"/>
			</g>
			<g id="XMLID_872_">
				<path id="XMLID_92_" fill="#FBED21" d="M916.7,49.1c0.5,0,1,0,1.5,0c1.9,0,3.9-0.8,5.3-2.2c0.7-0.7,1.2-1.5,1.6-2.4
					c0.5-0.9,0.7-1.9,0.6-2.9c-0.1-1.9-0.7-4-2.2-5.3c-1.5-1.3-3.3-2.2-5.3-2.2c-0.5,0-1,0-1.5,0c-1.9,0-3.9,0.8-5.3,2.2
					c-0.7,0.7-1.2,1.5-1.6,2.4c-0.5,0.9-0.7,1.9-0.6,2.9c0.1,1.9,0.7,4,2.2,5.3C912.9,48.3,914.7,49.1,916.7,49.1L916.7,49.1z"/>
			</g>
			<g id="XMLID_879_">
				<path id="XMLID_85_" fill="#FBED21" d="M942.2,32.6c0.5,0,1,0,1.5,0c1.9,0,3.9-0.8,5.3-2.2c0.7-0.7,1.2-1.5,1.6-2.4
					c0.5-0.9,0.7-1.9,0.6-2.9c-0.1-1.9-0.7-4-2.2-5.3c-1.5-1.3-3.3-2.2-5.3-2.2c-0.5,0-1,0-1.5,0c-1.9,0-3.9,0.8-5.3,2.2
					c-0.7,0.7-1.2,1.5-1.6,2.4c-0.5,0.9-0.7,1.9-0.6,2.9c0.1,1.9,0.7,4,2.2,5.3C938.4,31.8,940.2,32.6,942.2,32.6L942.2,32.6z"/>
			</g>
			<g id="XMLID_886_">
				<path id="XMLID_63_" fill="#FBED21" d="M1236.2,125.8c12.5,17.1,0,39.2-6.3,56.2c-7,19-8.8,41.8,8.4,56.1
					c7,5.9,16.2,8.7,25.2,6.1c8.8-2.6,15.3-11.4,24.4-12.7c7.4-1.1,15.2,3.2,19.4,9.2c5.5,7.9,5,18.6,1.7,27.3
					c-2.6,6.8-8.4,14.5-16.2,15.6c-7.7,1.1-9.2-8.2-5.1-13.1c5.5-6.7,16.6-6.2,23.9-3.1c7.5,3.1,13.5,9.3,17.9,15.9
					c9.2,13.9,18.5,39.9,4.4,53.5c-5.3,5.1-14.2,6.4-18.5-0.8c-3.8-6.3,3.6-10.8,8.8-12.4c17.8-5.2,39.4,3.1,54.3,12.6
					c17,10.9,30.5,27.4,36.8,46.6c3,9.1,17.5,5.2,14.5-4c-7.5-22.6-22.7-41.7-42.5-54.8c-18-11.9-42.9-20.3-64.5-15.5
					c-10.1,2.2-20.4,8.6-22.8,19.4c-2.5,11.7,5.2,22.7,16,26.7c11.6,4.3,24-1.1,31.4-10.4c9-11.3,9.7-26,6.9-39.6
					c-4.5-22.1-18.6-45.7-41.2-52.6c-11.3-3.4-24.6-2-33.7,5.8c-9,7.7-11.9,22-4.9,32c7.2,10.3,20.5,10.5,30.7,4.9
					c10.3-5.7,17-16.2,19.8-27.4c3.2-12.6,1.5-26.5-6.6-36.9c-7-8.9-18.6-14.9-30-14c-6.8,0.5-12.6,3.3-18.2,7.1
					c-4.4,3-9.4,7.5-15.2,6.6c-12.8-2-16.6-18.5-14.9-29.1c2.4-14.8,10.6-27.8,14.2-42.3c3.4-13.6,3.5-28.9-5.1-40.7
					c-2.4-3.3-6.5-4.8-10.3-2.7C1235.6,117.4,1233.8,122.5,1236.2,125.8L1236.2,125.8z"/>
			</g>
			<g id="XMLID_893_">
				<path id="XMLID_62_" fill="#00C2F3" d="M1416.4,308.4c-8.6-6.7-17.2-13.4-25.9-20.1c-6.9-5.3-14.9-10.5-19.9-17.8
					c-9.8-14.3-7.4-33.6-11.9-49.7c-4.2-15.1-14.9-29.3-28.9-36.4c-7.1-3.6-15.1-5.7-23.1-4.9c-4,0.4-7.8,1.3-11.5,2.8
					c-3.9,1.5-8.1,3.8-12.4,4c-9.7,0.5-3.3-8.9-1-13.7c4-8.4,8.3-16.6,11.3-25.4c5.8-16.6,5-34.3-6.2-48.3
					c-10.4-12.9-26.9-19.2-43.2-16.6c-6.7,1.1-17.6,5.9-23.4,0c-1.9-2-1.2-3.2,0.4-5.1c2.8-3.2,6.2-5.5,8.5-9.1
					c5.3-8.1,4.5-19.4-5.3-23.4c-4.2-1.7-8.9-1.8-13.2-3.3c-4.2-1.5-8.2-3.8-11.8-6.4c-16.6-12.4-24.2-32.8-31.3-51.5
					c-3.4-8.9-17.9-5.1-14.5,4c6.6,17.6,13.6,35.6,26.3,49.8c5.5,6.2,12.3,11.8,19.8,15.4c3.8,1.9,7.8,3.5,11.9,4.4
					c1.9,0.4,4,0.9,6,1.1c4,0.3,0.1,0.5,0.5-0.4c0.3-0.7-0.5,1.1-0.6,1.3c-1.7,3-4.7,5-7.1,7.6c-3.1,3.4-5.5,7.2-5.9,11.8
					c-0.8,8.3,4.8,15.5,12.1,19c8.8,4.2,18,2.1,27.1,0.2c7.4-1.6,14.6-1.3,21.4,2.3c6.5,3.4,11.9,8.8,14.8,15.6
					c3.3,7.8,2.4,16.5,0,24.5c-2.6,8.7-7,16.8-10.9,25c-3.8,7.9-9.3,17.6-4.7,26.3c3.6,6.9,11.8,10.3,19.3,9.9
					c8.8-0.5,16.1-6.2,24.7-6.9c15-1.2,28,11.3,33.9,24.1c8.2,17.8,4.2,38.7,13.6,56.3c4.8,8.9,12.6,15.1,20.4,21.1
					c9.9,7.7,19.8,15.4,29.8,23.1c3.2,2.5,7.5,3.1,10.6,0C1419,316.4,1419.6,310.9,1416.4,308.4L1416.4,308.4z"/>
			</g>
			<g id="XMLID_900_">
				<path id="XMLID_59_" fill="#FBED21" d="M1231.7-35c0.1,11.9,6.9,21.8,15.9,29c8.5,6.9,19.1,11.1,26.9,18.8
					c4.9,4.7,10.1,14.3,5,20.8c-2.8,3.6-7.6,5.1-10.3,9c-3.5,4.9-3.2,11.2,0.9,15.7c7.7,8.4,21.3,11.7,31.8,15
					c9.8,3.1,20,6.2,27.6,13.4c8.2,7.7,9,17.8,4.9,28c-2.2,5.5-5.5,10.6-8.6,15.6c-3.2,5.1-7.5,10.2-7.1,16.6
					c0.4,6.3,5.5,10.9,11.4,12.2c7.1,1.5,12.1-1.9,18.5-4.3c10.3-3.9,17,10,20.5,17.3c4.2,8.7,17.2,1.1,13-7.6
					c-4.3-8.7-10.1-18.1-19-22.8c-4.4-2.3-9.3-3.3-14.3-2.5c-2.8,0.4-5.3,1.4-7.8,2.6c-1.4,0.7-2.8,1.5-4.3,2.1
					c1-0.4-3.9,1.3-3.3,0.6c-0.2-0.1-0.3-0.1-0.5-0.2c0.4,0.4,0.7,0.9,0.8,1.6c0.1,0,1.6-2.7,1.4-2.4c1.5-2.4,3.1-4.7,4.6-7.1
					c3.4-5.4,6.5-10.9,8.9-16.8c4.3-10.8,5-22.6-0.4-33.1c-10.6-20.7-35.3-24.3-54.9-31.8c-2.5-1-4.9-2.1-7.2-3.3
					c-1-0.5-1.9-1.1-2.9-1.7c-0.5-0.3-0.9-0.6-1.4-0.9c-1.2-1.3-1.4-0.4-0.6,2.8c0,0,4.5-3.6,4.7-3.7c2.4-1.8,4.6-3.6,6.3-6.1
					c5.7-8.2,5.1-19.1,1.3-27.9c-4.8-11-15.2-17.7-25-23.8c-9.1-5.6-21.6-12.8-21.7-25C1246.6-44.6,1231.6-44.6,1231.7-35L1231.7-35
					z"/>
			</g>
			<g id="XMLID_20_">
				<path id="XMLID_61_" fill="#FBED21" d="M1294.9-15.5c6.3,6.4,14.9,9.2,21.7,15c3.1,2.6,5.2,5.9,6.1,9.8c1.1,4.7-0.3,8.9-1,13.5
					c-1.5,9.8,4.2,17.6,12.9,21.6c8.8,4,17.9,4.8,20,15.9c1.8,9.5,16.3,5.5,14.5-4c-1.9-9.9-8.7-17.8-18-21.6
					c-4.1-1.7-9.5-2.5-13-5.5c-3.6-3.1-0.5-8.8-0.1-13c0.9-9.3-2.7-19-9.2-25.7c-6.8-7-16.6-9.7-23.4-16.5
					C1298.7-33,1288.1-22.4,1294.9-15.5L1294.9-15.5z"/>
			</g>
			<g id="XMLID_23_">
				<path id="XMLID_143_" fill="#00C2F3" d="M1378.7,97.1c9.7,0,9.7-15,0-15C1369.1,82.1,1369.1,97.1,1378.7,97.1L1378.7,97.1z"/>
			</g>
			<g id="XMLID_29_">
				<path id="XMLID_152_" fill="#00C2F3" d="M1343.1-20.3c-2,11.8,2.3,22.7,10.5,31.4c7.9,8.3,18.4,13,27.4,19.8
					c4.7,3.5,6.1,7.6,7.7,13.1c1.6,5.3,3.7,10.5,6.4,15.4c5.4,9.8,13.1,17.9,22,24.5c3.3,2.4,8.3,0.5,10.3-2.7
					c2.3-3.8,0.6-7.9-2.7-10.3c-7.3-5.4-13.2-12.5-17.4-20.5c-4.7-8.9-5.2-19.5-12.2-27.1c-6.7-7.2-16.4-11.4-24.3-17.1
					c-6.8-5-14.7-13.2-13.2-22.5C1359.2-25.8,1344.7-29.9,1343.1-20.3L1343.1-20.3z"/>
			</g>
			<g id="XMLID_31_">
				<path id="XMLID_202_" fill="#FBED21" d="M1419.5,260.6c0.2-0.1,0.4-0.1,0.5-0.2c-2.8-1.1-5.6-2.3-8.5-3.4
					c0.1,0.2,0.3,0.4,0.4,0.6c-0.3-1.9-0.5-3.9-0.8-5.8c-0.1,0.2-0.1,0.5-0.2,0.7c2.4-1.8,4.8-3.7,7.2-5.5c-0.4,0-0.8,0-1.2,0.1
					c1.3,0.3,2.5,0.7,3.8,1c-7.4-4.5-12.8-13.9-17.2-21.1c-4.9-8.2-9.3-16.7-14.5-24.7c-5.2-8.1-18.2-0.6-13,7.6
					c6.2,9.6,11.2,19.9,17.5,29.4c3,4.7,6.4,9.2,10.1,13.4c3.7,4.1,8.5,9.7,14.5,9.4c3.4-0.2,6.2-2.2,7.2-5.5c0.8-2.5,0.5-5-1-7.1
					c-1.9-2.7-5.1-4.5-8.5-3.4c-0.2,0.1-0.4,0.1-0.5,0.2C1406.3,248.9,1410.2,263.4,1419.5,260.6L1419.5,260.6z"/>
			</g>
			<g id="XMLID_34_">
				<path id="XMLID_949_" fill="#00C2F3" d="M-17.2,608c-4.2,13.6,4.3,27,15.6,34c12,7.5,28.1,7.7,38.7,17.3
					c3.9,3.5,6.8,8.1,5.5,13.4c-1,4-4,7.3-6.8,10.1c-7.2,7.4-16.1,13.7-20.3,23.5c-10.3,23.7,17.3,44.9,39.5,36.9
					c6.8-2.5,12.3-6.8,18.1-11c4.9-3.6,10-7.2,16.2-7.5c5.9-0.3,8.8,3.7,8,9.4c-1,6.6-6,11.8-10.2,16.7c-5.1,6.1-11.3,13.2-9.8,21.8
					c1.5,8.7,10,12.5,18.1,11.7c8.4-0.8,15.3-5.4,22-10.1c5.3-3.7,13.4-9.8,19.9-5.9c8.3,4.9,15.9-8,7.6-13
					c-13.6-8-27.1,0.5-38.4,8.2c-2.6,1.7-5.2,3.6-8.1,4.7c-1.3,0.5-2.7,0.9-4,1.1c-0.6,0.1-1.5-0.2-2.1,0c-1.7,0.5,0.1-0.7-0.3,0.8
					c1.6-5.8,7.4-10.6,11-15.2c8.2-10.4,13.9-25.8,4.5-37.5c-8.5-10.5-23.9-9-34.7-3.1c-9.6,5.2-18.6,17.2-30.7,15.3
					c-7.8-1.2-16.4-7.8-13.3-16.5c3-8.4,12-14,18-20.1c7.4-7.7,12.7-17.1,10.6-28.1c-2.9-15.3-18-23.5-31.5-28.1
					c-10.2-3.5-33.4-9.4-28.6-25C0.1,602.7-14.4,598.7-17.2,608L-17.2,608z"/>
			</g>
			<g id="XMLID_35_">
				<path id="XMLID_966_" fill="#FBED21" d="M-17.5,765.8c12,14.2,29.8,20.5,43.4,32.6c12.3,10.8,18.1,27.1,15.8,43.4
					c-1.1,7.6-4.1,15.8-9.3,21.6c-2.1,2.4-11.7,9.7-12.3,2.5c-0.8-8.1,9.1-9.5,14.9-8.4c8.5,1.6,16.8,6.3,23.5,11.7
					c13.4,10.7,22.8,26.4,25.5,43.4c1.6,10.2-0.6,18.2-8.4,25c-4.8,4.2-13.6,9.2-20,5.7c-5.9-3.3-4.3-11.9-0.9-16.5
					c5.1-6.9,15.2-7.8,23-7.3c17,1,34.1,9.1,46.9,19.9c32.9,27.9,40.4,75.9,17.9,112.8c-5.1,8.3,7.9,15.8,13,7.6
					c26.2-42.8,17.3-100.6-22-132.4c-17.6-14.3-42.1-25.4-65.3-22.7c-11.7,1.4-23.1,6.8-28.4,17.9c-4.6,9.7-4.4,22.1,3.5,30.1
					c18.5,18.5,51.1-3.5,55.5-24.6c4.7-22.9-8.1-48.9-24.1-64.6c-8.3-8.2-18.4-14.8-29.4-18.7c-11-3.9-25.4-4.3-34,5.1
					c-6.8,7.5-8.9,20.6-1.4,28.5c8.8,9.2,22,5.6,30.6-1.8c19.3-16.7,20.5-48.6,10.2-70.3c-5.7-11.9-15.7-20.5-26.5-27.7
					c-10.8-7.2-22.5-13.2-31-23.2C-13.2,747.8-23.7,758.4-17.5,765.8L-17.5,765.8z"/>
			</g>
			<g id="XMLID_36_">
				<path id="XMLID_973_" fill="#00C2F3" d="M-14,945.3c42.2,11.6,68,55,57.6,97.7c-2.3,9.4,12.2,13.4,14.5,4
					c6.2-25.3,2.3-52.7-11.8-74.8c-12.9-20.2-33.2-35-56.3-41.4C-19.3,928.3-23.3,942.7-14,945.3L-14,945.3z"/>
			</g>
			<g id="XMLID_56_">
				<path id="XMLID_980_" fill="#00C2F3" d="M575.2,1013.8c-10.8,15.9-33.5,11.1-48.5,5.5c-11.4-4.2-28.5-13.6-26.9-28.1
					c0.8-7.3,6.2-13.1,11.2-18.1c5.8-5.8,12.2-11.1,17.5-17.4c6-7.1,11.2-15,15.1-23.4c3.4-7.4,6.5-15.5,5.7-23.8
					c-0.8-8.2-5.4-15.5-13.5-18.3c-8.5-2.9-17.8-0.1-24.9,4.9c-7.7,5.4-14.2,11.8-22.6,16.1c-7.7,3.9-16.3,6.5-24.9,7.4
					c-3.7,0.4-7.7,0.7-11.3,0.1c-2.3-0.4-4.6-0.7-4.2-3c0.6-3.2,4.6-7.2,6.6-9.5c3.1-3.5,6.6-6.7,10.5-9.4
					c14.9-10.2,35.2-11,47.6-25.1c6.3-7.2,10.2-16.5,8.2-26.2c-1-4.6-3.5-9.1-7.7-11.3c-5-2.6-10.1-0.8-14.8,1.5
					c-21.6,10.7-42.8,22.5-64.1,33.7c-8.6,4.5-1,17.4,7.6,13c19.1-10,38.1-20,57.2-30c1.9-1,5.6-2.1,6.9-3.6
					c1.7-1.9,0.3,0.2-0.3-1.8c0.2,0.6,0.5,1.2,0.7,1.9c0.9,3.8-0.9,7.7-3,10.8c-5,7-13.4,10.2-21.1,13c-9,3.3-18,6.5-25.9,12.2
					c-7.2,5.1-13.3,11.3-18.3,18.6c-5.2,7.5-7.9,17.1-0.6,24.3c5.5,5.4,13.9,6.4,21.2,6.2c19.2-0.6,37.4-7.6,52.4-19.5
					c4.9-3.9,13.4-13.2,20.7-9.9c6.1,2.8,2.2,13.1,0.5,17.5c-3.3,8.3-8.2,16.4-13.9,23.3c-5.5,6.5-12,11.9-18,17.9
					c-11.7,11.7-19.6,27.2-12,43.5c7.8,16.8,27.6,25.7,44.5,30.3c20.1,5.5,43.3,3,55.8-15.5C593.5,1013.4,580.6,1005.9,575.2,1013.8
					L575.2,1013.8z"/>
			</g>
			<g id="XMLID_60_">
				<path id="XMLID_987_" fill="#00C2F3" d="M411.3,752.6c-11-0.3-11,11.9-8.2,19.2c3.4,8.7,7.8,17.5,16.4,22.1
					c7.9,4.3,18.1,3.4,25.5,8.3c6.1,4,8.3,11.7,6.2,18.5c-2.9,9.2,11.6,13.2,14.5,4c4.8-15.3-3.3-32-18.1-37.9
					c-7-2.8-16.3-2.4-22.5-7.1c-2.9-2.2-4.7-5.6-6.2-8.8c-0.7-1.6-1.1-3.8-2.1-5.2c-1.9-3,1.4-1.3-2.6,0.8c-1.3,0.3-2.5,0.7-3.8,1
					c0.3,0,0.6,0,0.9,0C420.9,767.9,420.9,752.9,411.3,752.6L411.3,752.6z"/>
			</g>
			<g id="XMLID_135_">
				<path id="XMLID_994_" fill="#FBED21" d="M492.3,811.1c9.7,0,9.7-15,0-15C482.6,796.1,482.6,811.1,492.3,811.1L492.3,811.1z"/>
			</g>
			<g id="XMLID_151_">
				<path id="XMLID_1001_" fill="#00C2F3" d="M1132.9,713.3c14.7,15.3,21.7,38,17.2,58.9c-4.9,22.8-20.7,42.3-20.1,66.4
					c0.5,21.3,13.7,40.3,36.4,40.9c11.2,0.3,22.2-3.7,32.7-7.1c8.9-2.9,19.6-7,29.1-4.7c3.5,0.8,7.9,2.8,8,7
					c0.2,5.4-5.6,10.4-9,13.8c-11.5,11.3-23.1,22.5-34.7,33.7c-3.2,3.1-2.5,7.4,0,10.6c7.7,9.8,22,10.5,33,6.8
					c6.5-2.1,12.3-5.7,18.3-8.8c5-2.6,10.9-5.5,16.7-4.3c3.1,0.7,8.5,3.2,8.3,7.1c-0.1,2.5-2.7,4.7-4.2,6.4
					c-2.2,2.3-4.4,4.7-6.2,7.3c-6,8.8-7,20.4-4.4,30.5c3.2,12.3,11.7,22.1,23.5,26.6c9,3.4,12.9-11.1,4-14.5
					c-10.3-3.9-15.5-16.9-13.5-27.3c1.3-6.6,5.6-10,9.7-14.9c5.4-6.4,7.9-14.5,4.1-22.4c-7.3-15.3-26-16.2-39.7-10.3
					c-10.1,4.3-29.3,19.7-39.1,7.2c0,3.5,0,7.1,0,10.6c10.6-10.3,21.3-20.7,31.9-31c8.5-8.3,19-18.9,15.6-32
					c-2.7-10.5-12.9-16-22.9-17.3c-11.6-1.4-23.2,2.5-34.1,6c-9.9,3.2-21.6,8.2-32.1,5.5c-9.3-2.4-14.3-10.2-16-19.2
					c-4.4-24.3,14.2-45.7,19.1-68.5c5.6-26.3-2.5-54.1-21.1-73.5C1136.9,695.7,1126.3,706.3,1132.9,713.3L1132.9,713.3z"/>
			</g>
			<g id="XMLID_942_">
				<path id="XMLID_1008_" fill="#00C2F3" d="M1358.1,1016.4c-10-3.4-16-12.8-20.6-21.8c-4.9-9.6-11.7-21.5-8.4-32.5
					c3.3-11.2,12.9-19.5,18.3-29.6c4.8-8.9,7.5-19.6,5.3-29.6c-2.6-11.6-12.9-18.5-24.4-18.9c-10.5-0.4-20.5,4.8-31.1,3.5
					c-9.5-1.2-10-7.9-7.4-15.7c2.9-8.5,7.7-16.8,6.9-26.1c-1.3-13.5-12.9-20.4-25.4-21.4c-7.4-0.6-14.8,1.4-22.2,0.9
					c-3.5-0.2-12.1-2.4-11.2-7.6c1.6-9.4-12.8-13.5-14.5-4c-2.2,12.9,7.6,23.9,20.1,25.9c6.7,1.1,13.2,0.2,19.9-0.2
					c5.2-0.4,12.2-0.8,16.3,3.2c5.7,5.6-1.4,17.1-3.6,23c-3.7,9.8-4.9,21,2.8,29.3c7.8,8.3,20.1,8.6,30.6,7
					c7.8-1.2,23.2-7.5,27.8,2.4c4,8.7-1.8,19.7-6.7,26.7c-7.3,10.5-15.8,20.5-17.3,33.7c-1.6,13.7,6.1,28.5,12.5,40.2
					c6.4,11.7,15.3,21.7,28.2,26.1C1363.3,1034,1367.2,1019.5,1358.1,1016.4L1358.1,1016.4z"/>
			</g>
			<g id="XMLID_965_">
				<path id="XMLID_1015_" fill="#FBED21" d="M1262.4,792.3c-0.5,0.5-1,1-1.5,1.5c-1.4,1.4-2.2,3.4-2.2,5.3c0,1,0.2,2,0.6,2.9
					c0.3,0.9,0.8,1.7,1.6,2.4c1.4,1.3,3.3,2.3,5.3,2.2c2-0.1,3.9-0.8,5.3-2.2c0.5-0.5,1-1,1.5-1.5c1.4-1.4,2.2-3.4,2.2-5.3
					c0-1-0.2-2-0.6-2.9c-0.3-0.9-0.8-1.7-1.6-2.4c-1.4-1.3-3.3-2.3-5.3-2.2C1265.7,790.2,1263.9,790.8,1262.4,792.3L1262.4,792.3z"
					/>
			</g>
			<g id="XMLID_972_">
				<path id="XMLID_1022_" fill="#FBED21" d="M1281.2,784.1c0,0.5,0,1,0,1.5c0,1.9,0.8,3.9,2.2,5.3c0.7,0.7,1.5,1.2,2.4,1.6
					c0.9,0.5,1.9,0.7,2.9,0.6c1.9-0.1,4-0.7,5.3-2.2c1.3-1.5,2.2-3.3,2.2-5.3c0-0.5,0-1,0-1.5c0-1.9-0.8-3.9-2.2-5.3
					c-0.7-0.7-1.5-1.2-2.4-1.6c-0.9-0.5-1.9-0.7-2.9-0.6c-1.9,0.1-4,0.7-5.3,2.2C1282.1,780.2,1281.2,782,1281.2,784.1L1281.2,784.1
					z"/>
			</g>
			<g id="XMLID_979_">
				<path id="XMLID_1029_" fill="#00C2F3" d="M1412.6,1004.2c0.1,0.2,0.2,0.4,0.3,0.7c0-2.5,0-5,0-7.6c0.5-0.6,0.9-1.1,1.4-1.7
					c1.3-0.3,2.5-0.7,3.8-1c-2.2,0.3-8.7-5.3-11.1-7.6c-3.8-3.6-6.9-7.6-9.3-12.2c-5.9-10.9-5.9-22.6-5-34.7
					c1-13.5,1.9-26.7-2.6-39.7c-4.2-11.9-11.2-22.2-19.3-31.8c-6.2-7.4-16.8,3.3-10.6,10.6c8.8,10.4,16.4,22.6,18.1,36.4
					c1.9,15.8-2.7,31.5-0.3,47.3c1.8,12.2,7.9,23.8,16.3,32.7c7,7.3,22.9,21.1,31.6,9.3c1.6-2.2,1.1-5.3,0-7.6
					c-0.1-0.2-0.2-0.4-0.3-0.7C1421.5,987.9,1408.5,995.5,1412.6,1004.2L1412.6,1004.2z"/>
			</g>
			<g id="XMLID_986_">
				<path id="XMLID_1036_" fill="#00C2F3" d="M1193.5,656c4.8,14.1,18,16.9,29.4,23.9c5.1,3.2,7.5,6.6,6.2,12.6
					c-1.6,7.2-3.3,13.8,0.6,20.6c4.8,8.4,17.7,0.8,13-7.6c-1.3-2.2,0-5.3,0.6-7.6c0.7-3,1.4-6.1,1.5-9.2c0.1-6.7-3.2-12.9-8.2-17.3
					c-4.8-4.2-10.2-6.8-15.9-9.4c-4.6-2.2-10.8-4.8-12.6-10C1204.9,642.9,1190.4,646.8,1193.5,656L1193.5,656z"/>
			</g>
			<g id="XMLID_993_">
				<path id="XMLID_1043_" fill="#00C2F3" d="M1095.2,776.5c0.9,11.3-3.3,22.2-2.2,33.4c0.9,9.5,4.6,18,12.7,23.5
					c8,5.5,15.5-7.5,7.6-13c-5-3.4-5.6-10.5-5.4-16c0.4-9.4,3.2-18.5,2.4-28C1109.4,767,1094.4,766.9,1095.2,776.5L1095.2,776.5z"/>
			</g>
			<g id="XMLID_1000_">
				<path id="XMLID_1050_" fill="#00C2F3" d="M1168.4,964.6c7.3,3.8,15.1,6.1,23.3,6.3c7.2,0.2,14.9-2.2,22.1-0.7
					c14.7,3,10.4,28.3,6.3,37.7c-1.6,3.7-1.1,8,2.7,10.3c3.2,1.9,8.6,1,10.3-2.7c6.9-15.8,10.2-40.8-4.2-53.9
					c-7-6.4-16.2-7.1-25.2-6.4c-9.8,0.8-18.6,1.2-27.6-3.5C1167.4,947.2,1159.8,960.2,1168.4,964.6L1168.4,964.6z"/>
			</g>
			<g id="XMLID_1007_">
				<path id="XMLID_1057_" fill="#FBED21" d="M798.4,839.6c-8.3,12.8-12.6,30.2-8.3,45.2c3.9,13.8,16.7,25.4,31.6,24.1
					c-1.8-4.3-3.5-8.5-5.3-12.8c-11.5,12-22.1,30.9-9.8,46.3c5.9,7.4,15.2,9,24.1,10.2c10.5,1.4,21.1,2.3,31.7,2.7
					c-2.2-3.8-4.3-7.5-6.5-11.3c-3.4,5-9.2,8-13,12.7c-5.4,6.6-6.2,14.4-3.3,22.4c6,16.7,15.7,32.1,26.7,45.9
					c2.5,3.2,7.9,2.6,10.6,0c3.2-3.1,2.5-7.5,0-10.6c-9-11.3-16.8-24.2-22.2-37.7c-2.3-5.9-2.5-8.7,2.1-13c4.3-4,8.7-7.3,12-12.2
					c3.3-4.9-1.2-11.1-6.5-11.3c-7.5-0.3-15-0.8-22.4-1.5c-6.1-0.6-14.7-0.6-19.9-4.1c-10.7-7.2,1.2-22,6.9-28
					c4.2-4.3,1.5-13.4-5.3-12.8c-9.7,0.8-16.4-7-17.9-16.1c-1.8-10.5,1.9-21.9,7.5-30.7C816.6,839,803.6,831.5,798.4,839.6
					L798.4,839.6z"/>
			</g>
			<g id="XMLID_1014_">
				<path id="XMLID_1064_" fill="#00C2F3" d="M811,1005.5c-5.9,4.4-12.4,0.4-17.5-3.6c-5.5-4.4-11.5-9.3-15.1-15.4
					c-8.1-13.4,3.5-29.4,2.3-43.8c-0.6-6.5-2.5-13-7.2-17.8c-2.7-2.7-6-4.5-9.5-5.8c-3.2-1.2-7.2-1.8-10-3.8
					c-4.3-3.1-4.9-9.5-3.6-14.3c2-7,7.4-12.4,12.6-17.3c7.1-6.6-3.5-17.2-10.6-10.6c-9.8,9.1-18.9,21.1-17.4,35.3
					c0.7,6.3,3.1,12.6,7.8,17c5.3,5,12.3,5.1,18.2,8.7c10.5,6.3,1.8,25.1,0.3,33.7c-2.7,15.9,3.3,28.2,14.9,38.9
					c10.9,10,27.6,22.6,42.3,11.7c3.3-2.4,4.9-6.5,2.7-10.3C819.4,1005,814.2,1003.1,811,1005.5L811,1005.5z"/>
			</g>
			<g id="XMLID_1021_">
				<path id="XMLID_1071_" fill="#00C2F3" d="M741.6,1016.4c1-10.3-4.5-19.6-11.4-26.8c-6.6-6.8-15.6-11.5-21.4-19.1
					c-6.3-8.2-5-19.3-7.3-28.9c-2.8-11.4-8.8-21.7-14.7-31.7c-4.9-8.3-17.9-0.8-13,7.6c5.4,9.2,11,18.5,13.4,29
					c2.2,9.9,1.7,20.1,7,29.1c4.6,7.9,12.1,13.3,19,19c6.8,5.5,14.3,12.3,13.4,21.8c-0.4,4,3.7,7.5,7.5,7.5
					C738.5,1023.9,741.2,1020.5,741.6,1016.4L741.6,1016.4z"/>
			</g>
			<g id="XMLID_1028_">
				<path id="XMLID_1078_" fill="#00C2F3" d="M678.2,1011.6c-15-20.8-28-43-38.8-66.2c-4.1-8.7-17-1.1-13,7.6
					c10.8,23.3,23.8,45.4,38.8,66.2c2.4,3.3,6.5,4.8,10.3,2.7C678.8,1020,680.6,1014.9,678.2,1011.6L678.2,1011.6z"/>
			</g>
			<g id="XMLID_1035_">
				<path id="XMLID_1085_" fill="#00C2F3" d="M636,1019.9c-12.8-23.4-26.6-46.3-41.1-68.7c-5.3-8.1-18.2-0.5-13,7.6
					c14.6,22.4,28.3,45.3,41.1,68.7C627.7,1035.9,640.7,1028.3,636,1019.9L636,1019.9z"/>
			</g>
			<g id="XMLID_1042_">
				<path id="XMLID_1092_" fill="#FBED21" d="M580.8,917.6c-0.3,0-0.6,0-0.9,0c-9.7,0-9.7,15,0,15c0.3,0,0.6,0,0.9,0
					C590.4,932.6,590.4,917.6,580.8,917.6c-0.3,0-0.6,0-0.9,0c-9.7,0-9.7,15,0,15c0.3,0,0.6,0,0.9,0
					C590.4,932.6,590.4,917.6,580.8,917.6L580.8,917.6z"/>
			</g>
			<g id="XMLID_1049_">
				<path id="XMLID_1099_" fill="#FBED21" d="M628.8,923.6c0-1,0-2,0-3c0-1.9-0.8-3.9-2.2-5.3c-1.3-1.3-3.4-2.3-5.3-2.2
					c-1.9,0.1-4,0.7-5.3,2.2c-1.3,1.5-2.2,3.3-2.2,5.3c0,1,0,2,0,3c0,1.9,0.8,3.9,2.2,5.3c1.3,1.3,3.4,2.3,5.3,2.2
					c1.9-0.1,4-0.7,5.3-2.2C627.9,927.4,628.8,925.6,628.8,923.6L628.8,923.6z"/>
			</g>
			<g id="XMLID_1056_">
				<path id="XMLID_1106_" fill="#00C2F3" d="M1280.6,441c6.8,5.9,14.8,7.9,23.5,9.7c7.8,1.7,14.5,4,18.6,11.2c4,7,2.7,13.8-0.1,21
					c-3.4,8.6-6.3,17.6-0.7,26c4.8,7.1,13.5,9,21.6,9c8.9,0.1,17.5-1.3,26.4,0.4c8.6,1.6,19.9,4.6,26,11.3c5.5,6,6.4,16.4,8.7,24
					c5.6,18.5,13.5,36.5,29.9,47.7c8,5.5,15.5-7.5,7.6-13c-13.5-9.3-19.2-25.9-23.7-40.9c-2.4-8.2-3.9-17.5-8.8-24.6
					c-5.6-8.1-14.9-12.6-23.9-15.9c-9.3-3.4-19.5-5-29.4-4.8c-3.8,0.1-7.6,0.5-11.4,0.6c-2.9,0.1-7.2,0.4-9.7-1.6
					c-5.1-3.9,2.7-15.8,4-20.4c2.2-8.1,1.2-16.6-2.3-24.2c-3.9-8.5-11-14.8-19.8-18c-8.1-3-19.1-2.5-25.9-8.4
					C1283.9,424.1,1273.3,434.7,1280.6,441L1280.6,441z"/>
			</g>
			<g id="XMLID_1063_">
				<path id="XMLID_1113_" fill="#FBED21" d="M1348.3,450.5c9.7,0,9.7-15,0-15C1338.7,435.5,1338.6,450.5,1348.3,450.5L1348.3,450.5
					z"/>
			</g>
			<g id="XMLID_1070_">
				<path id="XMLID_1119_" fill="#FBED21" d="M1319,417.7c-0.7,0.7-1.3,1.3-2,2c-1.4,1.4-2.2,3.4-2.2,5.3c0,1,0.2,2,0.6,2.9
					c0.3,0.9,0.8,1.7,1.6,2.4c1.4,1.3,3.3,2.3,5.3,2.2c2-0.1,3.9-0.8,5.3-2.2c0.7-0.7,1.3-1.3,2-2c1.4-1.4,2.2-3.4,2.2-5.3
					c0-1-0.2-2-0.6-2.9c-0.3-0.9-0.8-1.7-1.6-2.4c-1.4-1.3-3.3-2.3-5.3-2.2C1322.3,415.6,1320.4,416.3,1319,417.7L1319,417.7z"/>
			</g>
			<g id="XMLID_1077_">
				<path id="XMLID_1112_" fill="#00C2F3" d="M1026.2,142.3c8.1,16.3-0.9,37-20,39c-4,0.4-7.5,3.1-7.5,7.5c0,3.7,3.4,7.9,7.5,7.5
					c13.3-1.4,25.6-8.3,32.5-20c7.7-13,6.9-28.3,0.4-41.6C1034.9,126.1,1022,133.7,1026.2,142.3L1026.2,142.3z"/>
			</g>
			<g id="XMLID_1084_">
				<path id="XMLID_554_" fill="#FBED21" d="M975.3,199.5c9.7,0,9.7-15,0-15C965.7,184.5,965.6,199.5,975.3,199.5L975.3,199.5z"/>
			</g>
			<g id="XMLID_1091_">
				<path id="XMLID_548_" fill="#00C2F3" d="M822.5,354.4c4.3,1.8,9,3.7,11.6,7.8c2.7,4.2,3.5,9.4,4.4,14.2c1.9,9.5,16.3,5.5,14.5-4
					c-1.4-7.1-3.2-14.3-7.7-20.2c-4.8-6.3-11.6-9.3-18.8-12.2c-3.8-1.5-8.2,1.7-9.2,5.2C816,349.5,818.8,352.9,822.5,354.4
					L822.5,354.4z"/>
			</g>
			<g id="XMLID_1098_">
				<path id="XMLID_526_" fill="#00C2F3" d="M990.4,535.8c16.5,8.3,25.7,25.9,23.4,44.2c-0.5,4,3.8,7.5,7.5,7.5c4.5,0,7-3.5,7.5-7.5
					c2.9-23-10.1-46.8-30.8-57.2C989.3,518.5,981.7,531.5,990.4,535.8L990.4,535.8z"/>
			</g>
			<g id="XMLID_1105_">
				<path id="XMLID_540_" fill="#00C2F3" d="M983.1,572.6c3.4,5.1,4.7,10.3,4.3,16.4c-0.3,4,3.7,7.5,7.5,7.5c4.3,0,7.2-3.4,7.5-7.5
					c0.7-8.4-1.6-16.9-6.3-23.9C990.7,557.1,977.7,564.6,983.1,572.6L983.1,572.6z"/>
			</g>
			<g id="XMLID_153_">
				<path id="XMLID_547_" fill="#00C2F3" d="M1062,520.3c11.3,10.6,18.3,24.8,19.3,40.3c0.6,9.6,15.6,9.7,15,0
					c-1.2-19.4-9.4-37.6-23.7-50.9C1065.6,503.1,1054.9,513.7,1062,520.3L1062,520.3z"/>
			</g>
			<g id="XMLID_154_">
				<path id="XMLID_541_" fill="#FBED21" d="M1111.7,592.1c9.7,0,9.7-15,0-15C1102.1,577.1,1102.1,592.1,1111.7,592.1L1111.7,592.1z
					"/>
			</g>
			<g id="XMLID_498_">
				<path id="XMLID_533_" fill="#FBED21" d="M1141,565.8c-0.5-0.5-1-1-1.5-1.5c-1.4-1.4-3.4-2.2-5.3-2.2c-1,0-2,0.2-2.9,0.6
					c-0.9,0.3-1.7,0.8-2.4,1.6c-1.3,1.4-2.3,3.3-2.2,5.3c0.1,2,0.8,3.9,2.2,5.3c0.5,0.5,1,1,1.5,1.5c1.4,1.4,3.4,2.2,5.3,2.2
					c1,0,2-0.2,2.9-0.6c0.9-0.3,1.7-0.8,2.4-1.6c1.3-1.4,2.3-3.3,2.2-5.3C1143.1,569.1,1142.5,567.2,1141,565.8L1141,565.8z"/>
			</g>
			<g id="XMLID_505_">
				<path id="XMLID_519_" fill="#FBED21" d="M850.7,259.1c-0.5,0-1,0-1.5,0c-1.9,0-3.9,0.8-5.3,2.2c-0.7,0.7-1.2,1.5-1.6,2.4
					c-0.5,0.9-0.7,1.9-0.6,2.9c0.1,1.9,0.7,4,2.2,5.3c1.5,1.3,3.3,2.2,5.3,2.2c0.5,0,1,0,1.5,0c1.9,0,3.9-0.8,5.3-2.2
					c0.7-0.7,1.2-1.5,1.6-2.4c0.5-0.9,0.7-1.9,0.6-2.9c-0.1-1.9-0.7-4-2.2-5.3C854.6,260,852.8,259.1,850.7,259.1L850.7,259.1z"/>
			</g>
			<g id="XMLID_512_">
				<path id="XMLID_221_" fill="#FBED21" d="M874.7,254.6c9.7,0,9.7-15,0-15C865.1,239.6,865.1,254.6,874.7,254.6L874.7,254.6z"/>
			</g>
		</g>
	</g>
</g>
</svg>
